<?xml version="1.0" encoding="utf-8" standalone="no"?>
<!DOCTYPE svg PUBLIC "-//W3C//DTD SVG 1.1//EN"
  "http://www.w3.org/Graphics/SVG/1.1/DTD/svg11.dtd">
<svg xmlns:xlink="http://www.w3.org/1999/xlink" width="892.229687pt" height="323.39625pt" viewBox="0 0 892.229687 323.39625" xmlns="http://www.w3.org/2000/svg" version="1.1">
 <metadata>
  <rdf:RDF xmlns:dc="http://purl.org/dc/elements/1.1/" xmlns:cc="http://creativecommons.org/ns#" xmlns:rdf="http://www.w3.org/1999/02/22-rdf-syntax-ns#">
   <cc:Work>
    <dc:type rdf:resource="http://purl.org/dc/dcmitype/StillImage"/>
    <dc:date>2024-01-24T15:19:39.079190</dc:date>
    <dc:format>image/svg+xml</dc:format>
    <dc:creator>
     <cc:Agent>
      <dc:title>Matplotlib v3.8.2, https://matplotlib.org/</dc:title>
     </cc:Agent>
    </dc:creator>
   </cc:Work>
  </rdf:RDF>
 </metadata>
 <defs>
  <style type="text/css">*{stroke-linejoin: round; stroke-linecap: butt}</style>
 </defs>
 <g id="figure_1">
  <g id="patch_1">
   <path d="M 0 323.39625 
L 892.229687 323.39625 
L 892.229687 0 
L 0 0 
z
" style="fill: #ffffff"/>
  </g>
  <g id="axes_1">
   <g id="patch_2">
    <path d="M 48.029688 299.518125 
L 885.029688 299.518125 
L 885.029688 22.318125 
L 48.029688 22.318125 
z
" style="fill: #eaeaf2"/>
   </g>
   <g id="matplotlib.axis_1">
    <g id="xtick_1">
     <g id="line2d_1">
      <path d="M 85.319522 299.518125 
L 85.319522 22.318125 
" clip-path="url(#pc8f6abf7c0)" style="fill: none; stroke: #ffffff; stroke-width: 0.8; stroke-linecap: round"/>
     </g>
     <g id="text_1">
      <!-- 0 -->
      <g style="fill: #262626" transform="translate(82.138272 314.116563) scale(0.1 -0.1)">
       <defs>
        <path id="DejaVuSans-30" d="M 2034 4250 
Q 1547 4250 1301 3770 
Q 1056 3291 1056 2328 
Q 1056 1369 1301 889 
Q 1547 409 2034 409 
Q 2525 409 2770 889 
Q 3016 1369 3016 2328 
Q 3016 3291 2770 3770 
Q 2525 4250 2034 4250 
z
M 2034 4750 
Q 2819 4750 3233 4129 
Q 3647 3509 3647 2328 
Q 3647 1150 3233 529 
Q 2819 -91 2034 -91 
Q 1250 -91 836 529 
Q 422 1150 422 2328 
Q 422 3509 836 4129 
Q 1250 4750 2034 4750 
z
" transform="scale(0.015625)"/>
       </defs>
       <use xlink:href="#DejaVuSans-30"/>
      </g>
     </g>
    </g>
    <g id="xtick_2">
     <g id="line2d_2">
      <path d="M 236.443473 299.518125 
L 236.443473 22.318125 
" clip-path="url(#pc8f6abf7c0)" style="fill: none; stroke: #ffffff; stroke-width: 0.8; stroke-linecap: round"/>
     </g>
     <g id="text_2">
      <!-- 200 -->
      <g style="fill: #262626" transform="translate(226.899723 314.116563) scale(0.1 -0.1)">
       <defs>
        <path id="DejaVuSans-32" d="M 1228 531 
L 3431 531 
L 3431 0 
L 469 0 
L 469 531 
Q 828 903 1448 1529 
Q 2069 2156 2228 2338 
Q 2531 2678 2651 2914 
Q 2772 3150 2772 3378 
Q 2772 3750 2511 3984 
Q 2250 4219 1831 4219 
Q 1534 4219 1204 4116 
Q 875 4013 500 3803 
L 500 4441 
Q 881 4594 1212 4672 
Q 1544 4750 1819 4750 
Q 2544 4750 2975 4387 
Q 3406 4025 3406 3419 
Q 3406 3131 3298 2873 
Q 3191 2616 2906 2266 
Q 2828 2175 2409 1742 
Q 1991 1309 1228 531 
z
" transform="scale(0.015625)"/>
       </defs>
       <use xlink:href="#DejaVuSans-32"/>
       <use xlink:href="#DejaVuSans-30" x="63.623047"/>
       <use xlink:href="#DejaVuSans-30" x="127.246094"/>
      </g>
     </g>
    </g>
    <g id="xtick_3">
     <g id="line2d_3">
      <path d="M 387.567423 299.518125 
L 387.567423 22.318125 
" clip-path="url(#pc8f6abf7c0)" style="fill: none; stroke: #ffffff; stroke-width: 0.8; stroke-linecap: round"/>
     </g>
     <g id="text_3">
      <!-- 400 -->
      <g style="fill: #262626" transform="translate(378.023673 314.116563) scale(0.1 -0.1)">
       <defs>
        <path id="DejaVuSans-34" d="M 2419 4116 
L 825 1625 
L 2419 1625 
L 2419 4116 
z
M 2253 4666 
L 3047 4666 
L 3047 1625 
L 3713 1625 
L 3713 1100 
L 3047 1100 
L 3047 0 
L 2419 0 
L 2419 1100 
L 313 1100 
L 313 1709 
L 2253 4666 
z
" transform="scale(0.015625)"/>
       </defs>
       <use xlink:href="#DejaVuSans-34"/>
       <use xlink:href="#DejaVuSans-30" x="63.623047"/>
       <use xlink:href="#DejaVuSans-30" x="127.246094"/>
      </g>
     </g>
    </g>
    <g id="xtick_4">
     <g id="line2d_4">
      <path d="M 538.691374 299.518125 
L 538.691374 22.318125 
" clip-path="url(#pc8f6abf7c0)" style="fill: none; stroke: #ffffff; stroke-width: 0.8; stroke-linecap: round"/>
     </g>
     <g id="text_4">
      <!-- 600 -->
      <g style="fill: #262626" transform="translate(529.147624 314.116563) scale(0.1 -0.1)">
       <defs>
        <path id="DejaVuSans-36" d="M 2113 2584 
Q 1688 2584 1439 2293 
Q 1191 2003 1191 1497 
Q 1191 994 1439 701 
Q 1688 409 2113 409 
Q 2538 409 2786 701 
Q 3034 994 3034 1497 
Q 3034 2003 2786 2293 
Q 2538 2584 2113 2584 
z
M 3366 4563 
L 3366 3988 
Q 3128 4100 2886 4159 
Q 2644 4219 2406 4219 
Q 1781 4219 1451 3797 
Q 1122 3375 1075 2522 
Q 1259 2794 1537 2939 
Q 1816 3084 2150 3084 
Q 2853 3084 3261 2657 
Q 3669 2231 3669 1497 
Q 3669 778 3244 343 
Q 2819 -91 2113 -91 
Q 1303 -91 875 529 
Q 447 1150 447 2328 
Q 447 3434 972 4092 
Q 1497 4750 2381 4750 
Q 2619 4750 2861 4703 
Q 3103 4656 3366 4563 
z
" transform="scale(0.015625)"/>
       </defs>
       <use xlink:href="#DejaVuSans-36"/>
       <use xlink:href="#DejaVuSans-30" x="63.623047"/>
       <use xlink:href="#DejaVuSans-30" x="127.246094"/>
      </g>
     </g>
    </g>
    <g id="xtick_5">
     <g id="line2d_5">
      <path d="M 689.815324 299.518125 
L 689.815324 22.318125 
" clip-path="url(#pc8f6abf7c0)" style="fill: none; stroke: #ffffff; stroke-width: 0.8; stroke-linecap: round"/>
     </g>
     <g id="text_5">
      <!-- 800 -->
      <g style="fill: #262626" transform="translate(680.271574 314.116563) scale(0.1 -0.1)">
       <defs>
        <path id="DejaVuSans-38" d="M 2034 2216 
Q 1584 2216 1326 1975 
Q 1069 1734 1069 1313 
Q 1069 891 1326 650 
Q 1584 409 2034 409 
Q 2484 409 2743 651 
Q 3003 894 3003 1313 
Q 3003 1734 2745 1975 
Q 2488 2216 2034 2216 
z
M 1403 2484 
Q 997 2584 770 2862 
Q 544 3141 544 3541 
Q 544 4100 942 4425 
Q 1341 4750 2034 4750 
Q 2731 4750 3128 4425 
Q 3525 4100 3525 3541 
Q 3525 3141 3298 2862 
Q 3072 2584 2669 2484 
Q 3125 2378 3379 2068 
Q 3634 1759 3634 1313 
Q 3634 634 3220 271 
Q 2806 -91 2034 -91 
Q 1263 -91 848 271 
Q 434 634 434 1313 
Q 434 1759 690 2068 
Q 947 2378 1403 2484 
z
M 1172 3481 
Q 1172 3119 1398 2916 
Q 1625 2713 2034 2713 
Q 2441 2713 2670 2916 
Q 2900 3119 2900 3481 
Q 2900 3844 2670 4047 
Q 2441 4250 2034 4250 
Q 1625 4250 1398 4047 
Q 1172 3844 1172 3481 
z
" transform="scale(0.015625)"/>
       </defs>
       <use xlink:href="#DejaVuSans-38"/>
       <use xlink:href="#DejaVuSans-30" x="63.623047"/>
       <use xlink:href="#DejaVuSans-30" x="127.246094"/>
      </g>
     </g>
    </g>
    <g id="xtick_6">
     <g id="line2d_6">
      <path d="M 840.939275 299.518125 
L 840.939275 22.318125 
" clip-path="url(#pc8f6abf7c0)" style="fill: none; stroke: #ffffff; stroke-width: 0.8; stroke-linecap: round"/>
     </g>
     <g id="text_6">
      <!-- 1000 -->
      <g style="fill: #262626" transform="translate(828.214275 314.116563) scale(0.1 -0.1)">
       <defs>
        <path id="DejaVuSans-31" d="M 794 531 
L 1825 531 
L 1825 4091 
L 703 3866 
L 703 4441 
L 1819 4666 
L 2450 4666 
L 2450 531 
L 3481 531 
L 3481 0 
L 794 0 
L 794 531 
z
" transform="scale(0.015625)"/>
       </defs>
       <use xlink:href="#DejaVuSans-31"/>
       <use xlink:href="#DejaVuSans-30" x="63.623047"/>
       <use xlink:href="#DejaVuSans-30" x="127.246094"/>
       <use xlink:href="#DejaVuSans-30" x="190.869141"/>
      </g>
     </g>
    </g>
   </g>
   <g id="matplotlib.axis_2">
    <g id="ytick_1">
     <g id="line2d_7">
      <path d="M 48.029688 259.634068 
L 885.029688 259.634068 
" clip-path="url(#pc8f6abf7c0)" style="fill: none; stroke: #ffffff; stroke-width: 0.8; stroke-linecap: round"/>
     </g>
     <g id="text_7">
      <!-- −4000 -->
      <g style="fill: #262626" transform="translate(7.2 263.433287) scale(0.1 -0.1)">
       <defs>
        <path id="DejaVuSans-2212" d="M 678 2272 
L 4684 2272 
L 4684 1741 
L 678 1741 
L 678 2272 
z
" transform="scale(0.015625)"/>
       </defs>
       <use xlink:href="#DejaVuSans-2212"/>
       <use xlink:href="#DejaVuSans-34" x="83.789062"/>
       <use xlink:href="#DejaVuSans-30" x="147.412109"/>
       <use xlink:href="#DejaVuSans-30" x="211.035156"/>
       <use xlink:href="#DejaVuSans-30" x="274.658203"/>
      </g>
     </g>
    </g>
    <g id="ytick_2">
     <g id="line2d_8">
      <path d="M 48.029688 216.699162 
L 885.029688 216.699162 
" clip-path="url(#pc8f6abf7c0)" style="fill: none; stroke: #ffffff; stroke-width: 0.8; stroke-linecap: round"/>
     </g>
     <g id="text_8">
      <!-- −3000 -->
      <g style="fill: #262626" transform="translate(7.2 220.498381) scale(0.1 -0.1)">
       <defs>
        <path id="DejaVuSans-33" d="M 2597 2516 
Q 3050 2419 3304 2112 
Q 3559 1806 3559 1356 
Q 3559 666 3084 287 
Q 2609 -91 1734 -91 
Q 1441 -91 1130 -33 
Q 819 25 488 141 
L 488 750 
Q 750 597 1062 519 
Q 1375 441 1716 441 
Q 2309 441 2620 675 
Q 2931 909 2931 1356 
Q 2931 1769 2642 2001 
Q 2353 2234 1838 2234 
L 1294 2234 
L 1294 2753 
L 1863 2753 
Q 2328 2753 2575 2939 
Q 2822 3125 2822 3475 
Q 2822 3834 2567 4026 
Q 2313 4219 1838 4219 
Q 1578 4219 1281 4162 
Q 984 4106 628 3988 
L 628 4550 
Q 988 4650 1302 4700 
Q 1616 4750 1894 4750 
Q 2613 4750 3031 4423 
Q 3450 4097 3450 3541 
Q 3450 3153 3228 2886 
Q 3006 2619 2597 2516 
z
" transform="scale(0.015625)"/>
       </defs>
       <use xlink:href="#DejaVuSans-2212"/>
       <use xlink:href="#DejaVuSans-33" x="83.789062"/>
       <use xlink:href="#DejaVuSans-30" x="147.412109"/>
       <use xlink:href="#DejaVuSans-30" x="211.035156"/>
       <use xlink:href="#DejaVuSans-30" x="274.658203"/>
      </g>
     </g>
    </g>
    <g id="ytick_3">
     <g id="line2d_9">
      <path d="M 48.029688 173.764257 
L 885.029688 173.764257 
" clip-path="url(#pc8f6abf7c0)" style="fill: none; stroke: #ffffff; stroke-width: 0.8; stroke-linecap: round"/>
     </g>
     <g id="text_9">
      <!-- −2000 -->
      <g style="fill: #262626" transform="translate(7.2 177.563476) scale(0.1 -0.1)">
       <use xlink:href="#DejaVuSans-2212"/>
       <use xlink:href="#DejaVuSans-32" x="83.789062"/>
       <use xlink:href="#DejaVuSans-30" x="147.412109"/>
       <use xlink:href="#DejaVuSans-30" x="211.035156"/>
       <use xlink:href="#DejaVuSans-30" x="274.658203"/>
      </g>
     </g>
    </g>
    <g id="ytick_4">
     <g id="line2d_10">
      <path d="M 48.029688 130.829351 
L 885.029688 130.829351 
" clip-path="url(#pc8f6abf7c0)" style="fill: none; stroke: #ffffff; stroke-width: 0.8; stroke-linecap: round"/>
     </g>
     <g id="text_10">
      <!-- −1000 -->
      <g style="fill: #262626" transform="translate(7.2 134.62857) scale(0.1 -0.1)">
       <use xlink:href="#DejaVuSans-2212"/>
       <use xlink:href="#DejaVuSans-31" x="83.789062"/>
       <use xlink:href="#DejaVuSans-30" x="147.412109"/>
       <use xlink:href="#DejaVuSans-30" x="211.035156"/>
       <use xlink:href="#DejaVuSans-30" x="274.658203"/>
      </g>
     </g>
    </g>
    <g id="ytick_5">
     <g id="line2d_11">
      <path d="M 48.029688 87.894446 
L 885.029688 87.894446 
" clip-path="url(#pc8f6abf7c0)" style="fill: none; stroke: #ffffff; stroke-width: 0.8; stroke-linecap: round"/>
     </g>
     <g id="text_11">
      <!-- 0 -->
      <g style="fill: #262626" transform="translate(34.667188 91.693664) scale(0.1 -0.1)">
       <use xlink:href="#DejaVuSans-30"/>
      </g>
     </g>
    </g>
    <g id="ytick_6">
     <g id="line2d_12">
      <path d="M 48.029688 44.95954 
L 885.029688 44.95954 
" clip-path="url(#pc8f6abf7c0)" style="fill: none; stroke: #ffffff; stroke-width: 0.8; stroke-linecap: round"/>
     </g>
     <g id="text_12">
      <!-- 1000 -->
      <g style="fill: #262626" transform="translate(15.579688 48.758759) scale(0.1 -0.1)">
       <use xlink:href="#DejaVuSans-31"/>
       <use xlink:href="#DejaVuSans-30" x="63.623047"/>
       <use xlink:href="#DejaVuSans-30" x="127.246094"/>
       <use xlink:href="#DejaVuSans-30" x="190.869141"/>
      </g>
     </g>
    </g>
   </g>
   <g id="line2d_13">
    <path d="M 86.075142 83.171606 
L 86.830762 83.64389 
L 87.586382 85.962375 
L 88.342001 86.692268 
L 89.097621 87.078682 
L 89.853241 86.692268 
L 90.608861 85.876505 
L 91.36448 84.889002 
L 92.1201 84.116174 
L 92.87572 82.699322 
L 93.63134 78.92105 
L 95.142579 74.71343 
L 95.898199 75.142779 
L 96.653819 75.357453 
L 97.409438 75.357453 
L 98.165058 74.62756 
L 98.920678 78.319962 
L 99.676298 79.135725 
L 100.431917 80.209097 
L 101.187537 80.938991 
L 101.943157 82.398778 
L 102.698777 83.214541 
L 103.454396 84.373783 
L 104.210016 86.048245 
L 104.965636 87.035747 
L 105.721256 86.949878 
L 106.476875 86.692268 
L 107.232495 86.219984 
L 107.988115 82.441713 
L 108.743735 69.647111 
L 109.499354 40.107896 
L 110.254974 46.548131 
L 111.010594 65.43949 
L 111.766214 70.677548 
L 113.277453 67.843845 
L 114.033073 70.291134 
L 115.544312 59.128059 
L 117.055552 47.621504 
L 117.811172 67.071016 
L 118.566791 72.0944 
L 119.322411 73.425382 
L 120.078031 75.700932 
L 120.833651 80.853121 
L 121.58927 82.312908 
L 122.34489 84.760197 
L 123.10051 86.778138 
L 123.85613 87.336292 
L 124.611749 86.606398 
L 125.367369 86.048245 
L 126.122989 82.742257 
L 126.878609 70.248199 
L 127.634228 40.794854 
L 128.389848 48.007918 
L 129.145468 65.35362 
L 129.901088 70.119395 
L 130.656707 70.763418 
L 131.412327 65.997644 
L 132.167947 67.242756 
L 132.923567 63.936768 
L 133.679186 58.870449 
L 134.434806 51.829125 
L 135.190426 46.848676 
L 135.946046 65.18188 
L 136.701665 71.321572 
L 137.457285 72.867229 
L 138.968525 81.024861 
L 139.724144 83.64389 
L 140.479764 83.64389 
L 141.235384 85.66183 
L 141.991004 86.177049 
L 142.746623 86.477594 
L 143.502243 86.391724 
L 144.257863 85.790635 
L 145.013483 82.184103 
L 146.524722 73.940601 
L 147.280342 71.579181 
L 148.035962 65.740034 
L 148.791582 66.426993 
L 151.058441 65.310685 
L 151.814061 66.813407 
L 152.56968 66.341123 
L 153.3253 63.292745 
L 154.08092 68.659608 
L 154.83654 72.824294 
L 155.592159 74.412885 
L 156.347779 74.971039 
L 157.103399 78.491701 
L 157.859019 81.36834 
L 158.614638 86.434659 
L 159.370258 86.949878 
L 160.881498 87.379227 
L 161.637117 85.91944 
L 162.392737 83.257476 
L 163.148357 66.942212 
L 163.903977 41.009529 
L 164.659596 45.517694 
L 165.415216 65.310685 
L 166.170836 67.328626 
L 166.926456 68.960152 
L 167.682075 70.291134 
L 168.437695 69.775915 
L 169.193315 65.224815 
L 169.948935 59.815017 
L 170.704554 56.466095 
L 171.460174 54.276414 
L 172.215794 70.419939 
L 172.971414 75.185714 
L 173.727033 76.81724 
L 174.482653 76.688435 
L 175.238273 83.042801 
L 175.993893 83.858564 
L 176.749512 83.944434 
L 177.505132 85.103677 
L 178.260752 86.606398 
L 179.016372 86.649333 
L 179.771991 85.83357 
L 180.527611 81.926494 
L 181.283231 65.782969 
L 182.038851 35.599731 
L 182.79447 45.260084 
L 183.55009 62.691656 
L 184.30571 66.384058 
L 185.06133 63.979703 
L 185.816949 63.636224 
L 186.572569 65.224815 
L 187.328189 60.416106 
L 188.083809 57.453597 
L 188.839428 49.253031 
L 189.595048 42.51225 
L 190.350668 60.71665 
L 191.106288 68.359064 
L 191.861907 68.616673 
L 192.617527 70.248199 
L 193.373147 78.749311 
L 194.128767 82.570517 
L 194.884386 83.257476 
L 195.640006 85.318351 
L 196.395626 86.262919 
L 197.906865 86.177049 
L 198.662485 85.704765 
L 199.418105 81.840624 
L 200.173725 77.375394 
L 200.929344 75.657997 
L 201.684964 72.051465 
L 202.440584 69.861785 
L 203.196204 69.775915 
L 203.951823 70.849288 
L 204.707443 69.561241 
L 205.463063 70.591679 
L 206.218683 68.659608 
L 206.974302 69.174827 
L 207.729922 68.230259 
L 208.485542 72.480814 
L 209.241162 74.327015 
L 209.996781 75.872672 
L 210.752401 76.430826 
L 211.508021 77.675938 
L 212.263641 80.595512 
L 213.01926 85.618896 
L 213.77488 86.477594 
L 214.5305 87.121617 
L 215.28612 86.735203 
L 216.041739 86.00531 
L 216.797359 82.055298 
L 217.552979 68.702543 
L 218.308599 44.616061 
L 219.064219 48.780747 
L 219.819838 63.378614 
L 220.575458 65.697099 
L 221.331078 64.451987 
L 222.086698 64.838401 
L 222.842317 65.61123 
L 223.597937 64.366117 
L 224.353557 58.140556 
L 225.109177 49.768249 
L 225.864796 45.517694 
L 226.620416 64.323182 
L 227.376036 71.192767 
L 228.131656 73.124838 
L 228.887275 74.36995 
L 229.642895 80.166163 
L 231.154135 85.533026 
L 231.909754 86.520529 
L 232.665374 86.692268 
L 233.420994 86.391724 
L 234.176614 85.790635 
L 234.932233 82.484647 
L 235.687853 71.149832 
L 236.443473 51.228036 
L 237.199093 53.847065 
L 237.954712 62.9922 
L 238.710332 64.494922 
L 239.465952 63.722094 
L 240.221572 62.562851 
L 240.977191 63.33568 
L 241.732811 59.342733 
L 242.488431 58.655775 
L 243.244051 55.392722 
L 243.99967 59.342733 
L 244.75529 67.672105 
L 245.51091 71.665051 
L 246.26653 74.45582 
L 247.777769 78.148222 
L 248.533389 79.479204 
L 249.289009 84.588458 
L 250.044628 85.876505 
L 250.800248 86.563464 
L 252.311488 86.992813 
L 253.067107 86.649333 
L 253.822727 84.588458 
L 254.578347 81.54008 
L 256.089586 76.98898 
L 256.845206 71.450377 
L 258.356446 69.775915 
L 259.112065 70.334069 
L 259.867685 71.450377 
L 260.623305 72.35201 
L 261.378925 70.634614 
L 262.890164 74.799299 
L 263.645784 74.928104 
L 264.401404 76.001477 
L 265.157023 82.098233 
L 265.912643 84.631393 
L 266.668263 84.588458 
L 267.423883 86.048245 
L 268.179502 86.821073 
L 268.935122 86.864008 
L 269.690742 87.078682 
L 270.446362 85.790635 
L 271.201981 82.613452 
L 271.957601 66.899277 
L 272.713221 40.751919 
L 273.468841 42.59812 
L 274.22446 61.661218 
L 274.98008 67.586235 
L 275.7357 66.469928 
L 276.49132 67.62917 
L 278.002559 62.434047 
L 278.758179 56.809574 
L 279.513799 49.167161 
L 280.269418 46.204652 
L 281.025038 62.133502 
L 281.780658 71.407442 
L 282.536278 71.879726 
L 283.291897 77.418329 
L 284.047517 81.711819 
L 284.803137 82.398778 
L 285.558757 85.7477 
L 287.069996 86.864008 
L 287.825616 86.821073 
L 288.581236 85.618896 
L 289.336856 82.269973 
L 290.092475 67.71504 
L 290.848095 41.395943 
L 291.603715 49.854119 
L 292.359335 62.391112 
L 293.114954 65.568295 
L 293.870574 63.936768 
L 294.626194 65.568295 
L 295.381814 63.765029 
L 296.137433 59.900887 
L 297.648673 49.467705 
L 298.404293 48.694877 
L 299.159912 61.446544 
L 299.915532 70.033525 
L 300.671152 75.486258 
L 301.426772 74.45582 
L 302.182391 76.90311 
L 302.938011 78.83518 
L 303.693631 86.00531 
L 304.449251 86.821073 
L 305.20487 87.379227 
L 305.96049 87.422162 
L 306.71611 87.336292 
L 307.47173 86.09118 
L 308.227349 82.699322 
L 308.982969 78.405831 
L 309.738589 76.90311 
L 310.494209 76.81724 
L 311.249828 74.498755 
L 312.005448 72.609619 
L 312.761068 69.003087 
L 313.516688 70.591679 
L 314.272307 68.788413 
L 315.027927 69.647111 
L 315.783547 65.654164 
L 316.539167 70.634614 
L 317.294786 73.210708 
L 318.050406 77.547133 
L 318.806026 78.792246 
L 319.561646 80.252032 
L 321.072885 84.974872 
L 321.828505 86.219984 
L 323.339744 87.465097 
L 324.095364 87.121617 
L 324.850984 86.048245 
L 325.606604 81.883559 
L 326.362223 68.273194 
L 327.117843 39.163328 
L 327.873463 47.23509 
L 328.629083 63.550354 
L 329.384702 69.81885 
L 330.140322 67.757975 
L 330.895942 69.046022 
L 331.651562 68.230259 
L 332.407181 60.501976 
L 333.162801 57.496532 
L 333.918421 49.725314 
L 334.674041 48.222593 
L 335.42966 63.378614 
L 336.18528 71.793856 
L 337.69652 75.443323 
L 338.452139 81.497145 
L 339.207759 82.956931 
L 339.963379 85.618896 
L 340.718999 86.821073 
L 341.474618 87.293357 
L 342.230238 87.035747 
L 342.985858 86.00531 
L 343.741478 82.484647 
L 344.497097 68.187324 
L 345.252717 36.930713 
L 346.008337 47.363895 
L 346.763957 64.451987 
L 347.519576 69.217762 
L 348.275196 67.5433 
L 349.030816 68.359064 
L 349.786436 68.401998 
L 351.297675 58.398165 
L 352.053295 50.111729 
L 352.808915 47.363895 
L 353.564534 62.476981 
L 354.320154 71.021028 
L 355.075774 73.854731 
L 355.831394 73.253643 
L 356.587013 79.865618 
L 357.342633 82.742257 
L 358.098253 83.042801 
L 358.853873 85.790635 
L 359.609493 86.348789 
L 360.365112 87.164552 
L 361.120732 87.121617 
L 361.876352 86.477594 
L 362.631972 84.073239 
L 364.143211 80.552577 
L 364.898831 77.976482 
L 365.654451 72.824294 
L 366.41007 72.523749 
L 367.92131 64.280247 
L 368.67693 67.113951 
L 369.432549 69.088957 
L 370.188169 72.910164 
L 370.943789 73.167773 
L 371.699409 73.940601 
L 372.455028 76.73137 
L 373.210648 77.761808 
L 373.966268 81.36834 
L 374.721888 83.300411 
L 375.477507 84.373783 
L 376.233127 86.00531 
L 376.988747 86.692268 
L 377.744367 86.692268 
L 378.499986 86.821073 
L 379.255606 85.83357 
L 380.011226 82.398778 
L 380.766846 67.199821 
L 381.522465 35.256251 
L 382.278085 46.719871 
L 383.033705 62.648721 
L 383.789325 70.291134 
L 384.544944 68.530803 
L 385.300564 65.868839 
L 386.056184 66.255253 
L 386.811804 62.562851 
L 387.567423 58.011751 
L 388.323043 49.68238 
L 389.078663 45.002475 
L 389.834283 63.765029 
L 390.589902 72.00853 
L 391.345522 72.695489 
L 392.101142 72.996033 
L 392.856762 80.509642 
L 393.612381 83.901499 
L 394.368001 86.048245 
L 395.123621 86.262919 
L 395.879241 86.692268 
L 396.63486 86.821073 
L 397.39048 85.962375 
L 398.1461 81.926494 
L 398.90172 68.101454 
L 399.657339 40.923659 
L 400.412959 47.192155 
L 401.168579 63.035135 
L 401.924199 64.194378 
L 402.679818 64.881336 
L 403.435438 63.206875 
L 404.191058 63.550354 
L 404.946678 61.017195 
L 405.702297 56.42316 
L 406.457917 50.970427 
L 407.213537 47.664439 
L 407.969157 62.305242 
L 408.724776 71.021028 
L 409.480396 72.35201 
L 410.236016 72.824294 
L 410.991636 74.670495 
L 411.747255 78.706376 
L 412.502875 83.686825 
L 413.258495 85.83357 
L 414.014115 86.00531 
L 414.769734 86.606398 
L 415.525354 86.992813 
L 416.280974 86.563464 
L 417.036594 84.073239 
L 417.792213 82.785192 
L 418.547833 79.17866 
L 419.303453 76.387891 
L 420.059073 71.364507 
L 420.814692 70.634614 
L 421.570312 69.260697 
L 422.325932 71.965596 
L 423.081552 72.00853 
L 423.837171 72.43788 
L 424.592791 73.983536 
L 425.348411 75.915607 
L 426.104031 74.584625 
L 426.85965 75.700932 
L 427.61527 75.700932 
L 428.37089 79.908553 
L 429.12651 82.570517 
L 429.882129 82.441713 
L 430.637749 85.618896 
L 431.393369 86.649333 
L 432.148989 87.379227 
L 433.660228 86.305854 
L 434.415848 83.042801 
L 435.171468 67.586235 
L 436.682707 47.922048 
L 437.438327 63.378614 
L 438.193947 65.396555 
L 438.949567 63.206875 
L 439.705186 64.108508 
L 440.460806 62.648721 
L 441.216426 62.648721 
L 442.727665 51.356841 
L 443.483285 46.333457 
L 444.238905 62.562851 
L 444.994525 73.210708 
L 445.750144 72.523749 
L 446.505764 72.996033 
L 447.261384 80.509642 
L 448.017004 82.441713 
L 448.772623 83.901499 
L 449.528243 85.83357 
L 451.039483 86.348789 
L 451.795102 86.735203 
L 452.550722 85.83357 
L 453.306342 82.956931 
L 454.817581 76.602565 
L 455.573201 70.248199 
L 456.328821 70.377004 
L 457.084441 68.444933 
L 457.84006 68.960152 
L 458.59568 66.985147 
L 459.3513 68.874282 
L 460.10692 67.672105 
L 460.862539 68.058519 
L 461.618159 68.960152 
L 462.373779 72.394945 
L 463.129399 74.36995 
L 463.885018 77.074849 
L 464.640638 77.590068 
L 465.396258 79.049855 
L 466.151878 81.411275 
L 466.907497 86.477594 
L 468.418737 87.250422 
L 469.174357 86.949878 
L 469.929976 85.962375 
L 470.685596 82.527582 
L 471.441216 67.929714 
L 472.196836 38.476369 
L 472.952455 47.278025 
L 473.708075 65.782969 
L 474.463695 66.985147 
L 475.219315 67.371561 
L 475.974934 66.942212 
L 476.730554 65.997644 
L 477.486174 63.979703 
L 478.241794 59.815017 
L 478.997413 49.725314 
L 479.753033 48.437267 
L 480.508653 64.409052 
L 481.264273 70.763418 
L 483.531132 82.956931 
L 484.286752 83.772695 
L 485.042371 85.83357 
L 485.797991 86.692268 
L 487.309231 86.821073 
L 488.06485 86.00531 
L 488.82047 82.527582 
L 489.57609 68.101454 
L 490.33171 37.531801 
L 491.087329 45.260084 
L 491.842949 61.575348 
L 492.598569 67.5433 
L 493.354189 68.187324 
L 494.109808 65.053076 
L 494.865428 65.911774 
L 495.621048 61.832958 
L 496.376668 56.50903 
L 497.132287 48.952486 
L 497.887907 45.775303 
L 498.643527 61.961763 
L 499.399147 68.616673 
L 500.154766 72.43788 
L 500.910386 75.400388 
L 501.666006 80.166163 
L 502.421626 81.411275 
L 503.177246 86.563464 
L 503.932865 86.434659 
L 504.688485 86.949878 
L 505.444105 87.035747 
L 506.199725 86.391724 
L 506.955344 83.343346 
L 507.710964 67.80091 
L 508.466584 40.022026 
L 509.222204 49.68238 
L 509.977823 66.942212 
L 510.733443 69.647111 
L 511.489063 70.16233 
L 512.244683 67.71504 
L 513.000302 69.046022 
L 513.755922 66.083514 
L 514.511542 61.017195 
L 515.267162 53.718261 
L 516.022781 49.982924 
L 516.778401 66.555797 
L 517.534021 74.412885 
L 518.289641 75.056909 
L 519.04526 77.547133 
L 519.80088 81.024861 
L 521.31212 85.83357 
L 522.067739 86.992813 
L 522.823359 86.949878 
L 523.578979 86.778138 
L 524.334599 85.575961 
L 525.090218 82.613452 
L 525.845838 69.174827 
L 526.601458 41.653552 
L 527.357078 50.068794 
L 528.112697 63.035135 
L 528.868317 69.690046 
L 529.623937 66.512863 
L 530.379557 67.757975 
L 531.135176 67.371561 
L 531.890796 62.906331 
L 532.646416 55.178047 
L 533.402036 50.712817 
L 534.157655 51.013362 
L 534.913275 64.924271 
L 535.668895 72.652554 
L 536.424515 76.259086 
L 537.180134 76.81724 
L 538.691374 81.239535 
L 539.446994 85.404221 
L 540.958233 86.992813 
L 542.469473 86.305854 
L 543.225092 83.257476 
L 543.980712 70.119395 
L 544.736332 41.524747 
L 545.491952 50.455208 
L 546.247571 65.053076 
L 547.003191 69.217762 
L 547.758811 67.5433 
L 548.514431 68.187324 
L 549.27005 65.053076 
L 550.02567 63.292745 
L 551.53691 52.258474 
L 552.292529 51.914995 
L 553.803769 72.867229 
L 554.559389 76.98898 
L 555.315008 75.829737 
L 556.070628 77.890613 
L 556.826248 81.840624 
L 557.581868 86.391724 
L 558.337487 86.906943 
L 559.093107 87.250422 
L 559.848727 86.992813 
L 560.604347 86.348789 
L 561.359966 82.699322 
L 562.115586 68.273194 
L 562.871206 39.764416 
L 563.626826 46.719871 
L 564.382445 63.850898 
L 565.138065 66.341123 
L 565.893685 67.88678 
L 566.649305 68.187324 
L 567.404924 67.45743 
L 568.916164 60.115562 
L 569.671784 47.964983 
L 570.427403 46.118782 
L 571.183023 63.550354 
L 571.938643 72.609619 
L 572.694263 75.099844 
L 573.449882 76.55963 
L 574.205502 82.956931 
L 574.961122 83.600955 
L 575.716742 86.09118 
L 576.472362 86.906943 
L 577.227981 87.293357 
L 577.983601 86.778138 
L 578.739221 86.09118 
L 579.494841 82.441713 
L 580.25046 67.45743 
L 581.00608 37.016582 
L 581.7617 46.462262 
L 582.51732 63.807964 
L 583.272939 68.874282 
L 584.028559 69.088957 
L 584.784179 65.43949 
L 585.539799 64.580792 
L 586.295418 60.416106 
L 587.051038 54.834568 
L 587.806658 46.548131 
L 588.562278 45.345954 
L 589.317897 63.679159 
L 590.073517 70.205264 
L 590.829137 71.493312 
L 591.584757 74.971039 
L 592.340376 80.037358 
L 593.095996 82.398778 
L 594.607236 85.91944 
L 595.362855 86.262919 
L 596.118475 86.821073 
L 596.874095 86.520529 
L 597.629715 85.017807 
L 598.385334 81.625949 
L 599.140954 76.130281 
L 599.896574 72.0944 
L 600.652194 69.775915 
L 601.407813 66.598732 
L 602.163433 66.169383 
L 602.919053 65.310685 
L 603.674673 66.899277 
L 604.430292 63.636224 
L 605.185912 66.212318 
L 605.941532 64.623727 
L 606.697152 65.568295 
L 607.452771 68.659608 
L 608.208391 70.591679 
L 608.964011 76.044412 
L 609.719631 76.001477 
L 610.47525 77.504198 
L 611.23087 74.885169 
L 611.98649 85.533026 
L 612.74211 87.250422 
L 613.497729 86.778138 
L 614.253349 86.778138 
L 615.008969 86.219984 
L 615.764589 84.287914 
L 616.520208 76.130281 
L 617.275828 62.777526 
L 618.031448 63.121005 
L 618.787068 69.81885 
L 619.542687 66.641667 
L 620.298307 64.537857 
L 621.053927 66.512863 
L 621.809547 69.046022 
L 622.565166 67.71504 
L 623.320786 63.421549 
L 624.076406 62.047632 
L 624.832026 65.010141 
L 625.587645 71.622116 
L 626.343265 75.357453 
L 627.098885 77.203654 
L 627.854505 78.706376 
L 628.610124 80.466707 
L 629.365744 80.337902 
L 630.121364 85.618896 
L 630.876984 86.477594 
L 631.632603 86.821073 
L 633.143843 85.91944 
L 633.899463 82.312908 
L 634.655082 67.242756 
L 635.410702 44.95954 
L 636.166322 50.798687 
L 636.921942 64.022638 
L 637.677561 66.298188 
L 638.433181 64.967206 
L 639.188801 64.194378 
L 640.70004 61.832958 
L 641.45566 58.398165 
L 642.21128 50.111729 
L 642.9669 47.106285 
L 643.722519 63.421549 
L 644.478139 69.775915 
L 645.989379 76.516696 
L 646.744999 80.810186 
L 647.500618 82.871062 
L 648.256238 84.116174 
L 649.011858 86.477594 
L 649.767478 86.864008 
L 650.523097 86.692268 
L 651.278717 87.164552 
L 652.034337 87.164552 
L 652.789957 84.545523 
L 653.545576 83.515085 
L 654.301196 81.797689 
L 655.056816 78.062352 
L 655.812436 73.682992 
L 656.568055 70.634614 
L 657.323675 70.205264 
L 658.079295 70.377004 
L 658.834915 71.149832 
L 659.590534 70.634614 
L 661.101774 74.327015 
L 661.857394 77.375394 
L 662.613013 75.529193 
L 663.368633 77.160719 
L 664.124253 78.191157 
L 665.635492 83.214541 
L 666.391112 86.00531 
L 667.146732 86.992813 
L 667.902352 87.035747 
L 668.657971 86.262919 
L 669.413591 85.962375 
L 670.169211 81.45421 
L 670.924831 68.273194 
L 671.68045 37.317127 
L 672.43607 45.732368 
L 673.19169 62.090567 
L 673.94731 68.187324 
L 674.702929 67.80091 
L 675.458549 65.482425 
L 676.214169 64.709597 
L 676.969789 62.391112 
L 677.725408 56.50903 
L 678.481028 45.904108 
L 679.236648 47.492699 
L 679.992268 61.317739 
L 680.747887 69.90472 
L 681.503507 72.18027 
L 682.259127 76.001477 
L 683.014747 81.926494 
L 684.525986 85.146612 
L 685.281606 86.177049 
L 686.037226 86.692268 
L 686.792845 86.606398 
L 688.304085 83.81563 
L 689.059705 68.530803 
L 689.815324 40.666049 
L 690.570944 49.3389 
L 691.326564 63.33568 
L 692.082184 65.396555 
L 692.837803 63.979703 
L 693.593423 63.292745 
L 694.349043 63.206875 
L 695.104663 59.213929 
L 695.104663 59.213929 
" clip-path="url(#pc8f6abf7c0)" style="fill: none; stroke: #1e90ff; stroke-width: 1.5; stroke-linecap: round"/>
   </g>
   <g id="line2d_14">
    <path d="M 695.860282 51.36835 
L 696.615902 46.334449 
L 697.371522 45.203028 
L 698.882761 69.492451 
L 699.638381 74.003233 
L 701.149621 79.231002 
L 701.90524 83.902902 
L 702.66086 85.477329 
L 703.41648 85.948711 
L 704.1721 85.803625 
L 704.927719 87.219091 
L 705.683339 87.575632 
L 706.438959 83.076149 
L 707.194579 64.817684 
L 707.950198 34.918125 
L 708.705818 43.40772 
L 709.461438 60.736173 
L 710.217058 64.117741 
L 710.972677 64.566076 
L 711.728297 62.616761 
L 713.995156 52.227293 
L 714.750776 44.058366 
L 715.506396 43.014133 
L 716.262016 57.695821 
L 717.017636 69.790847 
L 717.773255 72.743807 
L 718.528875 74.949897 
L 719.284495 77.826445 
L 720.040115 84.613759 
L 720.795734 86.033935 
L 721.551354 89.558991 
L 722.306974 91.666513 
L 723.062594 92.508994 
L 723.818213 91.896762 
L 724.573833 84.64274 
L 725.329453 67.435317 
L 726.085073 36.703111 
L 726.840692 44.017707 
L 727.596312 61.983843 
L 728.351932 68.842105 
L 729.107552 69.082289 
L 729.863171 66.458117 
L 730.618791 62.995436 
L 731.374411 63.642286 
L 732.130031 55.420822 
L 732.88565 48.597497 
L 733.64127 47.106106 
L 734.39689 64.600591 
L 735.15251 72.28834 
L 735.908129 74.649587 
L 736.663749 74.672217 
L 737.419369 79.169112 
L 738.174989 85.734504 
L 738.930608 89.425497 
L 739.686228 92.052027 
L 740.441848 97.267898 
L 741.197468 98.958172 
L 741.953087 99.567579 
L 742.708707 94.210115 
L 743.464327 73.38675 
L 744.219947 42.184739 
L 744.975566 50.423044 
L 745.731186 70.819735 
L 746.486806 75.323559 
L 747.242426 77.379439 
L 747.998045 74.70986 
L 748.753665 74.380065 
L 749.509285 75.257597 
L 750.264905 71.161961 
L 751.020524 69.143122 
L 751.776144 68.613414 
L 752.531764 81.84645 
L 753.287384 90.10073 
L 754.043003 93.272757 
L 754.798623 92.305377 
L 755.554243 96.387008 
L 756.309863 103.98843 
L 757.821102 114.10292 
L 758.576722 118.431469 
L 760.087961 123.663135 
L 760.843581 116.206431 
L 761.599201 96.037435 
L 762.354821 64.998989 
L 763.11044 72.920098 
L 763.86606 91.112394 
L 764.62168 97.159004 
L 765.3773 99.807664 
L 766.132919 95.768738 
L 766.888539 94.327542 
L 767.644159 97.343407 
L 769.155398 90.361683 
L 769.911018 88.484206 
L 770.666638 101.618774 
L 771.422258 110.696513 
L 772.177877 113.09767 
L 772.933497 111.748534 
L 773.689117 117.164872 
L 774.444737 124.891046 
L 775.200356 129.069922 
L 775.955976 136.787882 
L 776.711596 142.592948 
L 777.467216 144.471223 
L 778.222835 145.416108 
L 778.978455 138.194679 
L 779.734075 120.917256 
L 780.489695 88.340528 
L 781.245314 96.926382 
L 782.000934 114.508641 
L 782.756554 123.051793 
L 783.512174 122.335391 
L 784.267793 120.642286 
L 785.023413 121.618314 
L 785.779033 126.000984 
L 786.534653 121.708745 
L 787.290272 118.644218 
L 788.045892 117.67129 
L 788.801512 130.735007 
L 789.557132 137.516951 
L 790.312752 141.768126 
L 791.068371 142.375039 
L 791.823991 143.406138 
L 794.09085 174.372719 
L 794.84647 180.946656 
L 795.60209 181.030376 
L 796.35771 184.845722 
L 797.113329 175.901498 
L 797.868949 154.892402 
L 798.624569 124.428363 
L 799.380189 134.906147 
L 800.135808 152.077767 
L 801.647048 161.309855 
L 802.402668 161.442977 
L 803.158287 166.471835 
L 803.913907 172.305039 
L 804.669527 164.980344 
L 805.425147 160.412334 
L 806.180766 160.533232 
L 806.936386 172.084046 
L 807.692006 180.412373 
L 808.447626 178.910867 
L 809.203245 179.126502 
L 809.958865 183.424812 
L 811.470105 204.638697 
L 812.981344 214.62769 
L 813.736964 215.799616 
L 814.492584 224.52861 
L 815.248203 218.234073 
L 816.003823 194.151687 
L 816.759443 162.405328 
L 817.515063 177.598083 
L 818.270682 200.570686 
L 819.026302 204.93981 
L 819.781922 204.910375 
L 820.537542 207.212091 
L 822.048781 223.747167 
L 822.804401 217.280015 
L 823.560021 203.439101 
L 824.31564 203.833399 
L 825.82688 237.968907 
L 826.5825 244.330863 
L 827.338119 238.879283 
L 828.093739 238.166919 
L 828.849359 247.096917 
L 829.604979 260.750745 
L 830.360598 267.88703 
L 831.116218 264.589008 
L 831.871838 267.108119 
L 832.627458 279.403374 
L 833.383077 277.934194 
L 834.138697 254.304479 
L 834.894317 213.142486 
L 835.649937 226.345924 
L 836.405556 248.994926 
L 837.161176 259.070082 
L 837.916796 261.125167 
L 838.672416 255.270095 
L 839.428035 261.75639 
L 840.183655 270.434757 
L 840.939275 269.270286 
L 841.694895 256.951756 
L 842.450514 252.859358 
L 843.206134 269.251606 
L 843.961754 281.662279 
L 844.717374 285.881898 
L 845.472993 278.110369 
L 846.228613 274.76923 
L 846.984233 286.918125 
L 846.984233 286.918125 
" clip-path="url(#pc8f6abf7c0)" style="fill: none; stroke: #fb8500; stroke-width: 1.5; stroke-linecap: round"/>
   </g>
   <g id="line2d_15">
    <path d="M 695.860282 54.14761 
L 696.615902 50.498143 
L 697.371522 51.056297 
L 698.127142 63.893833 
L 698.882761 71.450377 
L 699.638381 75.099844 
L 700.394001 75.357453 
L 701.149621 78.191157 
L 701.90524 78.620506 
L 702.66086 85.962375 
L 703.41648 86.649333 
L 704.1721 87.121617 
L 705.683339 86.305854 
L 706.438959 83.171606 
L 707.194579 67.972649 
L 707.950198 37.918215 
L 708.705818 48.394332 
L 709.461438 67.757975 
L 710.217058 70.033525 
L 710.972677 68.917217 
L 711.728297 68.659608 
L 712.483917 67.414496 
L 713.239537 64.580792 
L 713.995156 60.630781 
L 714.750776 53.932935 
L 715.506396 51.228036 
L 716.262016 68.745478 
L 717.017636 73.682992 
L 717.773255 74.885169 
L 718.528875 78.491701 
L 719.284495 82.785192 
L 720.040115 82.956931 
L 720.795734 84.330848 
L 721.551354 86.391724 
L 722.306974 86.219984 
L 723.062594 86.949878 
L 724.573833 85.7477 
L 725.329453 82.956931 
L 726.840692 74.885169 
L 727.596312 74.241146 
L 728.351932 71.021028 
L 729.107552 68.573738 
L 729.863171 67.113951 
L 730.618791 67.45743 
L 731.374411 65.18188 
L 732.130031 69.647111 
L 732.88565 67.328626 
L 733.64127 66.555797 
L 734.39689 65.482425 
L 735.15251 75.056909 
L 735.908129 78.277027 
L 736.663749 77.332459 
L 737.419369 79.822683 
L 738.174989 81.325405 
L 738.930608 84.030304 
L 739.686228 85.575961 
L 740.441848 85.618896 
L 741.197468 86.262919 
L 741.953087 86.262919 
L 742.708707 85.91944 
L 743.464327 82.699322 
L 744.219947 78.362897 
L 744.975566 74.885169 
L 745.731186 75.443323 
L 746.486806 69.90472 
L 747.242426 67.972649 
L 747.998045 64.065573 
L 748.753665 67.5433 
L 749.509285 65.997644 
L 750.264905 63.16394 
L 751.020524 65.568295 
L 751.776144 63.07807 
L 752.531764 65.43949 
L 753.287384 74.069406 
L 754.043003 76.688435 
L 754.798623 74.928104 
L 755.554243 78.448766 
L 756.309863 79.951488 
L 757.065482 85.962375 
L 757.821102 86.992813 
L 758.576722 87.336292 
L 759.332342 86.821073 
L 760.087961 86.048245 
L 760.843581 82.398778 
L 761.599201 68.316129 
L 762.354821 39.335067 
L 763.11044 48.351397 
L 763.86606 63.679159 
L 764.62168 68.015584 
L 765.3773 68.015584 
L 766.132919 65.997644 
L 766.888539 67.88678 
L 767.644159 62.9922 
L 768.399779 60.029692 
L 769.155398 49.381835 
L 769.911018 47.621504 
L 770.666638 63.979703 
L 771.422258 72.695489 
L 772.177877 73.682992 
L 772.933497 76.216151 
L 773.689117 81.239535 
L 775.200356 85.533026 
L 775.955976 86.692268 
L 776.711596 86.949878 
L 777.467216 86.821073 
L 778.222835 85.876505 
L 778.978455 82.227038 
L 779.734075 67.414496 
L 780.489695 38.13289 
L 781.245314 44.744865 
L 782.000934 66.384058 
L 782.756554 66.770472 
L 783.512174 65.224815 
L 784.267793 64.409052 
L 785.023413 66.641667 
L 785.779033 62.691656 
L 788.045892 45.474759 
L 788.801512 63.722094 
L 789.557132 70.377004 
L 790.312752 72.867229 
L 791.068371 74.026471 
L 791.823991 79.565074 
L 792.579611 83.686825 
L 793.335231 82.398778 
L 794.09085 85.447156 
L 794.84647 86.477594 
L 796.35771 87.250422 
L 797.113329 86.735203 
L 799.380189 79.736814 
L 800.891428 72.695489 
L 801.647048 71.965596 
L 802.402668 69.90472 
L 803.158287 69.647111 
L 803.913907 70.033525 
L 804.669527 68.874282 
L 805.425147 69.99059 
L 806.936386 75.314518 
L 807.692006 77.117784 
L 808.447626 80.123228 
L 809.203245 82.141168 
L 809.958865 83.515085 
L 812.225724 85.704765 
L 812.981344 86.262919 
L 813.736964 87.121617 
L 814.492584 86.864008 
L 815.248203 86.262919 
L 816.003823 84.244979 
L 816.759443 81.797689 
L 817.515063 81.54008 
L 818.270682 79.650944 
L 819.026302 75.271583 
L 819.781922 72.652554 
L 820.537542 73.682992 
L 821.293161 73.897666 
L 822.048781 73.081903 
L 822.804401 75.185714 
L 823.560021 75.486258 
L 824.31564 78.448766 
L 825.07126 78.92105 
L 826.5825 77.504198 
L 827.338119 81.325405 
L 828.093739 81.411275 
L 828.849359 81.883559 
L 829.604979 86.305854 
L 830.360598 86.305854 
L 831.116218 86.735203 
L 831.871838 86.906943 
L 832.627458 86.048245 
L 833.383077 82.656387 
L 834.138697 69.088957 
L 834.894317 49.768249 
L 835.649937 52.258474 
L 836.405556 64.151443 
L 837.161176 65.868839 
L 837.916796 65.868839 
L 838.672416 63.893833 
L 839.428035 69.088957 
L 840.183655 62.648721 
L 840.939275 59.557408 
L 841.694895 59.686213 
L 842.450514 59.385668 
L 843.206134 68.487868 
L 843.961754 75.657997 
L 844.717374 75.958542 
L 846.228613 79.951488 
L 846.984233 80.896056 
L 846.984233 80.896056 
" clip-path="url(#pc8f6abf7c0)" style="fill: none; stroke: #023047; stroke-width: 1.5; stroke-linecap: round"/>
   </g>
   <g id="patch_3">
    <path d="M 48.029688 299.518125 
L 48.029688 22.318125 
" style="fill: none; stroke: #ffffff; stroke-width: 0.8; stroke-linejoin: miter; stroke-linecap: square"/>
   </g>
   <g id="patch_4">
    <path d="M 885.029688 299.518125 
L 885.029688 22.318125 
" style="fill: none; stroke: #ffffff; stroke-width: 0.8; stroke-linejoin: miter; stroke-linecap: square"/>
   </g>
   <g id="patch_5">
    <path d="M 48.029688 299.518125 
L 885.029688 299.518125 
" style="fill: none; stroke: #ffffff; stroke-width: 0.8; stroke-linejoin: miter; stroke-linecap: square"/>
   </g>
   <g id="patch_6">
    <path d="M 48.029688 22.318125 
L 885.029688 22.318125 
" style="fill: none; stroke: #ffffff; stroke-width: 0.8; stroke-linejoin: miter; stroke-linecap: square"/>
   </g>
   <g id="text_13">
    <!-- mean_absolute_error on the test set : 1483.46 -->
    <g style="fill: #262626" transform="translate(309.77125 16.318125) scale(0.12 -0.12)">
     <defs>
      <path id="DejaVuSans-Bold-6d" d="M 3781 2919 
Q 3994 3244 4286 3414 
Q 4578 3584 4928 3584 
Q 5531 3584 5847 3212 
Q 6163 2841 6163 2131 
L 6163 0 
L 5038 0 
L 5038 1825 
Q 5041 1866 5042 1909 
Q 5044 1953 5044 2034 
Q 5044 2406 4934 2573 
Q 4825 2741 4581 2741 
Q 4263 2741 4089 2478 
Q 3916 2216 3909 1719 
L 3909 0 
L 2784 0 
L 2784 1825 
Q 2784 2406 2684 2573 
Q 2584 2741 2328 2741 
Q 2006 2741 1831 2477 
Q 1656 2213 1656 1722 
L 1656 0 
L 531 0 
L 531 3500 
L 1656 3500 
L 1656 2988 
Q 1863 3284 2130 3434 
Q 2397 3584 2719 3584 
Q 3081 3584 3359 3409 
Q 3638 3234 3781 2919 
z
" transform="scale(0.015625)"/>
      <path id="DejaVuSans-Bold-65" d="M 4031 1759 
L 4031 1441 
L 1416 1441 
Q 1456 1047 1700 850 
Q 1944 653 2381 653 
Q 2734 653 3104 758 
Q 3475 863 3866 1075 
L 3866 213 
Q 3469 63 3072 -14 
Q 2675 -91 2278 -91 
Q 1328 -91 801 392 
Q 275 875 275 1747 
Q 275 2603 792 3093 
Q 1309 3584 2216 3584 
Q 3041 3584 3536 3087 
Q 4031 2591 4031 1759 
z
M 2881 2131 
Q 2881 2450 2695 2645 
Q 2509 2841 2209 2841 
Q 1884 2841 1681 2658 
Q 1478 2475 1428 2131 
L 2881 2131 
z
" transform="scale(0.015625)"/>
      <path id="DejaVuSans-Bold-61" d="M 2106 1575 
Q 1756 1575 1579 1456 
Q 1403 1338 1403 1106 
Q 1403 894 1545 773 
Q 1688 653 1941 653 
Q 2256 653 2472 879 
Q 2688 1106 2688 1447 
L 2688 1575 
L 2106 1575 
z
M 3816 1997 
L 3816 0 
L 2688 0 
L 2688 519 
Q 2463 200 2181 54 
Q 1900 -91 1497 -91 
Q 953 -91 614 226 
Q 275 544 275 1050 
Q 275 1666 698 1953 
Q 1122 2241 2028 2241 
L 2688 2241 
L 2688 2328 
Q 2688 2594 2478 2717 
Q 2269 2841 1825 2841 
Q 1466 2841 1156 2769 
Q 847 2697 581 2553 
L 581 3406 
Q 941 3494 1303 3539 
Q 1666 3584 2028 3584 
Q 2975 3584 3395 3211 
Q 3816 2838 3816 1997 
z
" transform="scale(0.015625)"/>
      <path id="DejaVuSans-Bold-6e" d="M 4056 2131 
L 4056 0 
L 2931 0 
L 2931 347 
L 2931 1631 
Q 2931 2084 2911 2256 
Q 2891 2428 2841 2509 
Q 2775 2619 2662 2680 
Q 2550 2741 2406 2741 
Q 2056 2741 1856 2470 
Q 1656 2200 1656 1722 
L 1656 0 
L 538 0 
L 538 3500 
L 1656 3500 
L 1656 2988 
Q 1909 3294 2193 3439 
Q 2478 3584 2822 3584 
Q 3428 3584 3742 3212 
Q 4056 2841 4056 2131 
z
" transform="scale(0.015625)"/>
      <path id="DejaVuSans-Bold-5f" d="M 3200 -916 
L 3200 -1509 
L 0 -1509 
L 0 -916 
L 3200 -916 
z
" transform="scale(0.015625)"/>
      <path id="DejaVuSans-Bold-62" d="M 2400 722 
Q 2759 722 2948 984 
Q 3138 1247 3138 1747 
Q 3138 2247 2948 2509 
Q 2759 2772 2400 2772 
Q 2041 2772 1848 2508 
Q 1656 2244 1656 1747 
Q 1656 1250 1848 986 
Q 2041 722 2400 722 
z
M 1656 2988 
Q 1888 3294 2169 3439 
Q 2450 3584 2816 3584 
Q 3463 3584 3878 3070 
Q 4294 2556 4294 1747 
Q 4294 938 3878 423 
Q 3463 -91 2816 -91 
Q 2450 -91 2169 54 
Q 1888 200 1656 506 
L 1656 0 
L 538 0 
L 538 4863 
L 1656 4863 
L 1656 2988 
z
" transform="scale(0.015625)"/>
      <path id="DejaVuSans-Bold-73" d="M 3272 3391 
L 3272 2541 
Q 2913 2691 2578 2766 
Q 2244 2841 1947 2841 
Q 1628 2841 1473 2761 
Q 1319 2681 1319 2516 
Q 1319 2381 1436 2309 
Q 1553 2238 1856 2203 
L 2053 2175 
Q 2913 2066 3209 1816 
Q 3506 1566 3506 1031 
Q 3506 472 3093 190 
Q 2681 -91 1863 -91 
Q 1516 -91 1145 -36 
Q 775 19 384 128 
L 384 978 
Q 719 816 1070 734 
Q 1422 653 1784 653 
Q 2113 653 2278 743 
Q 2444 834 2444 1013 
Q 2444 1163 2330 1236 
Q 2216 1309 1875 1350 
L 1678 1375 
Q 931 1469 631 1722 
Q 331 1975 331 2491 
Q 331 3047 712 3315 
Q 1094 3584 1881 3584 
Q 2191 3584 2531 3537 
Q 2872 3491 3272 3391 
z
" transform="scale(0.015625)"/>
      <path id="DejaVuSans-Bold-6f" d="M 2203 2784 
Q 1831 2784 1636 2517 
Q 1441 2250 1441 1747 
Q 1441 1244 1636 976 
Q 1831 709 2203 709 
Q 2569 709 2762 976 
Q 2956 1244 2956 1747 
Q 2956 2250 2762 2517 
Q 2569 2784 2203 2784 
z
M 2203 3584 
Q 3106 3584 3614 3096 
Q 4122 2609 4122 1747 
Q 4122 884 3614 396 
Q 3106 -91 2203 -91 
Q 1297 -91 786 396 
Q 275 884 275 1747 
Q 275 2609 786 3096 
Q 1297 3584 2203 3584 
z
" transform="scale(0.015625)"/>
      <path id="DejaVuSans-Bold-6c" d="M 538 4863 
L 1656 4863 
L 1656 0 
L 538 0 
L 538 4863 
z
" transform="scale(0.015625)"/>
      <path id="DejaVuSans-Bold-75" d="M 500 1363 
L 500 3500 
L 1625 3500 
L 1625 3150 
Q 1625 2866 1622 2436 
Q 1619 2006 1619 1863 
Q 1619 1441 1641 1255 
Q 1663 1069 1716 984 
Q 1784 875 1895 815 
Q 2006 756 2150 756 
Q 2500 756 2700 1025 
Q 2900 1294 2900 1772 
L 2900 3500 
L 4019 3500 
L 4019 0 
L 2900 0 
L 2900 506 
Q 2647 200 2364 54 
Q 2081 -91 1741 -91 
Q 1134 -91 817 281 
Q 500 653 500 1363 
z
" transform="scale(0.015625)"/>
      <path id="DejaVuSans-Bold-74" d="M 1759 4494 
L 1759 3500 
L 2913 3500 
L 2913 2700 
L 1759 2700 
L 1759 1216 
Q 1759 972 1856 886 
Q 1953 800 2241 800 
L 2816 800 
L 2816 0 
L 1856 0 
Q 1194 0 917 276 
Q 641 553 641 1216 
L 641 2700 
L 84 2700 
L 84 3500 
L 641 3500 
L 641 4494 
L 1759 4494 
z
" transform="scale(0.015625)"/>
      <path id="DejaVuSans-Bold-72" d="M 3138 2547 
Q 2991 2616 2845 2648 
Q 2700 2681 2553 2681 
Q 2122 2681 1889 2404 
Q 1656 2128 1656 1613 
L 1656 0 
L 538 0 
L 538 3500 
L 1656 3500 
L 1656 2925 
Q 1872 3269 2151 3426 
Q 2431 3584 2822 3584 
Q 2878 3584 2943 3579 
Q 3009 3575 3134 3559 
L 3138 2547 
z
" transform="scale(0.015625)"/>
      <path id="DejaVuSans-Bold-20" transform="scale(0.015625)"/>
      <path id="DejaVuSans-Bold-68" d="M 4056 2131 
L 4056 0 
L 2931 0 
L 2931 347 
L 2931 1625 
Q 2931 2084 2911 2256 
Q 2891 2428 2841 2509 
Q 2775 2619 2662 2680 
Q 2550 2741 2406 2741 
Q 2056 2741 1856 2470 
Q 1656 2200 1656 1722 
L 1656 0 
L 538 0 
L 538 4863 
L 1656 4863 
L 1656 2988 
Q 1909 3294 2193 3439 
Q 2478 3584 2822 3584 
Q 3428 3584 3742 3212 
Q 4056 2841 4056 2131 
z
" transform="scale(0.015625)"/>
      <path id="DejaVuSans-Bold-3a" d="M 716 3500 
L 1844 3500 
L 1844 2291 
L 716 2291 
L 716 3500 
z
M 716 1209 
L 1844 1209 
L 1844 0 
L 716 0 
L 716 1209 
z
" transform="scale(0.015625)"/>
      <path id="DejaVuSans-Bold-31" d="M 750 831 
L 1813 831 
L 1813 3847 
L 722 3622 
L 722 4441 
L 1806 4666 
L 2950 4666 
L 2950 831 
L 4013 831 
L 4013 0 
L 750 0 
L 750 831 
z
" transform="scale(0.015625)"/>
      <path id="DejaVuSans-Bold-34" d="M 2356 3675 
L 1038 1722 
L 2356 1722 
L 2356 3675 
z
M 2156 4666 
L 3494 4666 
L 3494 1722 
L 4159 1722 
L 4159 850 
L 3494 850 
L 3494 0 
L 2356 0 
L 2356 850 
L 288 850 
L 288 1881 
L 2156 4666 
z
" transform="scale(0.015625)"/>
      <path id="DejaVuSans-Bold-38" d="M 2228 2088 
Q 1891 2088 1709 1903 
Q 1528 1719 1528 1375 
Q 1528 1031 1709 848 
Q 1891 666 2228 666 
Q 2563 666 2741 848 
Q 2919 1031 2919 1375 
Q 2919 1722 2741 1905 
Q 2563 2088 2228 2088 
z
M 1350 2484 
Q 925 2613 709 2878 
Q 494 3144 494 3541 
Q 494 4131 934 4440 
Q 1375 4750 2228 4750 
Q 3075 4750 3515 4442 
Q 3956 4134 3956 3541 
Q 3956 3144 3739 2878 
Q 3522 2613 3097 2484 
Q 3572 2353 3814 2058 
Q 4056 1763 4056 1313 
Q 4056 619 3595 264 
Q 3134 -91 2228 -91 
Q 1319 -91 855 264 
Q 391 619 391 1313 
Q 391 1763 633 2058 
Q 875 2353 1350 2484 
z
M 1631 3419 
Q 1631 3141 1786 2991 
Q 1941 2841 2228 2841 
Q 2509 2841 2662 2991 
Q 2816 3141 2816 3419 
Q 2816 3697 2662 3845 
Q 2509 3994 2228 3994 
Q 1941 3994 1786 3844 
Q 1631 3694 1631 3419 
z
" transform="scale(0.015625)"/>
      <path id="DejaVuSans-Bold-33" d="M 2981 2516 
Q 3453 2394 3698 2092 
Q 3944 1791 3944 1325 
Q 3944 631 3412 270 
Q 2881 -91 1863 -91 
Q 1503 -91 1142 -33 
Q 781 25 428 141 
L 428 1069 
Q 766 900 1098 814 
Q 1431 728 1753 728 
Q 2231 728 2486 893 
Q 2741 1059 2741 1369 
Q 2741 1688 2480 1852 
Q 2219 2016 1709 2016 
L 1228 2016 
L 1228 2791 
L 1734 2791 
Q 2188 2791 2409 2933 
Q 2631 3075 2631 3366 
Q 2631 3634 2415 3781 
Q 2200 3928 1806 3928 
Q 1516 3928 1219 3862 
Q 922 3797 628 3669 
L 628 4550 
Q 984 4650 1334 4700 
Q 1684 4750 2022 4750 
Q 2931 4750 3382 4451 
Q 3834 4153 3834 3553 
Q 3834 3144 3618 2883 
Q 3403 2622 2981 2516 
z
" transform="scale(0.015625)"/>
      <path id="DejaVuSans-Bold-2e" d="M 653 1209 
L 1778 1209 
L 1778 0 
L 653 0 
L 653 1209 
z
" transform="scale(0.015625)"/>
      <path id="DejaVuSans-Bold-36" d="M 2316 2303 
Q 2000 2303 1842 2098 
Q 1684 1894 1684 1484 
Q 1684 1075 1842 870 
Q 2000 666 2316 666 
Q 2634 666 2792 870 
Q 2950 1075 2950 1484 
Q 2950 1894 2792 2098 
Q 2634 2303 2316 2303 
z
M 3803 4544 
L 3803 3681 
Q 3506 3822 3243 3889 
Q 2981 3956 2731 3956 
Q 2194 3956 1894 3657 
Q 1594 3359 1544 2772 
Q 1750 2925 1990 3001 
Q 2231 3078 2516 3078 
Q 3231 3078 3670 2659 
Q 4109 2241 4109 1563 
Q 4109 813 3618 361 
Q 3128 -91 2303 -91 
Q 1394 -91 895 523 
Q 397 1138 397 2266 
Q 397 3422 980 4083 
Q 1563 4744 2578 4744 
Q 2900 4744 3203 4694 
Q 3506 4644 3803 4544 
z
" transform="scale(0.015625)"/>
     </defs>
     <use xlink:href="#DejaVuSans-Bold-6d"/>
     <use xlink:href="#DejaVuSans-Bold-65" x="104.199219"/>
     <use xlink:href="#DejaVuSans-Bold-61" x="172.021484"/>
     <use xlink:href="#DejaVuSans-Bold-6e" x="239.501953"/>
     <use xlink:href="#DejaVuSans-Bold-5f" x="310.693359"/>
     <use xlink:href="#DejaVuSans-Bold-61" x="360.693359"/>
     <use xlink:href="#DejaVuSans-Bold-62" x="428.173828"/>
     <use xlink:href="#DejaVuSans-Bold-73" x="499.755859"/>
     <use xlink:href="#DejaVuSans-Bold-6f" x="559.277344"/>
     <use xlink:href="#DejaVuSans-Bold-6c" x="627.978516"/>
     <use xlink:href="#DejaVuSans-Bold-75" x="662.255859"/>
     <use xlink:href="#DejaVuSans-Bold-74" x="733.447266"/>
     <use xlink:href="#DejaVuSans-Bold-65" x="781.25"/>
     <use xlink:href="#DejaVuSans-Bold-5f" x="849.072266"/>
     <use xlink:href="#DejaVuSans-Bold-65" x="899.072266"/>
     <use xlink:href="#DejaVuSans-Bold-72" x="966.894531"/>
     <use xlink:href="#DejaVuSans-Bold-72" x="1016.210938"/>
     <use xlink:href="#DejaVuSans-Bold-6f" x="1065.527344"/>
     <use xlink:href="#DejaVuSans-Bold-72" x="1134.228516"/>
     <use xlink:href="#DejaVuSans-Bold-20" x="1183.544922"/>
     <use xlink:href="#DejaVuSans-Bold-6f" x="1218.359375"/>
     <use xlink:href="#DejaVuSans-Bold-6e" x="1287.060547"/>
     <use xlink:href="#DejaVuSans-Bold-20" x="1358.251953"/>
     <use xlink:href="#DejaVuSans-Bold-74" x="1393.066406"/>
     <use xlink:href="#DejaVuSans-Bold-68" x="1440.869141"/>
     <use xlink:href="#DejaVuSans-Bold-65" x="1512.060547"/>
     <use xlink:href="#DejaVuSans-Bold-20" x="1579.882812"/>
     <use xlink:href="#DejaVuSans-Bold-74" x="1614.697266"/>
     <use xlink:href="#DejaVuSans-Bold-65" x="1662.5"/>
     <use xlink:href="#DejaVuSans-Bold-73" x="1730.322266"/>
     <use xlink:href="#DejaVuSans-Bold-74" x="1789.84375"/>
     <use xlink:href="#DejaVuSans-Bold-20" x="1837.646484"/>
     <use xlink:href="#DejaVuSans-Bold-73" x="1872.460938"/>
     <use xlink:href="#DejaVuSans-Bold-65" x="1931.982422"/>
     <use xlink:href="#DejaVuSans-Bold-74" x="1999.804688"/>
     <use xlink:href="#DejaVuSans-Bold-20" x="2047.607422"/>
     <use xlink:href="#DejaVuSans-Bold-3a" x="2082.421875"/>
     <use xlink:href="#DejaVuSans-Bold-20" x="2122.412109"/>
     <use xlink:href="#DejaVuSans-Bold-31" x="2157.226562"/>
     <use xlink:href="#DejaVuSans-Bold-34" x="2226.806641"/>
     <use xlink:href="#DejaVuSans-Bold-38" x="2296.386719"/>
     <use xlink:href="#DejaVuSans-Bold-33" x="2365.966797"/>
     <use xlink:href="#DejaVuSans-Bold-2e" x="2435.546875"/>
     <use xlink:href="#DejaVuSans-Bold-34" x="2473.535156"/>
     <use xlink:href="#DejaVuSans-Bold-36" x="2543.115234"/>
    </g>
   </g>
   <g id="legend_1">
    <g id="patch_7">
     <path d="M 55.029688 294.518125 
L 121.223438 294.518125 
Q 123.223438 294.518125 123.223438 292.518125 
L 123.223438 248.649375 
Q 123.223438 246.649375 121.223438 246.649375 
L 55.029688 246.649375 
Q 53.029688 246.649375 53.029688 248.649375 
L 53.029688 292.518125 
Q 53.029688 294.518125 55.029688 294.518125 
z
" style="fill: #eaeaf2; opacity: 0.8; stroke: #cccccc; stroke-linejoin: miter"/>
    </g>
    <g id="line2d_16">
     <path d="M 57.029688 254.747813 
L 67.029688 254.747813 
L 77.029688 254.747813 
" style="fill: none; stroke: #1e90ff; stroke-width: 1.5; stroke-linecap: round"/>
    </g>
    <g id="text_14">
     <!-- y_train -->
     <g style="fill: #262626" transform="translate(85.029688 258.247813) scale(0.1 -0.1)">
      <defs>
       <path id="DejaVuSans-79" d="M 2059 -325 
Q 1816 -950 1584 -1140 
Q 1353 -1331 966 -1331 
L 506 -1331 
L 506 -850 
L 844 -850 
Q 1081 -850 1212 -737 
Q 1344 -625 1503 -206 
L 1606 56 
L 191 3500 
L 800 3500 
L 1894 763 
L 2988 3500 
L 3597 3500 
L 2059 -325 
z
" transform="scale(0.015625)"/>
       <path id="DejaVuSans-5f" d="M 3263 -1063 
L 3263 -1509 
L -63 -1509 
L -63 -1063 
L 3263 -1063 
z
" transform="scale(0.015625)"/>
       <path id="DejaVuSans-74" d="M 1172 4494 
L 1172 3500 
L 2356 3500 
L 2356 3053 
L 1172 3053 
L 1172 1153 
Q 1172 725 1289 603 
Q 1406 481 1766 481 
L 2356 481 
L 2356 0 
L 1766 0 
Q 1100 0 847 248 
Q 594 497 594 1153 
L 594 3053 
L 172 3053 
L 172 3500 
L 594 3500 
L 594 4494 
L 1172 4494 
z
" transform="scale(0.015625)"/>
       <path id="DejaVuSans-72" d="M 2631 2963 
Q 2534 3019 2420 3045 
Q 2306 3072 2169 3072 
Q 1681 3072 1420 2755 
Q 1159 2438 1159 1844 
L 1159 0 
L 581 0 
L 581 3500 
L 1159 3500 
L 1159 2956 
Q 1341 3275 1631 3429 
Q 1922 3584 2338 3584 
Q 2397 3584 2469 3576 
Q 2541 3569 2628 3553 
L 2631 2963 
z
" transform="scale(0.015625)"/>
       <path id="DejaVuSans-61" d="M 2194 1759 
Q 1497 1759 1228 1600 
Q 959 1441 959 1056 
Q 959 750 1161 570 
Q 1363 391 1709 391 
Q 2188 391 2477 730 
Q 2766 1069 2766 1631 
L 2766 1759 
L 2194 1759 
z
M 3341 1997 
L 3341 0 
L 2766 0 
L 2766 531 
Q 2569 213 2275 61 
Q 1981 -91 1556 -91 
Q 1019 -91 701 211 
Q 384 513 384 1019 
Q 384 1609 779 1909 
Q 1175 2209 1959 2209 
L 2766 2209 
L 2766 2266 
Q 2766 2663 2505 2880 
Q 2244 3097 1772 3097 
Q 1472 3097 1187 3025 
Q 903 2953 641 2809 
L 641 3341 
Q 956 3463 1253 3523 
Q 1550 3584 1831 3584 
Q 2591 3584 2966 3190 
Q 3341 2797 3341 1997 
z
" transform="scale(0.015625)"/>
       <path id="DejaVuSans-69" d="M 603 3500 
L 1178 3500 
L 1178 0 
L 603 0 
L 603 3500 
z
M 603 4863 
L 1178 4863 
L 1178 4134 
L 603 4134 
L 603 4863 
z
" transform="scale(0.015625)"/>
       <path id="DejaVuSans-6e" d="M 3513 2113 
L 3513 0 
L 2938 0 
L 2938 2094 
Q 2938 2591 2744 2837 
Q 2550 3084 2163 3084 
Q 1697 3084 1428 2787 
Q 1159 2491 1159 1978 
L 1159 0 
L 581 0 
L 581 3500 
L 1159 3500 
L 1159 2956 
Q 1366 3272 1645 3428 
Q 1925 3584 2291 3584 
Q 2894 3584 3203 3211 
Q 3513 2838 3513 2113 
z
" transform="scale(0.015625)"/>
      </defs>
      <use xlink:href="#DejaVuSans-79"/>
      <use xlink:href="#DejaVuSans-5f" x="59.179688"/>
      <use xlink:href="#DejaVuSans-74" x="109.179688"/>
      <use xlink:href="#DejaVuSans-72" x="148.388672"/>
      <use xlink:href="#DejaVuSans-61" x="189.501953"/>
      <use xlink:href="#DejaVuSans-69" x="250.78125"/>
      <use xlink:href="#DejaVuSans-6e" x="278.564453"/>
     </g>
    </g>
    <g id="line2d_17">
     <path d="M 57.029688 269.704063 
L 67.029688 269.704063 
L 77.029688 269.704063 
" style="fill: none; stroke: #fb8500; stroke-width: 1.5; stroke-linecap: round"/>
    </g>
    <g id="text_15">
     <!-- y_pred -->
     <g style="fill: #262626" transform="translate(85.029688 273.204063) scale(0.1 -0.1)">
      <defs>
       <path id="DejaVuSans-70" d="M 1159 525 
L 1159 -1331 
L 581 -1331 
L 581 3500 
L 1159 3500 
L 1159 2969 
Q 1341 3281 1617 3432 
Q 1894 3584 2278 3584 
Q 2916 3584 3314 3078 
Q 3713 2572 3713 1747 
Q 3713 922 3314 415 
Q 2916 -91 2278 -91 
Q 1894 -91 1617 61 
Q 1341 213 1159 525 
z
M 3116 1747 
Q 3116 2381 2855 2742 
Q 2594 3103 2138 3103 
Q 1681 3103 1420 2742 
Q 1159 2381 1159 1747 
Q 1159 1113 1420 752 
Q 1681 391 2138 391 
Q 2594 391 2855 752 
Q 3116 1113 3116 1747 
z
" transform="scale(0.015625)"/>
       <path id="DejaVuSans-65" d="M 3597 1894 
L 3597 1613 
L 953 1613 
Q 991 1019 1311 708 
Q 1631 397 2203 397 
Q 2534 397 2845 478 
Q 3156 559 3463 722 
L 3463 178 
Q 3153 47 2828 -22 
Q 2503 -91 2169 -91 
Q 1331 -91 842 396 
Q 353 884 353 1716 
Q 353 2575 817 3079 
Q 1281 3584 2069 3584 
Q 2775 3584 3186 3129 
Q 3597 2675 3597 1894 
z
M 3022 2063 
Q 3016 2534 2758 2815 
Q 2500 3097 2075 3097 
Q 1594 3097 1305 2825 
Q 1016 2553 972 2059 
L 3022 2063 
z
" transform="scale(0.015625)"/>
       <path id="DejaVuSans-64" d="M 2906 2969 
L 2906 4863 
L 3481 4863 
L 3481 0 
L 2906 0 
L 2906 525 
Q 2725 213 2448 61 
Q 2172 -91 1784 -91 
Q 1150 -91 751 415 
Q 353 922 353 1747 
Q 353 2572 751 3078 
Q 1150 3584 1784 3584 
Q 2172 3584 2448 3432 
Q 2725 3281 2906 2969 
z
M 947 1747 
Q 947 1113 1208 752 
Q 1469 391 1925 391 
Q 2381 391 2643 752 
Q 2906 1113 2906 1747 
Q 2906 2381 2643 2742 
Q 2381 3103 1925 3103 
Q 1469 3103 1208 2742 
Q 947 2381 947 1747 
z
" transform="scale(0.015625)"/>
      </defs>
      <use xlink:href="#DejaVuSans-79"/>
      <use xlink:href="#DejaVuSans-5f" x="59.179688"/>
      <use xlink:href="#DejaVuSans-70" x="109.179688"/>
      <use xlink:href="#DejaVuSans-72" x="172.65625"/>
      <use xlink:href="#DejaVuSans-65" x="211.519531"/>
      <use xlink:href="#DejaVuSans-64" x="273.042969"/>
     </g>
    </g>
    <g id="line2d_18">
     <path d="M 57.029688 284.660313 
L 67.029688 284.660313 
L 77.029688 284.660313 
" style="fill: none; stroke: #023047; stroke-width: 1.5; stroke-linecap: round"/>
    </g>
    <g id="text_16">
     <!-- y_test -->
     <g style="fill: #262626" transform="translate(85.029688 288.160313) scale(0.1 -0.1)">
      <defs>
       <path id="DejaVuSans-73" d="M 2834 3397 
L 2834 2853 
Q 2591 2978 2328 3040 
Q 2066 3103 1784 3103 
Q 1356 3103 1142 2972 
Q 928 2841 928 2578 
Q 928 2378 1081 2264 
Q 1234 2150 1697 2047 
L 1894 2003 
Q 2506 1872 2764 1633 
Q 3022 1394 3022 966 
Q 3022 478 2636 193 
Q 2250 -91 1575 -91 
Q 1294 -91 989 -36 
Q 684 19 347 128 
L 347 722 
Q 666 556 975 473 
Q 1284 391 1588 391 
Q 1994 391 2212 530 
Q 2431 669 2431 922 
Q 2431 1156 2273 1281 
Q 2116 1406 1581 1522 
L 1381 1569 
Q 847 1681 609 1914 
Q 372 2147 372 2553 
Q 372 3047 722 3315 
Q 1072 3584 1716 3584 
Q 2034 3584 2315 3537 
Q 2597 3491 2834 3397 
z
" transform="scale(0.015625)"/>
      </defs>
      <use xlink:href="#DejaVuSans-79"/>
      <use xlink:href="#DejaVuSans-5f" x="59.179688"/>
      <use xlink:href="#DejaVuSans-74" x="109.179688"/>
      <use xlink:href="#DejaVuSans-65" x="148.388672"/>
      <use xlink:href="#DejaVuSans-73" x="209.912109"/>
      <use xlink:href="#DejaVuSans-74" x="262.011719"/>
     </g>
    </g>
   </g>
  </g>
 </g>
 <defs>
  <clipPath id="pc8f6abf7c0">
   <rect x="48.029688" y="22.318125" width="837" height="277.2"/>
  </clipPath>
 </defs>
</svg>
