<?xml version="1.0" encoding="utf-8" standalone="no"?>
<!DOCTYPE svg PUBLIC "-//W3C//DTD SVG 1.1//EN"
  "http://www.w3.org/Graphics/SVG/1.1/DTD/svg11.dtd">
<svg xmlns:xlink="http://www.w3.org/1999/xlink" width="883.85pt" height="308.278125pt" viewBox="0 0 883.85 308.278125" xmlns="http://www.w3.org/2000/svg" version="1.1">
 <metadata>
  <rdf:RDF xmlns:dc="http://purl.org/dc/elements/1.1/" xmlns:cc="http://creativecommons.org/ns#" xmlns:rdf="http://www.w3.org/1999/02/22-rdf-syntax-ns#">
   <cc:Work>
    <dc:type rdf:resource="http://purl.org/dc/dcmitype/StillImage"/>
    <dc:date>2024-01-24T15:13:10.826641</dc:date>
    <dc:format>image/svg+xml</dc:format>
    <dc:creator>
     <cc:Agent>
      <dc:title>Matplotlib v3.8.2, https://matplotlib.org/</dc:title>
     </cc:Agent>
    </dc:creator>
   </cc:Work>
  </rdf:RDF>
 </metadata>
 <defs>
  <style type="text/css">*{stroke-linejoin: round; stroke-linecap: butt}</style>
 </defs>
 <g id="figure_1">
  <g id="patch_1">
   <path d="M -0 308.278125 
L 883.85 308.278125 
L 883.85 0 
L -0 0 
z
" style="fill: #ffffff"/>
  </g>
  <g id="axes_1">
   <g id="patch_2">
    <path d="M 39.65 284.4 
L 876.65 284.4 
L 876.65 7.2 
L 39.65 7.2 
z
" style="fill: #eaeaf2"/>
   </g>
   <g id="matplotlib.axis_1">
    <g id="xtick_1">
     <g id="line2d_1">
      <path d="M 76.86386 284.4 
L 76.86386 7.2 
" clip-path="url(#p2b7a392635)" style="fill: none; stroke: #ffffff; stroke-width: 0.8; stroke-linecap: round"/>
     </g>
     <g id="text_1">
      <!-- 0 -->
      <g style="fill: #262626" transform="translate(73.68261 298.998438) scale(0.1 -0.1)">
       <defs>
        <path id="DejaVuSans-30" d="M 2034 4250 
Q 1547 4250 1301 3770 
Q 1056 3291 1056 2328 
Q 1056 1369 1301 889 
Q 1547 409 2034 409 
Q 2525 409 2770 889 
Q 3016 1369 3016 2328 
Q 3016 3291 2770 3770 
Q 2525 4250 2034 4250 
z
M 2034 4750 
Q 2819 4750 3233 4129 
Q 3647 3509 3647 2328 
Q 3647 1150 3233 529 
Q 2819 -91 2034 -91 
Q 1250 -91 836 529 
Q 422 1150 422 2328 
Q 422 3509 836 4129 
Q 1250 4750 2034 4750 
z
" transform="scale(0.015625)"/>
       </defs>
       <use xlink:href="#DejaVuSans-30"/>
      </g>
     </g>
    </g>
    <g id="xtick_2">
     <g id="line2d_2">
      <path d="M 243.182787 284.4 
L 243.182787 7.2 
" clip-path="url(#p2b7a392635)" style="fill: none; stroke: #ffffff; stroke-width: 0.8; stroke-linecap: round"/>
     </g>
     <g id="text_2">
      <!-- 200 -->
      <g style="fill: #262626" transform="translate(233.639037 298.998438) scale(0.1 -0.1)">
       <defs>
        <path id="DejaVuSans-32" d="M 1228 531 
L 3431 531 
L 3431 0 
L 469 0 
L 469 531 
Q 828 903 1448 1529 
Q 2069 2156 2228 2338 
Q 2531 2678 2651 2914 
Q 2772 3150 2772 3378 
Q 2772 3750 2511 3984 
Q 2250 4219 1831 4219 
Q 1534 4219 1204 4116 
Q 875 4013 500 3803 
L 500 4441 
Q 881 4594 1212 4672 
Q 1544 4750 1819 4750 
Q 2544 4750 2975 4387 
Q 3406 4025 3406 3419 
Q 3406 3131 3298 2873 
Q 3191 2616 2906 2266 
Q 2828 2175 2409 1742 
Q 1991 1309 1228 531 
z
" transform="scale(0.015625)"/>
       </defs>
       <use xlink:href="#DejaVuSans-32"/>
       <use xlink:href="#DejaVuSans-30" x="63.623047"/>
       <use xlink:href="#DejaVuSans-30" x="127.246094"/>
      </g>
     </g>
    </g>
    <g id="xtick_3">
     <g id="line2d_3">
      <path d="M 409.501714 284.4 
L 409.501714 7.2 
" clip-path="url(#p2b7a392635)" style="fill: none; stroke: #ffffff; stroke-width: 0.8; stroke-linecap: round"/>
     </g>
     <g id="text_3">
      <!-- 400 -->
      <g style="fill: #262626" transform="translate(399.957964 298.998438) scale(0.1 -0.1)">
       <defs>
        <path id="DejaVuSans-34" d="M 2419 4116 
L 825 1625 
L 2419 1625 
L 2419 4116 
z
M 2253 4666 
L 3047 4666 
L 3047 1625 
L 3713 1625 
L 3713 1100 
L 3047 1100 
L 3047 0 
L 2419 0 
L 2419 1100 
L 313 1100 
L 313 1709 
L 2253 4666 
z
" transform="scale(0.015625)"/>
       </defs>
       <use xlink:href="#DejaVuSans-34"/>
       <use xlink:href="#DejaVuSans-30" x="63.623047"/>
       <use xlink:href="#DejaVuSans-30" x="127.246094"/>
      </g>
     </g>
    </g>
    <g id="xtick_4">
     <g id="line2d_4">
      <path d="M 575.820641 284.4 
L 575.820641 7.2 
" clip-path="url(#p2b7a392635)" style="fill: none; stroke: #ffffff; stroke-width: 0.8; stroke-linecap: round"/>
     </g>
     <g id="text_4">
      <!-- 600 -->
      <g style="fill: #262626" transform="translate(566.276891 298.998438) scale(0.1 -0.1)">
       <defs>
        <path id="DejaVuSans-36" d="M 2113 2584 
Q 1688 2584 1439 2293 
Q 1191 2003 1191 1497 
Q 1191 994 1439 701 
Q 1688 409 2113 409 
Q 2538 409 2786 701 
Q 3034 994 3034 1497 
Q 3034 2003 2786 2293 
Q 2538 2584 2113 2584 
z
M 3366 4563 
L 3366 3988 
Q 3128 4100 2886 4159 
Q 2644 4219 2406 4219 
Q 1781 4219 1451 3797 
Q 1122 3375 1075 2522 
Q 1259 2794 1537 2939 
Q 1816 3084 2150 3084 
Q 2853 3084 3261 2657 
Q 3669 2231 3669 1497 
Q 3669 778 3244 343 
Q 2819 -91 2113 -91 
Q 1303 -91 875 529 
Q 447 1150 447 2328 
Q 447 3434 972 4092 
Q 1497 4750 2381 4750 
Q 2619 4750 2861 4703 
Q 3103 4656 3366 4563 
z
" transform="scale(0.015625)"/>
       </defs>
       <use xlink:href="#DejaVuSans-36"/>
       <use xlink:href="#DejaVuSans-30" x="63.623047"/>
       <use xlink:href="#DejaVuSans-30" x="127.246094"/>
      </g>
     </g>
    </g>
    <g id="xtick_5">
     <g id="line2d_5">
      <path d="M 742.139568 284.4 
L 742.139568 7.2 
" clip-path="url(#p2b7a392635)" style="fill: none; stroke: #ffffff; stroke-width: 0.8; stroke-linecap: round"/>
     </g>
     <g id="text_5">
      <!-- 800 -->
      <g style="fill: #262626" transform="translate(732.595818 298.998438) scale(0.1 -0.1)">
       <defs>
        <path id="DejaVuSans-38" d="M 2034 2216 
Q 1584 2216 1326 1975 
Q 1069 1734 1069 1313 
Q 1069 891 1326 650 
Q 1584 409 2034 409 
Q 2484 409 2743 651 
Q 3003 894 3003 1313 
Q 3003 1734 2745 1975 
Q 2488 2216 2034 2216 
z
M 1403 2484 
Q 997 2584 770 2862 
Q 544 3141 544 3541 
Q 544 4100 942 4425 
Q 1341 4750 2034 4750 
Q 2731 4750 3128 4425 
Q 3525 4100 3525 3541 
Q 3525 3141 3298 2862 
Q 3072 2584 2669 2484 
Q 3125 2378 3379 2068 
Q 3634 1759 3634 1313 
Q 3634 634 3220 271 
Q 2806 -91 2034 -91 
Q 1263 -91 848 271 
Q 434 634 434 1313 
Q 434 1759 690 2068 
Q 947 2378 1403 2484 
z
M 1172 3481 
Q 1172 3119 1398 2916 
Q 1625 2713 2034 2713 
Q 2441 2713 2670 2916 
Q 2900 3119 2900 3481 
Q 2900 3844 2670 4047 
Q 2441 4250 2034 4250 
Q 1625 4250 1398 4047 
Q 1172 3844 1172 3481 
z
" transform="scale(0.015625)"/>
       </defs>
       <use xlink:href="#DejaVuSans-38"/>
       <use xlink:href="#DejaVuSans-30" x="63.623047"/>
       <use xlink:href="#DejaVuSans-30" x="127.246094"/>
      </g>
     </g>
    </g>
   </g>
   <g id="matplotlib.axis_2">
    <g id="ytick_1">
     <g id="line2d_6">
      <path d="M 39.65 259.572093 
L 876.65 259.572093 
" clip-path="url(#p2b7a392635)" style="fill: none; stroke: #ffffff; stroke-width: 0.8; stroke-linecap: round"/>
     </g>
     <g id="text_6">
      <!-- 0 -->
      <g style="fill: #262626" transform="translate(26.2875 263.371312) scale(0.1 -0.1)">
       <use xlink:href="#DejaVuSans-30"/>
      </g>
     </g>
    </g>
    <g id="ytick_2">
     <g id="line2d_7">
      <path d="M 39.65 206.944329 
L 876.65 206.944329 
" clip-path="url(#p2b7a392635)" style="fill: none; stroke: #ffffff; stroke-width: 0.8; stroke-linecap: round"/>
     </g>
     <g id="text_7">
      <!-- 500 -->
      <g style="fill: #262626" transform="translate(13.5625 210.743548) scale(0.1 -0.1)">
       <defs>
        <path id="DejaVuSans-35" d="M 691 4666 
L 3169 4666 
L 3169 4134 
L 1269 4134 
L 1269 2991 
Q 1406 3038 1543 3061 
Q 1681 3084 1819 3084 
Q 2600 3084 3056 2656 
Q 3513 2228 3513 1497 
Q 3513 744 3044 326 
Q 2575 -91 1722 -91 
Q 1428 -91 1123 -41 
Q 819 9 494 109 
L 494 744 
Q 775 591 1075 516 
Q 1375 441 1709 441 
Q 2250 441 2565 725 
Q 2881 1009 2881 1497 
Q 2881 1984 2565 2268 
Q 2250 2553 1709 2553 
Q 1456 2553 1204 2497 
Q 953 2441 691 2322 
L 691 4666 
z
" transform="scale(0.015625)"/>
       </defs>
       <use xlink:href="#DejaVuSans-35"/>
       <use xlink:href="#DejaVuSans-30" x="63.623047"/>
       <use xlink:href="#DejaVuSans-30" x="127.246094"/>
      </g>
     </g>
    </g>
    <g id="ytick_3">
     <g id="line2d_8">
      <path d="M 39.65 154.316565 
L 876.65 154.316565 
" clip-path="url(#p2b7a392635)" style="fill: none; stroke: #ffffff; stroke-width: 0.8; stroke-linecap: round"/>
     </g>
     <g id="text_8">
      <!-- 1000 -->
      <g style="fill: #262626" transform="translate(7.2 158.115784) scale(0.1 -0.1)">
       <defs>
        <path id="DejaVuSans-31" d="M 794 531 
L 1825 531 
L 1825 4091 
L 703 3866 
L 703 4441 
L 1819 4666 
L 2450 4666 
L 2450 531 
L 3481 531 
L 3481 0 
L 794 0 
L 794 531 
z
" transform="scale(0.015625)"/>
       </defs>
       <use xlink:href="#DejaVuSans-31"/>
       <use xlink:href="#DejaVuSans-30" x="63.623047"/>
       <use xlink:href="#DejaVuSans-30" x="127.246094"/>
       <use xlink:href="#DejaVuSans-30" x="190.869141"/>
      </g>
     </g>
    </g>
    <g id="ytick_4">
     <g id="line2d_9">
      <path d="M 39.65 101.688801 
L 876.65 101.688801 
" clip-path="url(#p2b7a392635)" style="fill: none; stroke: #ffffff; stroke-width: 0.8; stroke-linecap: round"/>
     </g>
     <g id="text_9">
      <!-- 1500 -->
      <g style="fill: #262626" transform="translate(7.2 105.48802) scale(0.1 -0.1)">
       <use xlink:href="#DejaVuSans-31"/>
       <use xlink:href="#DejaVuSans-35" x="63.623047"/>
       <use xlink:href="#DejaVuSans-30" x="127.246094"/>
       <use xlink:href="#DejaVuSans-30" x="190.869141"/>
      </g>
     </g>
    </g>
    <g id="ytick_5">
     <g id="line2d_10">
      <path d="M 39.65 49.061037 
L 876.65 49.061037 
" clip-path="url(#p2b7a392635)" style="fill: none; stroke: #ffffff; stroke-width: 0.8; stroke-linecap: round"/>
     </g>
     <g id="text_10">
      <!-- 2000 -->
      <g style="fill: #262626" transform="translate(7.2 52.860256) scale(0.1 -0.1)">
       <use xlink:href="#DejaVuSans-32"/>
       <use xlink:href="#DejaVuSans-30" x="63.623047"/>
       <use xlink:href="#DejaVuSans-30" x="127.246094"/>
       <use xlink:href="#DejaVuSans-30" x="190.869141"/>
      </g>
     </g>
    </g>
   </g>
   <g id="line2d_11">
    <path d="M 77.695455 205.786518 
L 78.527049 208.733673 
L 79.358644 228.521712 
L 81.021833 250.204351 
L 81.853428 251.046396 
L 82.685022 254.730339 
L 83.516617 251.572673 
L 85.179806 240.626098 
L 86.011401 220.10127 
L 86.842996 205.786518 
L 87.67459 183.998624 
L 88.506185 177.157015 
L 89.337779 178.314826 
L 90.169374 182.104025 
L 91.832563 178.630592 
L 92.664158 171.262705 
L 93.495753 160.737152 
L 94.327347 155.790142 
L 95.158942 163.052774 
L 95.990537 160.526641 
L 96.822131 163.579052 
L 97.653726 172.104749 
L 98.48532 171.15745 
L 99.316915 206.207541 
L 100.14851 215.259516 
L 100.980104 239.88931 
L 101.811699 246.94143 
L 102.643294 249.572818 
L 103.474888 244.731064 
L 104.306483 247.046685 
L 105.138077 234.731789 
L 105.969672 216.838349 
L 106.801267 211.15455 
L 107.632861 190.840233 
L 108.464456 175.788693 
L 109.296051 172.104749 
L 110.127645 186.630012 
L 110.95924 186.314246 
L 111.790835 183.788113 
L 112.622429 195.892499 
L 113.454024 191.261255 
L 114.285618 192.629577 
L 115.117213 200.10272 
L 115.948808 217.259371 
L 116.780402 227.995435 
L 117.611997 232.731934 
L 118.443592 241.678654 
L 119.275186 229.153246 
L 120.106781 254.098806 
L 120.938376 255.256617 
L 121.76997 255.361872 
L 122.601565 251.993695 
L 123.433159 244.415297 
L 124.264754 223.048425 
L 125.096349 228.521712 
L 125.927943 219.048715 
L 126.759538 197.471332 
L 127.591133 162.526496 
L 128.422727 161.368685 
L 130.085917 195.997754 
L 130.917511 191.050744 
L 131.749106 183.998624 
L 132.5807 187.682568 
L 133.412295 196.208265 
L 134.24389 202.313086 
L 135.075484 211.996595 
L 135.907079 226.837624 
L 136.738674 239.257776 
L 137.570268 246.415152 
L 138.401863 251.151651 
L 139.233458 254.098806 
L 140.065052 255.88815 
L 140.896647 255.151361 
L 141.728241 257.256472 
L 142.559836 251.572673 
L 143.391431 241.468142 
L 144.223025 218.627693 
L 145.05462 224.837769 
L 145.886215 207.996884 
L 146.717809 187.577312 
L 147.549404 152.31671 
L 148.380999 158.421531 
L 149.212593 182.104025 
L 150.044188 189.682423 
L 150.875782 185.26169 
L 151.707377 174.20986 
L 152.538972 173.367816 
L 154.202161 195.15571 
L 155.033756 203.15513 
L 155.86535 222.206381 
L 156.696945 227.784924 
L 157.528539 246.309897 
L 158.360134 249.362307 
L 159.191729 253.256762 
L 160.023323 255.151361 
L 160.854918 254.519828 
L 161.686513 256.624939 
L 162.518107 251.467418 
L 163.349702 242.204931 
L 164.181297 223.048425 
L 165.012891 225.04828 
L 166.67608 199.681698 
L 167.507675 147.264445 
L 168.33927 162.631752 
L 169.170864 182.20928 
L 170.002459 182.946069 
L 170.834054 177.578037 
L 171.665648 176.946504 
L 172.497243 180.735703 
L 173.328838 193.682133 
L 174.160432 203.15513 
L 174.992027 219.785504 
L 175.823621 229.469012 
L 176.655216 228.942735 
L 177.486811 242.625953 
L 178.318405 249.678074 
L 179.15 253.99355 
L 179.981595 253.572528 
L 180.813189 256.309172 
L 181.644784 255.993405 
L 182.476379 252.098951 
L 183.307973 243.467997 
L 184.139568 218.206671 
L 184.971162 228.416457 
L 185.802757 209.575717 
L 186.634352 195.892499 
L 187.465946 155.158609 
L 188.297541 154.421821 
L 189.129136 182.630302 
L 189.96073 188.10359 
L 190.792325 180.10417 
L 191.62392 168.31555 
L 192.455514 182.314536 
L 193.287109 179.893658 
L 194.118703 181.26198 
L 194.950298 195.997754 
L 196.613487 221.259081 
L 197.445082 235.047555 
L 199.108271 247.88873 
L 199.939866 248.625518 
L 201.603055 256.098661 
L 202.43465 252.098951 
L 203.266244 239.994565 
L 204.097839 223.153681 
L 204.929434 228.205946 
L 205.761028 214.522727 
L 206.592623 192.840088 
L 207.424218 145.685612 
L 208.255812 145.685612 
L 209.087407 176.209715 
L 209.919001 184.630157 
L 210.750596 173.788838 
L 211.582191 168.105039 
L 212.413785 156.526931 
L 213.24538 133.370715 
L 214.076975 158.737297 
L 214.908569 156.421676 
L 215.740164 159.684597 
L 216.571759 177.157015 
L 217.403353 201.576297 
L 218.234948 220.311781 
L 219.066542 231.153101 
L 219.898137 236.836899 
L 220.729732 245.362597 
L 221.561326 250.520118 
L 222.392921 251.046396 
L 223.224516 249.467563 
L 224.05611 245.152086 
L 224.887705 235.889599 
L 227.382489 181.051469 
L 228.214083 176.420226 
L 229.045678 174.20986 
L 229.877273 182.419791 
L 230.708867 175.367671 
L 231.540462 169.789128 
L 232.372057 121.687351 
L 233.203651 39.693295 
L 234.035246 19.8 
L 234.866841 52.008192 
L 235.698435 42.324683 
L 236.53003 28.536209 
L 237.361624 34.746285 
L 238.193219 73.901342 
L 239.024814 106.635811 
L 239.856408 166.526206 
L 240.688003 185.577457 
L 241.519598 219.364482 
L 242.351192 233.258211 
L 243.182787 238.415732 
L 244.014382 242.836464 
L 244.845976 233.363467 
L 246.509165 204.944474 
L 247.34076 185.787968 
L 248.172355 181.577747 
L 249.003949 181.893513 
L 249.835544 172.525771 
L 250.667139 188.10359 
L 251.498733 191.998044 
L 252.330328 189.156145 
L 253.161923 183.893369 
L 253.993517 184.524902 
L 254.825112 195.892499 
L 255.656706 218.206671 
L 256.488301 226.311346 
L 257.319896 239.152521 
L 258.15149 243.88902 
L 258.983085 237.468432 
L 259.81468 254.098806 
L 260.646274 255.467128 
L 261.477869 255.256617 
L 262.309463 253.572528 
L 263.141058 242.310187 
L 263.972653 223.258936 
L 264.804247 225.574558 
L 265.635842 214.838494 
L 266.467437 195.15571 
L 267.299031 154.000798 
L 268.130626 157.579486 
L 268.962221 179.472636 
L 269.793815 189.156145 
L 270.62541 188.945634 
L 271.457004 183.788113 
L 272.288599 188.419356 
L 273.120194 180.946214 
L 273.951788 198.523887 
L 274.783383 203.049875 
L 275.614978 220.417037 
L 276.446572 233.363467 
L 277.278167 241.362887 
L 278.109762 248.099241 
L 278.941356 249.678074 
L 279.772951 255.677639 
L 280.604545 255.467128 
L 281.43614 254.835595 
L 282.267735 252.309462 
L 283.099329 243.573253 
L 283.930924 220.522292 
L 284.762519 228.205946 
L 285.594113 214.312216 
L 286.425708 196.313521 
L 287.257303 159.684597 
L 288.088897 159.684597 
L 288.920492 185.051179 
L 289.752086 191.156 
L 290.583681 187.893079 
L 291.415276 173.788838 
L 292.24687 186.314246 
L 293.078465 194.945199 
L 293.91006 194.839943 
L 294.741654 203.891919 
L 295.573249 222.522147 
L 296.404844 234.521278 
L 297.236438 240.626098 
L 298.068033 243.467997 
L 298.899627 245.573108 
L 299.731222 256.519683 
L 300.562817 254.519828 
L 301.394411 255.151361 
L 302.226006 251.151651 
L 303.057601 243.783764 
L 303.889195 224.627258 
L 304.72079 225.99558 
L 305.552385 221.469592 
L 306.383979 197.366076 
L 307.215574 147.895978 
L 308.047168 160.210875 
L 308.878763 180.10417 
L 309.710358 188.735123 
L 310.541952 191.366511 
L 311.373547 172.736283 
L 312.205142 173.367816 
L 313.036736 172.841538 
L 313.868331 191.156 
L 314.699925 206.839074 
L 315.53152 214.206961 
L 317.194709 244.204786 
L 318.857899 255.046106 
L 319.689493 256.83545 
L 320.521088 255.782894 
L 321.352683 256.309172 
L 322.184277 251.993695 
L 323.015872 241.573398 
L 323.847466 223.048425 
L 324.679061 226.416602 
L 325.510656 213.364916 
L 326.34225 196.10301 
L 327.173845 146.4224 
L 328.00544 156.737442 
L 328.837034 176.841248 
L 329.668629 190.2087 
L 330.500224 181.577747 
L 331.331818 175.893948 
L 332.163413 173.683582 
L 332.995007 166.736717 
L 333.826602 188.208845 
L 334.658197 198.418631 
L 335.489791 197.892354 
L 336.321386 215.680538 
L 337.152981 227.890179 
L 337.984575 238.310477 
L 338.81617 245.678364 
L 339.647765 249.888585 
L 340.479359 247.88873 
L 341.310954 254.730339 
L 342.142548 251.467418 
L 342.974143 242.731209 
L 343.805738 225.890324 
L 344.637332 229.890034 
L 346.300522 193.155855 
L 347.132116 149.685322 
L 347.963711 157.895253 
L 349.6269 186.314246 
L 350.458495 176.946504 
L 351.290089 163.789563 
L 352.121684 147.580211 
L 352.953279 147.895978 
L 353.784873 135.791592 
L 354.616468 159.474086 
L 355.448063 160.737152 
L 356.279657 140.107069 
L 357.111252 194.629432 
L 357.942846 214.627983 
L 358.774441 230.205801 
L 360.43763 247.257197 
L 361.269225 249.678074 
L 362.10082 251.256907 
L 362.932414 248.520263 
L 363.764009 242.731209 
L 365.427198 219.890759 
L 366.258793 197.787098 
L 367.090387 186.314246 
L 367.921982 171.473216 
L 368.753577 172.210005 
L 369.585171 185.682712 
L 370.416766 167.789273 
L 371.248361 172.525771 
L 372.079955 160.737152 
L 372.91155 162.105474 
L 373.743145 157.789998 
L 374.574739 158.947808 
L 375.406334 156.632187 
L 376.237928 165.473651 
L 377.069523 175.999204 
L 377.901118 181.683002 
L 378.732712 203.365641 
L 380.395902 239.678798 
L 382.059091 244.415297 
L 382.890686 245.678364 
L 383.72228 247.993985 
L 384.553875 236.626388 
L 385.385469 221.574848 
L 387.880253 162.842263 
L 388.711848 171.052194 
L 389.543443 169.26285 
L 390.375037 180.314681 
L 391.206632 183.367091 
L 392.038227 189.577167 
L 392.869821 187.15629 
L 393.701416 192.1033 
L 394.53301 212.838639 
L 395.364605 220.417037 
L 396.1962 226.94288 
L 397.027794 246.94143 
L 397.859389 243.362742 
L 398.690984 234.837044 
L 399.522578 255.782894 
L 400.354173 255.256617 
L 401.185768 256.414427 
L 402.017362 252.730484 
L 402.848957 241.468142 
L 403.680551 221.785359 
L 404.512146 230.521568 
L 405.343741 214.312216 
L 406.175335 186.735268 
L 407.00693 146.843423 
L 407.838525 156.632187 
L 408.670119 181.156725 
L 409.501714 187.787823 
L 410.333308 186.524757 
L 411.164903 179.788403 
L 411.996498 186.945779 
L 412.828092 183.893369 
L 413.659687 193.155855 
L 414.491282 215.049005 
L 415.322876 223.364192 
L 416.986066 246.625663 
L 417.81766 251.677929 
L 418.649255 255.256617 
L 419.480849 255.677639 
L 420.312444 255.151361 
L 421.144039 256.203916 
L 421.975633 252.414717 
L 423.638823 222.627403 
L 424.470417 224.522002 
L 425.302012 214.627983 
L 426.133607 198.944909 
L 426.965201 157.474231 
L 427.796796 167.894528 
L 428.62839 185.577457 
L 429.459985 192.629577 
L 430.29158 193.471622 
L 431.123174 181.998769 
L 431.954769 188.945634 
L 432.786364 187.366801 
L 433.617958 197.366076 
L 434.449553 202.102575 
L 435.281148 222.311636 
L 436.944337 241.678654 
L 437.775931 245.573108 
L 438.607526 254.730339 
L 439.439121 255.151361 
L 440.270715 255.993405 
L 441.10231 255.677639 
L 441.933905 254.098806 
L 442.765499 242.310187 
L 443.597094 225.99558 
L 444.428689 223.890469 
L 445.260283 211.575572 
L 446.091878 194.629432 
L 446.923472 155.36912 
L 447.755067 161.26343 
L 448.586662 184.209135 
L 449.418256 188.524612 
L 450.249851 180.946214 
L 451.081446 178.104314 
L 451.91304 174.104604 
L 452.744635 178.735848 
L 456.071013 237.363177 
L 457.734203 252.940995 
L 458.565797 252.940995 
L 459.397392 255.677639 
L 460.228987 254.519828 
L 461.060581 257.045961 
L 461.892176 250.309607 
L 462.72377 239.257776 
L 463.555365 226.206091 
L 464.38696 227.153391 
L 465.218554 213.364916 
L 466.050149 202.944619 
L 466.881744 153.158754 
L 467.713338 166.105184 
L 468.544933 187.682568 
L 469.376528 189.577167 
L 470.208122 187.472056 
L 471.039717 178.525337 
L 471.871311 166.420951 
L 472.702906 180.946214 
L 473.534501 186.314246 
L 474.366095 203.15513 
L 475.19769 209.154695 
L 476.860879 233.363467 
L 477.692474 242.520698 
L 478.524069 242.731209 
L 479.355663 250.730629 
L 480.187258 246.836174 
L 481.018852 256.098661 
L 481.850447 250.414862 
L 482.682042 243.783764 
L 483.513636 224.943025 
L 484.345231 227.890179 
L 486.00842 197.681843 
L 486.840015 139.791302 
L 487.67161 148.211744 
L 488.503204 173.157305 
L 489.334799 183.788113 
L 490.166393 174.20986 
L 490.997988 160.210875 
L 491.829583 148.106489 
L 492.661177 145.580356 
L 493.492772 138.212469 
L 494.324367 157.579486 
L 495.155961 152.000943 
L 495.987556 169.368106 
L 496.819151 199.15542 
L 500.145529 246.309897 
L 500.977124 250.835884 
L 501.808718 254.309317 
L 502.640313 250.835884 
L 503.471908 243.257486 
L 504.303502 238.520988 
L 505.135097 216.943604 
L 506.798286 187.577312 
L 507.629881 164.736862 
L 508.461475 162.21073 
L 509.29307 177.157015 
L 510.124665 172.525771 
L 510.956259 180.209425 
L 511.787854 164.105329 
L 512.619449 144.633056 
L 513.451043 155.895398 
L 514.282638 154.632332 
L 515.114232 137.791447 
L 515.945827 156.632187 
L 516.777422 166.841973 
L 517.609016 199.050165 
L 518.440611 213.154405 
L 519.272206 222.837914 
L 520.1038 239.047265 
L 520.935395 248.520263 
L 521.76699 244.520553 
L 522.598584 249.678074 
L 523.430179 248.309752 
L 524.261773 236.731644 
L 525.093368 210.628273 
L 525.924963 203.049875 
L 526.756557 187.787823 
L 527.588152 168.105039 
L 528.419747 175.472926 
L 529.251341 167.15774 
L 530.082936 165.789418 
L 530.914531 180.419936 
L 531.746125 172.525771 
L 532.57772 169.157595 
L 533.409314 159.263575 
L 534.240909 159.895108 
L 535.072504 164.526351 
L 535.904098 137.054658 
L 536.735693 176.735993 
L 538.398882 220.311781 
L 539.230477 231.784634 
L 540.062072 233.363467 
L 540.893666 235.573833 
L 541.725261 249.572818 
L 542.556855 249.99384 
L 543.38845 246.309897 
L 544.220045 239.363032 
L 546.714829 187.893079 
L 547.546423 187.051034 
L 548.378018 192.1033 
L 549.209613 189.050889 
L 550.041207 199.786953 
L 551.704396 185.051179 
L 552.535991 188.735123 
L 553.367586 195.787243 
L 554.19918 208.523162 
L 555.030775 210.628273 
L 556.693964 246.415152 
L 557.525559 252.414717 
L 558.357154 254.414572 
L 559.188748 257.256472 
L 560.020343 253.467273 
L 560.851937 256.83545 
L 561.683532 252.309462 
L 562.515127 243.362742 
L 563.346721 225.04828 
L 564.178316 225.679813 
L 565.009911 213.785939 
L 565.841505 198.523887 
L 566.6731 156.000654 
L 567.504694 167.578762 
L 568.336289 176.420226 
L 569.167884 194.734688 
L 569.999478 191.892789 
L 571.662668 178.525337 
L 572.494262 200.418486 
L 573.325857 211.049295 
L 574.157452 211.996595 
L 574.989046 224.627258 
L 575.820641 241.889165 
L 577.48383 253.467273 
L 578.315425 253.677784 
L 579.147019 254.625083 
L 579.978614 256.309172 
L 580.810209 254.730339 
L 581.641803 251.046396 
L 582.473398 241.99442 
L 583.304993 223.258936 
L 584.136587 225.364047 
L 584.968182 208.312651 
L 585.799776 194.839943 
L 586.631371 152.000943 
L 587.462966 163.052774 
L 588.29456 187.893079 
L 589.126155 185.998479 
L 589.95775 190.734978 
L 590.789344 180.10417 
L 591.620939 173.788838 
L 592.452534 188.629867 
L 593.284128 192.945344 
L 594.115723 202.839364 
L 594.947317 224.416747 
L 595.778912 239.678798 
L 598.273696 253.677784 
L 599.105291 255.467128 
L 599.936885 254.625083 
L 600.76848 255.572383 
L 601.600075 251.783184 
L 602.431669 241.468142 
L 603.263264 223.153681 
L 604.094858 226.100835 
L 604.926453 220.417037 
L 605.758048 197.260821 
L 606.589642 157.789998 
L 607.421237 162.842263 
L 608.252832 186.630012 
L 609.084426 186.840523 
L 609.916021 188.629867 
L 610.747615 168.841828 
L 611.57921 175.367671 
L 612.410805 174.525627 
L 613.242399 185.998479 
L 614.073994 192.208555 
L 614.905589 208.628418 
L 615.737183 219.469737 
L 616.568778 237.257921 
L 617.400373 245.573108 
L 618.231967 250.625373 
L 619.063562 247.678219 
L 619.895156 253.046251 
L 620.726751 254.835595 
L 621.558346 253.362017 
L 622.38994 243.994275 
L 623.221535 227.890179 
L 624.05313 223.785214 
L 624.884724 215.049005 
L 625.716319 184.945924 
L 626.547914 140.31758 
L 627.379508 154.737587 
L 628.211103 178.104314 
L 629.042697 185.366946 
L 629.874292 177.578037 
L 630.705887 147.3697 
L 631.537481 150.422111 
L 632.369076 136.949403 
L 633.200671 136.423125 
L 634.032265 140.212324 
L 634.86386 132.002393 
L 635.695455 149.369555 
L 637.358644 207.049585 
L 638.190238 224.943025 
L 639.853428 247.257197 
L 640.685022 249.467563 
L 641.516617 251.993695 
L 642.348212 251.783184 
L 643.179806 243.362742 
L 644.011401 226.837624 
L 644.842996 206.102285 
L 645.67459 206.418052 
L 646.506185 181.788258 
L 647.337779 182.104025 
L 648.169374 179.577892 
L 649.000969 183.367091 
L 649.832563 188.735123 
L 650.664158 189.998189 
L 651.495753 169.157595 
L 652.327347 163.368541 
L 653.158942 162.000219 
L 653.990537 177.26227 
L 654.822131 170.631172 
L 655.653726 175.683437 
L 656.48532 196.418776 
L 657.316915 195.366221 
L 658.14851 214.838494 
L 658.980104 226.311346 
L 659.811699 242.94172 
L 660.643294 248.204496 
L 661.474888 245.257341 
L 662.306483 248.415007 
L 663.138077 246.415152 
L 663.969672 232.416167 
L 664.801267 215.15426 
L 665.632861 179.893658 
L 667.296051 141.580646 
L 668.127645 149.2643 
L 668.95924 167.999784 
L 669.790835 183.998624 
L 670.622429 182.20928 
L 671.454024 189.577167 
L 672.285618 183.367091 
L 673.117213 178.104314 
L 673.948808 189.787678 
L 675.611997 220.311781 
L 676.443592 242.520698 
L 677.275186 246.94143 
L 678.106781 239.257776 
L 678.938376 251.88844 
L 679.76997 253.572528 
L 680.601565 255.88815 
L 681.433159 253.151506 
L 683.096349 222.943169 
L 683.927943 222.311636 
L 684.759538 198.734398 
L 685.591133 184.630157 
L 686.422727 128.107939 
L 687.254322 161.158174 
L 688.085917 189.2614 
L 688.917511 187.577312 
L 689.749106 233.889744 
L 690.5807 244.731064 
L 691.412295 186.735268 
L 692.24389 191.577022 
L 693.075484 204.944474 
L 693.907079 211.786084 
L 694.738674 224.522002 
L 696.401863 245.678364 
L 697.233458 247.257197 
L 698.065052 253.99355 
L 698.896647 257.677494 
L 698.896647 257.677494 
" clip-path="url(#p2b7a392635)" style="fill: none; stroke: #ff4500; stroke-width: 1.5; stroke-linecap: round"/>
   </g>
   <g id="line2d_12">
    <path d="M 699.728241 261.208432 
L 700.559836 266.869608 
L 701.391431 268.557211 
L 703.05462 233.245646 
L 703.886215 239.495547 
L 704.717809 214.122348 
L 705.549404 198.020968 
L 706.380999 136.802017 
L 707.212593 173.294022 
L 708.044188 197.381634 
L 708.875782 200.414669 
L 709.707377 235.53486 
L 710.538972 246.357601 
L 711.370566 186.362091 
L 712.202161 194.898659 
L 713.033756 208.519142 
L 713.86535 207.346796 
L 714.696945 218.346824 
L 715.528539 233.278888 
L 716.360134 245.494824 
L 717.191729 247.438798 
L 718.023323 256.972761 
L 718.854918 260.824508 
L 719.686513 259.716104 
L 720.518107 268.626522 
L 721.349702 271.8 
L 723.012891 234.871603 
L 723.844486 240.239279 
L 724.67608 209.818694 
L 725.507675 195.474377 
L 726.33927 133.432678 
L 727.170864 174.486624 
L 728.002459 193.530116 
L 728.834054 193.8296 
L 729.665648 234.34091 
L 730.497243 246.04518 
L 731.328838 183.607322 
L 732.160432 194.168102 
L 732.992027 206.246352 
L 733.823621 206.631946 
L 734.655216 217.186377 
L 735.486811 231.711581 
L 736.318405 239.52635 
L 737.15 241.283683 
L 737.981595 250.870529 
L 738.813189 254.81956 
L 739.644784 251.033287 
L 740.476379 264.174155 
L 741.307973 262.087974 
L 742.139568 241.464712 
L 742.971162 224.559451 
L 743.802757 232.997039 
L 744.634352 206.928487 
L 745.465946 190.64294 
L 746.297541 125.604386 
L 747.129136 171.890303 
L 747.96073 192.642586 
L 748.792325 195.628106 
L 749.62392 235.9434 
L 750.455514 243.935598 
L 751.287109 179.798607 
L 752.950298 205.274002 
L 753.781893 201.876015 
L 754.613487 215.289073 
L 755.445082 233.69267 
L 756.276677 240.849453 
L 757.108271 241.343432 
L 757.939866 251.096132 
L 758.771461 258.564939 
L 759.603055 255.501915 
L 760.43465 270.764446 
L 761.266244 266.887746 
L 762.097839 255.615785 
L 762.929434 223.229712 
L 763.761028 237.229444 
L 764.592623 212.332786 
L 765.424218 195.23198 
L 766.255812 126.289021 
L 767.087407 167.093115 
L 767.919001 186.099385 
L 768.750596 194.911407 
L 769.582191 234.179668 
L 770.413785 241.127323 
L 771.24538 180.147618 
L 772.908569 207.946958 
L 773.740164 201.414475 
L 774.571759 214.040656 
L 775.403353 235.05116 
L 776.234948 237.616362 
L 777.066542 235.979421 
L 778.729732 255.566955 
L 779.561326 254.060409 
L 780.392921 268.424453 
L 781.224516 265.393157 
L 782.05611 254.550575 
L 782.887705 218.24174 
L 783.7193 228.038078 
L 785.382489 190.25456 
L 786.214083 122.524386 
L 787.045678 165.893276 
L 787.877273 183.599721 
L 788.708867 194.182938 
L 789.540462 232.496778 
L 790.372057 237.669002 
L 791.203651 173.826115 
L 792.035246 188.764972 
L 792.866841 201.557745 
L 793.698435 195.372372 
L 794.53003 208.183907 
L 795.361624 232.788158 
L 796.193219 235.733645 
L 797.024814 232.437496 
L 797.856408 247.060466 
L 798.688003 252.058856 
L 799.519598 254.28438 
L 800.351192 268.556047 
L 801.182787 270.888368 
L 802.014382 256.297976 
L 802.845976 223.803475 
L 803.677571 235.172399 
L 805.34076 189.51592 
L 806.172355 118.458916 
L 807.003949 166.61274 
L 807.835544 184.452032 
L 808.667139 193.273864 
L 809.498733 231.344491 
L 810.330328 234.126218 
L 811.161923 172.88345 
L 812.825112 201.46004 
L 813.656706 195.304373 
L 814.488301 210.724654 
L 815.319896 240.15022 
L 816.15149 231.752299 
L 816.983085 226.461988 
L 817.81468 244.997413 
L 818.646274 253.543691 
L 819.477869 252.668674 
L 820.309463 267.810899 
L 821.141058 267.540186 
L 821.972653 257.041266 
L 822.804247 221.940859 
L 823.635842 234.420505 
L 824.467437 209.962195 
L 825.299031 189.185855 
L 826.130626 116.779927 
L 826.962221 168.474329 
L 827.793815 180.945809 
L 828.62541 190.454797 
L 829.457004 231.260171 
L 830.288599 235.756461 
L 831.120194 170.43441 
L 831.951788 189.16491 
L 832.783383 196.315962 
L 833.614978 191.274934 
L 834.446572 206.745358 
L 835.278167 237.939794 
L 836.109762 235.274303 
L 836.941356 228.104727 
L 837.772951 241.043078 
L 838.604545 250.075813 
L 838.604545 250.075813 
" clip-path="url(#p2b7a392635)" style="fill: none; stroke: #1f77b4; stroke-width: 1.5; stroke-linecap: round"/>
   </g>
   <g id="patch_3">
    <path d="M 39.65 284.4 
L 39.65 7.2 
" style="fill: none; stroke: #ffffff; stroke-width: 0.8; stroke-linejoin: miter; stroke-linecap: square"/>
   </g>
   <g id="patch_4">
    <path d="M 876.65 284.4 
L 876.65 7.2 
" style="fill: none; stroke: #ffffff; stroke-width: 0.8; stroke-linejoin: miter; stroke-linecap: square"/>
   </g>
   <g id="patch_5">
    <path d="M 39.65 284.4 
L 876.65 284.4 
" style="fill: none; stroke: #ffffff; stroke-width: 0.8; stroke-linejoin: miter; stroke-linecap: square"/>
   </g>
   <g id="patch_6">
    <path d="M 39.65 7.2 
L 876.65 7.2 
" style="fill: none; stroke: #ffffff; stroke-width: 0.8; stroke-linejoin: miter; stroke-linecap: square"/>
   </g>
   <g id="legend_1">
    <g id="patch_7">
     <path d="M 708.154688 44.55625 
L 869.65 44.55625 
Q 871.65 44.55625 871.65 42.55625 
L 871.65 14.2 
Q 871.65 12.2 869.65 12.2 
L 708.154688 12.2 
Q 706.154688 12.2 706.154688 14.2 
L 706.154688 42.55625 
Q 706.154688 44.55625 708.154688 44.55625 
z
" style="fill: #eaeaf2; opacity: 0.8; stroke: #cccccc; stroke-linejoin: miter"/>
    </g>
    <g id="line2d_13">
     <path d="M 710.154688 20.298438 
L 720.154688 20.298438 
L 730.154688 20.298438 
" style="fill: none; stroke: #ff4500; stroke-width: 1.5; stroke-linecap: round"/>
    </g>
    <g id="text_11">
     <!-- Dataset (~107 weeks) -->
     <g style="fill: #262626" transform="translate(738.154688 23.798438) scale(0.1 -0.1)">
      <defs>
       <path id="DejaVuSans-44" d="M 1259 4147 
L 1259 519 
L 2022 519 
Q 2988 519 3436 956 
Q 3884 1394 3884 2338 
Q 3884 3275 3436 3711 
Q 2988 4147 2022 4147 
L 1259 4147 
z
M 628 4666 
L 1925 4666 
Q 3281 4666 3915 4102 
Q 4550 3538 4550 2338 
Q 4550 1131 3912 565 
Q 3275 0 1925 0 
L 628 0 
L 628 4666 
z
" transform="scale(0.015625)"/>
       <path id="DejaVuSans-61" d="M 2194 1759 
Q 1497 1759 1228 1600 
Q 959 1441 959 1056 
Q 959 750 1161 570 
Q 1363 391 1709 391 
Q 2188 391 2477 730 
Q 2766 1069 2766 1631 
L 2766 1759 
L 2194 1759 
z
M 3341 1997 
L 3341 0 
L 2766 0 
L 2766 531 
Q 2569 213 2275 61 
Q 1981 -91 1556 -91 
Q 1019 -91 701 211 
Q 384 513 384 1019 
Q 384 1609 779 1909 
Q 1175 2209 1959 2209 
L 2766 2209 
L 2766 2266 
Q 2766 2663 2505 2880 
Q 2244 3097 1772 3097 
Q 1472 3097 1187 3025 
Q 903 2953 641 2809 
L 641 3341 
Q 956 3463 1253 3523 
Q 1550 3584 1831 3584 
Q 2591 3584 2966 3190 
Q 3341 2797 3341 1997 
z
" transform="scale(0.015625)"/>
       <path id="DejaVuSans-74" d="M 1172 4494 
L 1172 3500 
L 2356 3500 
L 2356 3053 
L 1172 3053 
L 1172 1153 
Q 1172 725 1289 603 
Q 1406 481 1766 481 
L 2356 481 
L 2356 0 
L 1766 0 
Q 1100 0 847 248 
Q 594 497 594 1153 
L 594 3053 
L 172 3053 
L 172 3500 
L 594 3500 
L 594 4494 
L 1172 4494 
z
" transform="scale(0.015625)"/>
       <path id="DejaVuSans-73" d="M 2834 3397 
L 2834 2853 
Q 2591 2978 2328 3040 
Q 2066 3103 1784 3103 
Q 1356 3103 1142 2972 
Q 928 2841 928 2578 
Q 928 2378 1081 2264 
Q 1234 2150 1697 2047 
L 1894 2003 
Q 2506 1872 2764 1633 
Q 3022 1394 3022 966 
Q 3022 478 2636 193 
Q 2250 -91 1575 -91 
Q 1294 -91 989 -36 
Q 684 19 347 128 
L 347 722 
Q 666 556 975 473 
Q 1284 391 1588 391 
Q 1994 391 2212 530 
Q 2431 669 2431 922 
Q 2431 1156 2273 1281 
Q 2116 1406 1581 1522 
L 1381 1569 
Q 847 1681 609 1914 
Q 372 2147 372 2553 
Q 372 3047 722 3315 
Q 1072 3584 1716 3584 
Q 2034 3584 2315 3537 
Q 2597 3491 2834 3397 
z
" transform="scale(0.015625)"/>
       <path id="DejaVuSans-65" d="M 3597 1894 
L 3597 1613 
L 953 1613 
Q 991 1019 1311 708 
Q 1631 397 2203 397 
Q 2534 397 2845 478 
Q 3156 559 3463 722 
L 3463 178 
Q 3153 47 2828 -22 
Q 2503 -91 2169 -91 
Q 1331 -91 842 396 
Q 353 884 353 1716 
Q 353 2575 817 3079 
Q 1281 3584 2069 3584 
Q 2775 3584 3186 3129 
Q 3597 2675 3597 1894 
z
M 3022 2063 
Q 3016 2534 2758 2815 
Q 2500 3097 2075 3097 
Q 1594 3097 1305 2825 
Q 1016 2553 972 2059 
L 3022 2063 
z
" transform="scale(0.015625)"/>
       <path id="DejaVuSans-20" transform="scale(0.015625)"/>
       <path id="DejaVuSans-28" d="M 1984 4856 
Q 1566 4138 1362 3434 
Q 1159 2731 1159 2009 
Q 1159 1288 1364 580 
Q 1569 -128 1984 -844 
L 1484 -844 
Q 1016 -109 783 600 
Q 550 1309 550 2009 
Q 550 2706 781 3412 
Q 1013 4119 1484 4856 
L 1984 4856 
z
" transform="scale(0.015625)"/>
       <path id="DejaVuSans-7e" d="M 4684 2553 
L 4684 1997 
Q 4356 1750 4076 1644 
Q 3797 1538 3494 1538 
Q 3150 1538 2694 1722 
Q 2659 1734 2644 1741 
Q 2622 1750 2575 1766 
Q 2091 1959 1797 1959 
Q 1522 1959 1253 1839 
Q 984 1719 678 1459 
L 678 2016 
Q 1006 2263 1286 2370 
Q 1566 2478 1869 2478 
Q 2213 2478 2672 2291 
Q 2703 2278 2719 2272 
Q 2744 2263 2788 2247 
Q 3272 2053 3566 2053 
Q 3834 2053 4098 2172 
Q 4363 2291 4684 2553 
z
" transform="scale(0.015625)"/>
       <path id="DejaVuSans-37" d="M 525 4666 
L 3525 4666 
L 3525 4397 
L 1831 0 
L 1172 0 
L 2766 4134 
L 525 4134 
L 525 4666 
z
" transform="scale(0.015625)"/>
       <path id="DejaVuSans-77" d="M 269 3500 
L 844 3500 
L 1563 769 
L 2278 3500 
L 2956 3500 
L 3675 769 
L 4391 3500 
L 4966 3500 
L 4050 0 
L 3372 0 
L 2619 2869 
L 1863 0 
L 1184 0 
L 269 3500 
z
" transform="scale(0.015625)"/>
       <path id="DejaVuSans-6b" d="M 581 4863 
L 1159 4863 
L 1159 1991 
L 2875 3500 
L 3609 3500 
L 1753 1863 
L 3688 0 
L 2938 0 
L 1159 1709 
L 1159 0 
L 581 0 
L 581 4863 
z
" transform="scale(0.015625)"/>
       <path id="DejaVuSans-29" d="M 513 4856 
L 1013 4856 
Q 1481 4119 1714 3412 
Q 1947 2706 1947 2009 
Q 1947 1309 1714 600 
Q 1481 -109 1013 -844 
L 513 -844 
Q 928 -128 1133 580 
Q 1338 1288 1338 2009 
Q 1338 2731 1133 3434 
Q 928 4138 513 4856 
z
" transform="scale(0.015625)"/>
      </defs>
      <use xlink:href="#DejaVuSans-44"/>
      <use xlink:href="#DejaVuSans-61" x="77.001953"/>
      <use xlink:href="#DejaVuSans-74" x="138.28125"/>
      <use xlink:href="#DejaVuSans-61" x="177.490234"/>
      <use xlink:href="#DejaVuSans-73" x="238.769531"/>
      <use xlink:href="#DejaVuSans-65" x="290.869141"/>
      <use xlink:href="#DejaVuSans-74" x="352.392578"/>
      <use xlink:href="#DejaVuSans-20" x="391.601562"/>
      <use xlink:href="#DejaVuSans-28" x="423.388672"/>
      <use xlink:href="#DejaVuSans-7e" x="462.402344"/>
      <use xlink:href="#DejaVuSans-31" x="546.191406"/>
      <use xlink:href="#DejaVuSans-30" x="609.814453"/>
      <use xlink:href="#DejaVuSans-37" x="673.4375"/>
      <use xlink:href="#DejaVuSans-20" x="737.060547"/>
      <use xlink:href="#DejaVuSans-77" x="768.847656"/>
      <use xlink:href="#DejaVuSans-65" x="850.634766"/>
      <use xlink:href="#DejaVuSans-65" x="912.158203"/>
      <use xlink:href="#DejaVuSans-6b" x="973.681641"/>
      <use xlink:href="#DejaVuSans-73" x="1031.591797"/>
      <use xlink:href="#DejaVuSans-29" x="1083.691406"/>
     </g>
    </g>
    <g id="line2d_14">
     <path d="M 710.154688 34.976563 
L 720.154688 34.976563 
L 730.154688 34.976563 
" style="fill: none; stroke: #1f77b4; stroke-width: 1.5; stroke-linecap: round"/>
    </g>
    <g id="text_12">
     <!-- Forecast of the next week -->
     <g style="fill: #262626" transform="translate(738.154688 38.476563) scale(0.1 -0.1)">
      <defs>
       <path id="DejaVuSans-46" d="M 628 4666 
L 3309 4666 
L 3309 4134 
L 1259 4134 
L 1259 2759 
L 3109 2759 
L 3109 2228 
L 1259 2228 
L 1259 0 
L 628 0 
L 628 4666 
z
" transform="scale(0.015625)"/>
       <path id="DejaVuSans-6f" d="M 1959 3097 
Q 1497 3097 1228 2736 
Q 959 2375 959 1747 
Q 959 1119 1226 758 
Q 1494 397 1959 397 
Q 2419 397 2687 759 
Q 2956 1122 2956 1747 
Q 2956 2369 2687 2733 
Q 2419 3097 1959 3097 
z
M 1959 3584 
Q 2709 3584 3137 3096 
Q 3566 2609 3566 1747 
Q 3566 888 3137 398 
Q 2709 -91 1959 -91 
Q 1206 -91 779 398 
Q 353 888 353 1747 
Q 353 2609 779 3096 
Q 1206 3584 1959 3584 
z
" transform="scale(0.015625)"/>
       <path id="DejaVuSans-72" d="M 2631 2963 
Q 2534 3019 2420 3045 
Q 2306 3072 2169 3072 
Q 1681 3072 1420 2755 
Q 1159 2438 1159 1844 
L 1159 0 
L 581 0 
L 581 3500 
L 1159 3500 
L 1159 2956 
Q 1341 3275 1631 3429 
Q 1922 3584 2338 3584 
Q 2397 3584 2469 3576 
Q 2541 3569 2628 3553 
L 2631 2963 
z
" transform="scale(0.015625)"/>
       <path id="DejaVuSans-63" d="M 3122 3366 
L 3122 2828 
Q 2878 2963 2633 3030 
Q 2388 3097 2138 3097 
Q 1578 3097 1268 2742 
Q 959 2388 959 1747 
Q 959 1106 1268 751 
Q 1578 397 2138 397 
Q 2388 397 2633 464 
Q 2878 531 3122 666 
L 3122 134 
Q 2881 22 2623 -34 
Q 2366 -91 2075 -91 
Q 1284 -91 818 406 
Q 353 903 353 1747 
Q 353 2603 823 3093 
Q 1294 3584 2113 3584 
Q 2378 3584 2631 3529 
Q 2884 3475 3122 3366 
z
" transform="scale(0.015625)"/>
       <path id="DejaVuSans-66" d="M 2375 4863 
L 2375 4384 
L 1825 4384 
Q 1516 4384 1395 4259 
Q 1275 4134 1275 3809 
L 1275 3500 
L 2222 3500 
L 2222 3053 
L 1275 3053 
L 1275 0 
L 697 0 
L 697 3053 
L 147 3053 
L 147 3500 
L 697 3500 
L 697 3744 
Q 697 4328 969 4595 
Q 1241 4863 1831 4863 
L 2375 4863 
z
" transform="scale(0.015625)"/>
       <path id="DejaVuSans-68" d="M 3513 2113 
L 3513 0 
L 2938 0 
L 2938 2094 
Q 2938 2591 2744 2837 
Q 2550 3084 2163 3084 
Q 1697 3084 1428 2787 
Q 1159 2491 1159 1978 
L 1159 0 
L 581 0 
L 581 4863 
L 1159 4863 
L 1159 2956 
Q 1366 3272 1645 3428 
Q 1925 3584 2291 3584 
Q 2894 3584 3203 3211 
Q 3513 2838 3513 2113 
z
" transform="scale(0.015625)"/>
       <path id="DejaVuSans-6e" d="M 3513 2113 
L 3513 0 
L 2938 0 
L 2938 2094 
Q 2938 2591 2744 2837 
Q 2550 3084 2163 3084 
Q 1697 3084 1428 2787 
Q 1159 2491 1159 1978 
L 1159 0 
L 581 0 
L 581 3500 
L 1159 3500 
L 1159 2956 
Q 1366 3272 1645 3428 
Q 1925 3584 2291 3584 
Q 2894 3584 3203 3211 
Q 3513 2838 3513 2113 
z
" transform="scale(0.015625)"/>
       <path id="DejaVuSans-78" d="M 3513 3500 
L 2247 1797 
L 3578 0 
L 2900 0 
L 1881 1375 
L 863 0 
L 184 0 
L 1544 1831 
L 300 3500 
L 978 3500 
L 1906 2253 
L 2834 3500 
L 3513 3500 
z
" transform="scale(0.015625)"/>
      </defs>
      <use xlink:href="#DejaVuSans-46"/>
      <use xlink:href="#DejaVuSans-6f" x="53.894531"/>
      <use xlink:href="#DejaVuSans-72" x="115.076172"/>
      <use xlink:href="#DejaVuSans-65" x="153.939453"/>
      <use xlink:href="#DejaVuSans-63" x="215.462891"/>
      <use xlink:href="#DejaVuSans-61" x="270.443359"/>
      <use xlink:href="#DejaVuSans-73" x="331.722656"/>
      <use xlink:href="#DejaVuSans-74" x="383.822266"/>
      <use xlink:href="#DejaVuSans-20" x="423.03125"/>
      <use xlink:href="#DejaVuSans-6f" x="454.818359"/>
      <use xlink:href="#DejaVuSans-66" x="516"/>
      <use xlink:href="#DejaVuSans-20" x="551.205078"/>
      <use xlink:href="#DejaVuSans-74" x="582.992188"/>
      <use xlink:href="#DejaVuSans-68" x="622.201172"/>
      <use xlink:href="#DejaVuSans-65" x="685.580078"/>
      <use xlink:href="#DejaVuSans-20" x="747.103516"/>
      <use xlink:href="#DejaVuSans-6e" x="778.890625"/>
      <use xlink:href="#DejaVuSans-65" x="842.269531"/>
      <use xlink:href="#DejaVuSans-78" x="902.042969"/>
      <use xlink:href="#DejaVuSans-74" x="961.222656"/>
      <use xlink:href="#DejaVuSans-20" x="1000.431641"/>
      <use xlink:href="#DejaVuSans-77" x="1032.21875"/>
      <use xlink:href="#DejaVuSans-65" x="1114.005859"/>
      <use xlink:href="#DejaVuSans-65" x="1175.529297"/>
      <use xlink:href="#DejaVuSans-6b" x="1237.052734"/>
     </g>
    </g>
   </g>
  </g>
 </g>
 <defs>
  <clipPath id="p2b7a392635">
   <rect x="39.65" y="7.2" width="837" height="277.2"/>
  </clipPath>
 </defs>
</svg>
