<?xml version="1.0" encoding="utf-8" standalone="no"?>
<!DOCTYPE svg PUBLIC "-//W3C//DTD SVG 1.1//EN"
  "http://www.w3.org/Graphics/SVG/1.1/DTD/svg11.dtd">
<svg xmlns:xlink="http://www.w3.org/1999/xlink" width="871.125pt" height="323.39625pt" viewBox="0 0 871.125 323.39625" xmlns="http://www.w3.org/2000/svg" version="1.1">
 <metadata>
  <rdf:RDF xmlns:dc="http://purl.org/dc/elements/1.1/" xmlns:cc="http://creativecommons.org/ns#" xmlns:rdf="http://www.w3.org/1999/02/22-rdf-syntax-ns#">
   <cc:Work>
    <dc:type rdf:resource="http://purl.org/dc/dcmitype/StillImage"/>
    <dc:date>2024-01-24T15:20:44.635937</dc:date>
    <dc:format>image/svg+xml</dc:format>
    <dc:creator>
     <cc:Agent>
      <dc:title>Matplotlib v3.8.2, https://matplotlib.org/</dc:title>
     </cc:Agent>
    </dc:creator>
   </cc:Work>
  </rdf:RDF>
 </metadata>
 <defs>
  <style type="text/css">*{stroke-linejoin: round; stroke-linecap: butt}</style>
 </defs>
 <g id="figure_1">
  <g id="patch_1">
   <path d="M 0 323.39625 
L 871.125 323.39625 
L 871.125 0 
L 0 0 
z
" style="fill: #ffffff"/>
  </g>
  <g id="axes_1">
   <g id="patch_2">
    <path d="M 26.925 299.518125 
L 863.925 299.518125 
L 863.925 22.318125 
L 26.925 22.318125 
z
" style="fill: #eaeaf2"/>
   </g>
   <g id="matplotlib.axis_1">
    <g id="xtick_1">
     <g id="line2d_1">
      <path d="M 64.214835 299.518125 
L 64.214835 22.318125 
" clip-path="url(#p4a20d904c5)" style="fill: none; stroke: #ffffff; stroke-width: 0.8; stroke-linecap: round"/>
     </g>
     <g id="text_1">
      <!-- 0 -->
      <g style="fill: #262626" transform="translate(61.033585 314.116563) scale(0.1 -0.1)">
       <defs>
        <path id="DejaVuSans-30" d="M 2034 4250 
Q 1547 4250 1301 3770 
Q 1056 3291 1056 2328 
Q 1056 1369 1301 889 
Q 1547 409 2034 409 
Q 2525 409 2770 889 
Q 3016 1369 3016 2328 
Q 3016 3291 2770 3770 
Q 2525 4250 2034 4250 
z
M 2034 4750 
Q 2819 4750 3233 4129 
Q 3647 3509 3647 2328 
Q 3647 1150 3233 529 
Q 2819 -91 2034 -91 
Q 1250 -91 836 529 
Q 422 1150 422 2328 
Q 422 3509 836 4129 
Q 1250 4750 2034 4750 
z
" transform="scale(0.015625)"/>
       </defs>
       <use xlink:href="#DejaVuSans-30"/>
      </g>
     </g>
    </g>
    <g id="xtick_2">
     <g id="line2d_2">
      <path d="M 215.338785 299.518125 
L 215.338785 22.318125 
" clip-path="url(#p4a20d904c5)" style="fill: none; stroke: #ffffff; stroke-width: 0.8; stroke-linecap: round"/>
     </g>
     <g id="text_2">
      <!-- 200 -->
      <g style="fill: #262626" transform="translate(205.795035 314.116563) scale(0.1 -0.1)">
       <defs>
        <path id="DejaVuSans-32" d="M 1228 531 
L 3431 531 
L 3431 0 
L 469 0 
L 469 531 
Q 828 903 1448 1529 
Q 2069 2156 2228 2338 
Q 2531 2678 2651 2914 
Q 2772 3150 2772 3378 
Q 2772 3750 2511 3984 
Q 2250 4219 1831 4219 
Q 1534 4219 1204 4116 
Q 875 4013 500 3803 
L 500 4441 
Q 881 4594 1212 4672 
Q 1544 4750 1819 4750 
Q 2544 4750 2975 4387 
Q 3406 4025 3406 3419 
Q 3406 3131 3298 2873 
Q 3191 2616 2906 2266 
Q 2828 2175 2409 1742 
Q 1991 1309 1228 531 
z
" transform="scale(0.015625)"/>
       </defs>
       <use xlink:href="#DejaVuSans-32"/>
       <use xlink:href="#DejaVuSans-30" x="63.623047"/>
       <use xlink:href="#DejaVuSans-30" x="127.246094"/>
      </g>
     </g>
    </g>
    <g id="xtick_3">
     <g id="line2d_3">
      <path d="M 366.462736 299.518125 
L 366.462736 22.318125 
" clip-path="url(#p4a20d904c5)" style="fill: none; stroke: #ffffff; stroke-width: 0.8; stroke-linecap: round"/>
     </g>
     <g id="text_3">
      <!-- 400 -->
      <g style="fill: #262626" transform="translate(356.918986 314.116563) scale(0.1 -0.1)">
       <defs>
        <path id="DejaVuSans-34" d="M 2419 4116 
L 825 1625 
L 2419 1625 
L 2419 4116 
z
M 2253 4666 
L 3047 4666 
L 3047 1625 
L 3713 1625 
L 3713 1100 
L 3047 1100 
L 3047 0 
L 2419 0 
L 2419 1100 
L 313 1100 
L 313 1709 
L 2253 4666 
z
" transform="scale(0.015625)"/>
       </defs>
       <use xlink:href="#DejaVuSans-34"/>
       <use xlink:href="#DejaVuSans-30" x="63.623047"/>
       <use xlink:href="#DejaVuSans-30" x="127.246094"/>
      </g>
     </g>
    </g>
    <g id="xtick_4">
     <g id="line2d_4">
      <path d="M 517.586686 299.518125 
L 517.586686 22.318125 
" clip-path="url(#p4a20d904c5)" style="fill: none; stroke: #ffffff; stroke-width: 0.8; stroke-linecap: round"/>
     </g>
     <g id="text_4">
      <!-- 600 -->
      <g style="fill: #262626" transform="translate(508.042936 314.116563) scale(0.1 -0.1)">
       <defs>
        <path id="DejaVuSans-36" d="M 2113 2584 
Q 1688 2584 1439 2293 
Q 1191 2003 1191 1497 
Q 1191 994 1439 701 
Q 1688 409 2113 409 
Q 2538 409 2786 701 
Q 3034 994 3034 1497 
Q 3034 2003 2786 2293 
Q 2538 2584 2113 2584 
z
M 3366 4563 
L 3366 3988 
Q 3128 4100 2886 4159 
Q 2644 4219 2406 4219 
Q 1781 4219 1451 3797 
Q 1122 3375 1075 2522 
Q 1259 2794 1537 2939 
Q 1816 3084 2150 3084 
Q 2853 3084 3261 2657 
Q 3669 2231 3669 1497 
Q 3669 778 3244 343 
Q 2819 -91 2113 -91 
Q 1303 -91 875 529 
Q 447 1150 447 2328 
Q 447 3434 972 4092 
Q 1497 4750 2381 4750 
Q 2619 4750 2861 4703 
Q 3103 4656 3366 4563 
z
" transform="scale(0.015625)"/>
       </defs>
       <use xlink:href="#DejaVuSans-36"/>
       <use xlink:href="#DejaVuSans-30" x="63.623047"/>
       <use xlink:href="#DejaVuSans-30" x="127.246094"/>
      </g>
     </g>
    </g>
    <g id="xtick_5">
     <g id="line2d_5">
      <path d="M 668.710637 299.518125 
L 668.710637 22.318125 
" clip-path="url(#p4a20d904c5)" style="fill: none; stroke: #ffffff; stroke-width: 0.8; stroke-linecap: round"/>
     </g>
     <g id="text_5">
      <!-- 800 -->
      <g style="fill: #262626" transform="translate(659.166887 314.116563) scale(0.1 -0.1)">
       <defs>
        <path id="DejaVuSans-38" d="M 2034 2216 
Q 1584 2216 1326 1975 
Q 1069 1734 1069 1313 
Q 1069 891 1326 650 
Q 1584 409 2034 409 
Q 2484 409 2743 651 
Q 3003 894 3003 1313 
Q 3003 1734 2745 1975 
Q 2488 2216 2034 2216 
z
M 1403 2484 
Q 997 2584 770 2862 
Q 544 3141 544 3541 
Q 544 4100 942 4425 
Q 1341 4750 2034 4750 
Q 2731 4750 3128 4425 
Q 3525 4100 3525 3541 
Q 3525 3141 3298 2862 
Q 3072 2584 2669 2484 
Q 3125 2378 3379 2068 
Q 3634 1759 3634 1313 
Q 3634 634 3220 271 
Q 2806 -91 2034 -91 
Q 1263 -91 848 271 
Q 434 634 434 1313 
Q 434 1759 690 2068 
Q 947 2378 1403 2484 
z
M 1172 3481 
Q 1172 3119 1398 2916 
Q 1625 2713 2034 2713 
Q 2441 2713 2670 2916 
Q 2900 3119 2900 3481 
Q 2900 3844 2670 4047 
Q 2441 4250 2034 4250 
Q 1625 4250 1398 4047 
Q 1172 3844 1172 3481 
z
" transform="scale(0.015625)"/>
       </defs>
       <use xlink:href="#DejaVuSans-38"/>
       <use xlink:href="#DejaVuSans-30" x="63.623047"/>
       <use xlink:href="#DejaVuSans-30" x="127.246094"/>
      </g>
     </g>
    </g>
    <g id="xtick_6">
     <g id="line2d_6">
      <path d="M 819.834587 299.518125 
L 819.834587 22.318125 
" clip-path="url(#p4a20d904c5)" style="fill: none; stroke: #ffffff; stroke-width: 0.8; stroke-linecap: round"/>
     </g>
     <g id="text_6">
      <!-- 1000 -->
      <g style="fill: #262626" transform="translate(807.109587 314.116563) scale(0.1 -0.1)">
       <defs>
        <path id="DejaVuSans-31" d="M 794 531 
L 1825 531 
L 1825 4091 
L 703 3866 
L 703 4441 
L 1819 4666 
L 2450 4666 
L 2450 531 
L 3481 531 
L 3481 0 
L 794 0 
L 794 531 
z
" transform="scale(0.015625)"/>
       </defs>
       <use xlink:href="#DejaVuSans-31"/>
       <use xlink:href="#DejaVuSans-30" x="63.623047"/>
       <use xlink:href="#DejaVuSans-30" x="127.246094"/>
       <use xlink:href="#DejaVuSans-30" x="190.869141"/>
      </g>
     </g>
    </g>
   </g>
   <g id="matplotlib.axis_2">
    <g id="ytick_1">
     <g id="line2d_7">
      <path d="M 26.925 288.632411 
L 863.925 288.632411 
" clip-path="url(#p4a20d904c5)" style="fill: none; stroke: #ffffff; stroke-width: 0.8; stroke-linecap: round"/>
     </g>
     <g id="text_7">
      <!-- 10 -->
      <g style="fill: #262626" transform="translate(7.2 292.431629) scale(0.1 -0.1)">
       <use xlink:href="#DejaVuSans-31"/>
       <use xlink:href="#DejaVuSans-30" x="63.623047"/>
      </g>
     </g>
    </g>
    <g id="ytick_2">
     <g id="line2d_8">
      <path d="M 26.925 254.346696 
L 863.925 254.346696 
" clip-path="url(#p4a20d904c5)" style="fill: none; stroke: #ffffff; stroke-width: 0.8; stroke-linecap: round"/>
     </g>
     <g id="text_8">
      <!-- 12 -->
      <g style="fill: #262626" transform="translate(7.2 258.145915) scale(0.1 -0.1)">
       <use xlink:href="#DejaVuSans-31"/>
       <use xlink:href="#DejaVuSans-32" x="63.623047"/>
      </g>
     </g>
    </g>
    <g id="ytick_3">
     <g id="line2d_9">
      <path d="M 26.925 220.060982 
L 863.925 220.060982 
" clip-path="url(#p4a20d904c5)" style="fill: none; stroke: #ffffff; stroke-width: 0.8; stroke-linecap: round"/>
     </g>
     <g id="text_9">
      <!-- 14 -->
      <g style="fill: #262626" transform="translate(7.2 223.860201) scale(0.1 -0.1)">
       <use xlink:href="#DejaVuSans-31"/>
       <use xlink:href="#DejaVuSans-34" x="63.623047"/>
      </g>
     </g>
    </g>
    <g id="ytick_4">
     <g id="line2d_10">
      <path d="M 26.925 185.775268 
L 863.925 185.775268 
" clip-path="url(#p4a20d904c5)" style="fill: none; stroke: #ffffff; stroke-width: 0.8; stroke-linecap: round"/>
     </g>
     <g id="text_10">
      <!-- 16 -->
      <g style="fill: #262626" transform="translate(7.2 189.574487) scale(0.1 -0.1)">
       <use xlink:href="#DejaVuSans-31"/>
       <use xlink:href="#DejaVuSans-36" x="63.623047"/>
      </g>
     </g>
    </g>
    <g id="ytick_5">
     <g id="line2d_11">
      <path d="M 26.925 151.489554 
L 863.925 151.489554 
" clip-path="url(#p4a20d904c5)" style="fill: none; stroke: #ffffff; stroke-width: 0.8; stroke-linecap: round"/>
     </g>
     <g id="text_11">
      <!-- 18 -->
      <g style="fill: #262626" transform="translate(7.2 155.288772) scale(0.1 -0.1)">
       <use xlink:href="#DejaVuSans-31"/>
       <use xlink:href="#DejaVuSans-38" x="63.623047"/>
      </g>
     </g>
    </g>
    <g id="ytick_6">
     <g id="line2d_12">
      <path d="M 26.925 117.203839 
L 863.925 117.203839 
" clip-path="url(#p4a20d904c5)" style="fill: none; stroke: #ffffff; stroke-width: 0.8; stroke-linecap: round"/>
     </g>
     <g id="text_12">
      <!-- 20 -->
      <g style="fill: #262626" transform="translate(7.2 121.003058) scale(0.1 -0.1)">
       <use xlink:href="#DejaVuSans-32"/>
       <use xlink:href="#DejaVuSans-30" x="63.623047"/>
      </g>
     </g>
    </g>
    <g id="ytick_7">
     <g id="line2d_13">
      <path d="M 26.925 82.918125 
L 863.925 82.918125 
" clip-path="url(#p4a20d904c5)" style="fill: none; stroke: #ffffff; stroke-width: 0.8; stroke-linecap: round"/>
     </g>
     <g id="text_13">
      <!-- 22 -->
      <g style="fill: #262626" transform="translate(7.2 86.717344) scale(0.1 -0.1)">
       <use xlink:href="#DejaVuSans-32"/>
       <use xlink:href="#DejaVuSans-32" x="63.623047"/>
      </g>
     </g>
    </g>
    <g id="ytick_8">
     <g id="line2d_14">
      <path d="M 26.925 48.632411 
L 863.925 48.632411 
" clip-path="url(#p4a20d904c5)" style="fill: none; stroke: #ffffff; stroke-width: 0.8; stroke-linecap: round"/>
     </g>
     <g id="text_14">
      <!-- 24 -->
      <g style="fill: #262626" transform="translate(7.2 52.431629) scale(0.1 -0.1)">
       <use xlink:href="#DejaVuSans-32"/>
       <use xlink:href="#DejaVuSans-34" x="63.623047"/>
      </g>
     </g>
    </g>
   </g>
   <g id="line2d_15">
    <path d="M 64.970455 257.775268 
L 65.726074 264.632411 
L 67.237314 274.918125 
L 67.992934 278.346696 
L 68.748553 283.489554 
L 69.504173 286.918125 
L 70.259793 278.346696 
L 72.526652 184.060982 
L 73.282272 160.060982 
L 74.037892 141.203839 
L 74.793511 130.918125 
L 75.549131 124.060982 
L 76.304751 125.775268 
L 77.060371 134.346696 
L 77.81599 153.203839 
L 79.32723 208.060982 
L 80.08285 223.489554 
L 80.838469 233.775268 
L 81.594089 242.346696 
L 82.349709 249.203839 
L 83.105329 252.632411 
L 83.860948 259.489554 
L 84.616568 268.060982 
L 86.127808 274.918125 
L 87.639047 285.203839 
L 88.394667 274.918125 
L 90.661526 180.632411 
L 91.417146 156.632411 
L 92.172766 139.489554 
L 92.928385 129.203839 
L 93.684005 122.346696 
L 94.439625 124.060982 
L 95.195245 132.632411 
L 95.950864 149.775268 
L 96.706484 180.632411 
L 97.462104 206.346696 
L 98.217724 221.775268 
L 100.484583 247.489554 
L 101.240203 250.918125 
L 102.751442 264.632411 
L 103.507062 269.775268 
L 105.018301 276.632411 
L 105.773921 281.775268 
L 106.529541 271.489554 
L 108.04078 206.346696 
L 109.55202 154.918125 
L 110.30764 137.775268 
L 111.063259 127.489554 
L 111.818879 120.632411 
L 112.574499 122.346696 
L 113.330119 129.203839 
L 114.085738 148.060982 
L 114.841358 178.918125 
L 115.596978 204.632411 
L 116.352598 218.346696 
L 117.108217 228.632411 
L 117.863837 237.203839 
L 118.619457 244.060982 
L 119.375077 249.203839 
L 120.886316 262.918125 
L 122.397556 269.775268 
L 123.153175 274.918125 
L 123.908795 278.346696 
L 124.664415 266.346696 
L 126.175655 201.203839 
L 127.686894 149.775268 
L 128.442514 132.632411 
L 129.198134 122.346696 
L 129.953753 115.489554 
L 130.709373 118.918125 
L 131.464993 125.775268 
L 132.220613 144.632411 
L 133.731852 199.489554 
L 134.487472 214.918125 
L 135.243092 225.203839 
L 136.754331 242.346696 
L 137.509951 244.060982 
L 139.02119 257.775268 
L 139.77681 261.203839 
L 140.53243 266.346696 
L 141.28805 269.775268 
L 142.043669 274.918125 
L 142.799289 262.918125 
L 145.066148 168.632411 
L 145.821768 146.346696 
L 146.577388 129.203839 
L 147.333008 118.918125 
L 148.088627 112.060982 
L 148.844247 113.775268 
L 149.599867 122.346696 
L 150.355487 141.203839 
L 151.866726 197.775268 
L 152.622346 213.203839 
L 153.377966 223.489554 
L 154.133585 232.060982 
L 154.889205 238.918125 
L 155.644825 244.060982 
L 157.156064 257.775268 
L 159.422924 268.060982 
L 160.178543 273.203839 
L 160.934163 261.203839 
L 163.201022 168.632411 
L 163.956642 146.346696 
L 164.712262 129.203839 
L 165.467882 118.918125 
L 166.223501 112.060982 
L 166.979121 113.775268 
L 167.734741 122.346696 
L 168.490361 139.489554 
L 170.0016 197.775268 
L 170.75722 213.203839 
L 171.51284 223.489554 
L 172.268459 232.060982 
L 173.024079 238.918125 
L 174.535319 249.203839 
L 175.290938 256.060982 
L 176.046558 261.203839 
L 177.557798 268.060982 
L 178.313417 273.203839 
L 179.069037 259.489554 
L 181.335896 166.918125 
L 182.091516 146.346696 
L 182.847136 129.203839 
L 183.602756 117.203839 
L 184.358375 112.060982 
L 185.113995 113.775268 
L 185.869615 120.632411 
L 186.625235 139.489554 
L 187.380854 170.346696 
L 188.136474 196.060982 
L 188.892094 213.203839 
L 189.647714 223.489554 
L 190.403333 232.060982 
L 191.158953 238.918125 
L 191.914573 244.060982 
L 193.425812 257.775268 
L 195.692672 268.060982 
L 196.448292 273.203839 
L 197.203911 259.489554 
L 198.715151 196.060982 
L 199.470771 166.918125 
L 200.22639 144.632411 
L 200.98201 127.489554 
L 201.73763 115.489554 
L 202.49325 110.346696 
L 203.248869 112.060982 
L 204.004489 118.918125 
L 204.760109 137.775268 
L 206.271348 196.060982 
L 207.782588 221.775268 
L 209.293827 238.918125 
L 210.049447 242.346696 
L 211.560687 256.060982 
L 212.316306 259.489554 
L 213.071926 264.632411 
L 214.583166 271.489554 
L 215.338785 257.775268 
L 216.850025 192.632411 
L 218.361264 141.203839 
L 219.116884 124.060982 
L 219.872504 113.775268 
L 220.628124 106.918125 
L 221.383743 108.632411 
L 222.139363 115.489554 
L 222.894983 134.346696 
L 224.406222 192.632411 
L 225.161842 209.775268 
L 225.917462 220.060982 
L 226.673082 228.632411 
L 229.695561 256.060982 
L 230.45118 259.489554 
L 231.2068 264.632411 
L 231.96242 268.060982 
L 232.71804 269.775268 
L 233.473659 256.060982 
L 235.740519 161.775268 
L 236.496138 139.489554 
L 237.251758 122.346696 
L 238.007378 110.346696 
L 238.762998 105.203839 
L 239.518617 106.918125 
L 240.274237 113.775268 
L 241.029857 130.918125 
L 241.785477 163.489554 
L 242.541096 190.918125 
L 243.296716 206.346696 
L 244.052336 216.632411 
L 245.563575 233.775268 
L 246.319195 238.918125 
L 247.074815 245.775268 
L 248.586054 256.060982 
L 249.341674 259.489554 
L 250.097294 264.632411 
L 250.852914 266.346696 
L 251.608533 250.918125 
L 253.875393 156.632411 
L 254.631012 136.060982 
L 255.386632 118.918125 
L 256.142252 106.918125 
L 256.897872 101.775268 
L 257.653491 103.489554 
L 258.409111 110.346696 
L 259.164731 129.203839 
L 260.67597 187.489554 
L 262.18721 213.203839 
L 263.698449 230.346696 
L 264.454069 233.775268 
L 265.209689 242.346696 
L 266.720929 252.632411 
L 268.987788 262.918125 
L 269.743408 247.489554 
L 272.010267 153.203839 
L 272.765887 132.632411 
L 273.521506 117.203839 
L 274.277126 105.203839 
L 275.032746 100.060982 
L 275.788366 101.775268 
L 276.543985 108.632411 
L 277.299605 125.775268 
L 278.810845 184.060982 
L 279.566464 199.489554 
L 280.322084 209.775268 
L 281.833324 226.918125 
L 282.588943 232.060982 
L 283.344563 238.918125 
L 285.611422 254.346696 
L 287.122662 261.203839 
L 287.878282 244.060982 
L 290.145141 149.775268 
L 291.65638 113.775268 
L 292.412 101.775268 
L 293.16762 96.632411 
L 293.92324 98.346696 
L 294.678859 105.203839 
L 295.434479 122.346696 
L 296.945719 180.632411 
L 297.701338 196.060982 
L 298.456958 208.060982 
L 299.968198 225.203839 
L 300.723817 230.346696 
L 301.479437 238.918125 
L 302.235057 242.346696 
L 302.990677 247.489554 
L 303.746296 250.918125 
L 304.501916 256.060982 
L 305.257536 257.775268 
L 306.013156 242.346696 
L 307.524395 175.489554 
L 308.280015 148.060982 
L 309.035635 127.489554 
L 309.791254 110.346696 
L 310.546874 98.346696 
L 311.302494 94.918125 
L 312.058114 96.632411 
L 312.813733 103.489554 
L 313.569353 120.632411 
L 315.080593 178.918125 
L 315.836212 194.346696 
L 316.591832 206.346696 
L 318.103072 223.489554 
L 318.858691 226.918125 
L 319.614311 235.489554 
L 320.369931 240.632411 
L 321.125551 244.060982 
L 321.88117 249.203839 
L 323.39241 256.060982 
L 324.14803 238.918125 
L 325.659269 173.775268 
L 326.414889 146.346696 
L 327.170509 124.060982 
L 327.926128 108.632411 
L 328.681748 96.632411 
L 329.437368 93.203839 
L 330.192988 94.918125 
L 330.948607 101.775268 
L 331.704227 118.918125 
L 333.215467 177.203839 
L 333.971086 192.632411 
L 334.726706 204.632411 
L 336.237946 221.775268 
L 336.993565 225.203839 
L 337.749185 233.775268 
L 338.504805 237.203839 
L 340.016045 247.489554 
L 340.771664 250.918125 
L 341.527284 252.632411 
L 342.282904 235.489554 
L 343.794143 170.346696 
L 345.305383 122.346696 
L 346.061003 106.918125 
L 346.816622 96.632411 
L 347.572242 91.489554 
L 348.327862 93.203839 
L 349.083482 101.775268 
L 349.839101 118.918125 
L 351.350341 175.489554 
L 352.105961 190.918125 
L 352.86158 202.918125 
L 354.37282 220.060982 
L 355.12844 223.489554 
L 355.884059 232.060982 
L 356.639679 235.489554 
L 357.395299 240.632411 
L 358.150919 244.060982 
L 358.906538 249.203839 
L 359.662158 250.918125 
L 360.417778 233.775268 
L 361.929017 170.346696 
L 362.684637 141.203839 
L 364.195877 105.203839 
L 364.951496 94.918125 
L 365.707116 89.775268 
L 366.462736 93.203839 
L 367.218356 98.346696 
L 367.973975 115.489554 
L 369.485215 173.775268 
L 370.240835 190.918125 
L 371.752074 211.489554 
L 372.507694 220.060982 
L 373.263314 223.489554 
L 374.018933 232.060982 
L 374.774553 235.489554 
L 375.530173 240.632411 
L 376.285793 244.060982 
L 377.041412 249.203839 
L 377.797032 252.632411 
L 378.552652 233.775268 
L 380.063891 166.918125 
L 380.819511 139.489554 
L 381.575131 120.632411 
L 382.330751 105.203839 
L 383.08637 93.203839 
L 383.84199 88.060982 
L 384.59761 89.775268 
L 385.35323 96.632411 
L 386.108849 113.775268 
L 387.620089 173.775268 
L 388.375709 189.203839 
L 389.886948 211.489554 
L 392.153807 232.060982 
L 392.909427 235.489554 
L 393.665047 242.346696 
L 395.931906 252.632411 
L 396.687526 232.060982 
L 398.954385 137.775268 
L 399.710005 118.918125 
L 400.465625 103.489554 
L 401.221244 93.203839 
L 401.976864 88.060982 
L 402.732484 88.060982 
L 403.488104 96.632411 
L 404.243723 112.060982 
L 404.999343 144.632411 
L 405.754963 172.060982 
L 406.510583 189.203839 
L 407.266202 201.203839 
L 408.777442 218.346696 
L 410.288682 232.060982 
L 411.044301 235.489554 
L 411.799921 240.632411 
L 412.555541 244.060982 
L 413.311161 249.203839 
L 414.06678 250.918125 
L 414.8224 230.346696 
L 416.33364 163.489554 
L 417.089259 136.060982 
L 417.844879 117.203839 
L 418.600499 101.775268 
L 419.356119 89.775268 
L 420.111738 86.346696 
L 420.867358 88.060982 
L 421.622978 94.918125 
L 422.378598 112.060982 
L 423.889837 170.346696 
L 424.645457 187.489554 
L 426.156696 208.060982 
L 427.667936 221.775268 
L 428.423556 226.918125 
L 429.179175 233.775268 
L 429.934795 238.918125 
L 432.201654 249.203839 
L 432.957274 226.918125 
L 434.468514 161.775268 
L 435.224133 132.632411 
L 435.979753 113.775268 
L 436.735373 98.346696 
L 437.490993 88.060982 
L 438.246612 82.918125 
L 439.002232 84.632411 
L 439.757852 93.203839 
L 440.513472 108.632411 
L 442.024711 166.918125 
L 442.780331 184.060982 
L 443.535951 196.060982 
L 445.04719 213.203839 
L 445.80281 218.346696 
L 446.55843 225.203839 
L 448.825289 240.632411 
L 449.580909 242.346696 
L 450.336528 245.775268 
L 451.092148 223.489554 
L 452.603388 156.632411 
L 453.359007 129.203839 
L 454.114627 110.346696 
L 454.870247 94.918125 
L 455.625867 84.632411 
L 456.381486 79.489554 
L 457.137106 81.203839 
L 457.892726 89.775268 
L 458.648346 105.203839 
L 460.159585 165.203839 
L 460.915205 180.632411 
L 461.670825 192.632411 
L 462.426444 201.203839 
L 463.182064 208.060982 
L 463.937684 213.203839 
L 464.693304 221.775268 
L 465.448923 225.203839 
L 466.960163 235.489554 
L 468.471402 242.346696 
L 469.227022 218.346696 
L 470.738262 153.203839 
L 471.493881 127.489554 
L 472.249501 106.918125 
L 473.005121 91.489554 
L 473.760741 81.203839 
L 474.51636 77.775268 
L 475.27198 79.489554 
L 476.0276 88.060982 
L 476.78322 105.203839 
L 478.294459 163.489554 
L 479.050079 178.918125 
L 480.561318 199.489554 
L 481.316938 206.346696 
L 482.072558 211.489554 
L 482.828178 218.346696 
L 483.583798 223.489554 
L 484.339417 226.918125 
L 485.095037 232.060982 
L 486.606277 238.918125 
L 487.361896 214.918125 
L 488.873136 149.775268 
L 489.628756 124.060982 
L 490.384375 105.203839 
L 491.139995 89.775268 
L 491.895615 81.203839 
L 492.651235 77.775268 
L 493.406854 79.489554 
L 494.162474 86.346696 
L 494.918094 103.489554 
L 496.429333 160.060982 
L 497.184953 175.489554 
L 497.940573 187.489554 
L 498.696193 196.060982 
L 500.207432 209.775268 
L 500.963052 214.918125 
L 501.718672 218.346696 
L 502.474291 225.203839 
L 503.985531 232.060982 
L 504.741151 233.775268 
L 505.49677 209.775268 
L 507.00801 148.060982 
L 507.76363 124.060982 
L 508.519249 105.203839 
L 509.274869 89.775268 
L 510.030489 81.203839 
L 510.786109 77.775268 
L 511.541728 77.775268 
L 512.297348 86.346696 
L 513.052968 101.775268 
L 514.564207 158.346696 
L 515.319827 175.489554 
L 516.075447 185.775268 
L 516.831067 194.346696 
L 518.342306 208.060982 
L 520.609165 223.489554 
L 522.876025 233.775268 
L 523.631644 209.775268 
L 525.142884 148.060982 
L 525.898504 124.060982 
L 526.654123 105.203839 
L 527.409743 89.775268 
L 528.165363 81.203839 
L 528.920983 77.775268 
L 529.676602 77.775268 
L 530.432222 86.346696 
L 531.187842 101.775268 
L 532.699081 158.346696 
L 533.454701 173.775268 
L 534.210321 185.775268 
L 534.965941 194.346696 
L 536.47718 208.060982 
L 537.2328 213.203839 
L 537.98842 216.632411 
L 538.744039 223.489554 
L 540.255279 230.346696 
L 541.010899 232.060982 
L 541.766518 208.060982 
L 543.277758 146.346696 
L 544.033378 122.346696 
L 544.788997 103.489554 
L 545.544617 88.060982 
L 546.300237 79.489554 
L 547.055857 76.060982 
L 547.811476 76.060982 
L 548.567096 84.632411 
L 549.322716 101.775268 
L 550.833955 156.632411 
L 551.589575 173.775268 
L 552.345195 184.060982 
L 553.100815 192.632411 
L 554.612054 206.346696 
L 556.878914 221.775268 
L 558.390153 228.632411 
L 559.145773 230.346696 
L 559.901393 206.346696 
L 561.412632 144.632411 
L 562.168252 120.632411 
L 562.923872 101.775268 
L 563.679491 86.346696 
L 564.435111 77.775268 
L 565.190731 74.346696 
L 565.946351 76.060982 
L 566.70197 84.632411 
L 567.45759 100.060982 
L 568.96883 156.632411 
L 569.724449 172.060982 
L 570.480069 182.346696 
L 571.235689 190.918125 
L 572.746928 204.632411 
L 574.258168 214.918125 
L 575.013788 221.775268 
L 576.525027 228.632411 
L 577.280647 230.346696 
L 578.036267 204.632411 
L 579.547506 144.632411 
L 580.303126 118.918125 
L 581.058746 100.060982 
L 581.814365 84.632411 
L 582.569985 76.060982 
L 583.325605 72.632411 
L 584.081225 72.632411 
L 584.836844 81.203839 
L 585.592464 98.346696 
L 586.348084 124.060982 
L 587.103704 154.918125 
L 587.859323 170.346696 
L 588.614943 182.346696 
L 589.370563 190.918125 
L 590.126183 197.775268 
L 590.881802 202.918125 
L 591.637422 209.775268 
L 593.904281 225.203839 
L 594.659901 226.918125 
L 595.415521 230.346696 
L 596.171141 204.632411 
L 597.68238 141.203839 
L 598.438 115.489554 
L 599.19362 96.632411 
L 599.949239 82.918125 
L 600.704859 74.346696 
L 601.460479 70.918125 
L 602.216099 70.918125 
L 602.971718 79.489554 
L 603.727338 94.918125 
L 605.238578 153.203839 
L 605.994197 168.632411 
L 606.749817 180.632411 
L 607.505437 189.203839 
L 608.261057 196.060982 
L 609.016676 201.203839 
L 610.527916 214.918125 
L 612.039155 225.203839 
L 613.550395 228.632411 
L 614.306015 201.203839 
L 615.817254 137.775268 
L 616.572874 113.775268 
L 617.328494 94.918125 
L 618.084113 81.203839 
L 618.839733 72.632411 
L 619.595353 67.489554 
L 620.350973 67.489554 
L 621.106592 77.775268 
L 621.862212 93.203839 
L 623.373452 149.775268 
L 624.129071 166.918125 
L 624.884691 178.918125 
L 625.640311 187.489554 
L 627.90717 208.060982 
L 630.17403 223.489554 
L 630.929649 226.918125 
L 631.685269 226.918125 
L 632.440889 199.489554 
L 633.952128 136.060982 
L 634.707748 110.346696 
L 635.463368 91.489554 
L 636.218988 77.775268 
L 636.974607 69.203839 
L 637.730227 64.060982 
L 638.485847 64.060982 
L 639.241467 74.346696 
L 639.997086 89.775268 
L 641.508326 148.060982 
L 642.263946 165.203839 
L 643.019565 177.203839 
L 643.775185 185.775268 
L 646.797664 213.203839 
L 648.308904 223.489554 
L 649.064523 225.203839 
L 649.820143 225.203839 
L 650.575763 197.775268 
L 652.087002 132.632411 
L 652.842622 108.632411 
L 653.598242 89.775268 
L 654.353862 76.060982 
L 655.109481 67.489554 
L 655.865101 62.346696 
L 656.620721 64.060982 
L 657.376341 72.632411 
L 658.13196 89.775268 
L 658.88758 115.489554 
L 659.6432 146.346696 
L 660.39882 163.489554 
L 661.154439 175.489554 
L 661.910059 184.060982 
L 663.421299 197.775268 
L 664.176918 206.346696 
L 664.932538 209.775268 
L 665.688158 216.632411 
L 666.443778 221.775268 
L 667.199397 225.203839 
L 667.955017 225.203839 
L 669.466257 163.489554 
L 670.221876 130.918125 
L 670.977496 105.203839 
L 671.733116 86.346696 
L 672.488736 72.632411 
L 673.244355 64.060982 
L 673.999975 60.632411 
L 673.999975 60.632411 
" clip-path="url(#p4a20d904c5)" style="fill: none; stroke: #1e90ff; stroke-width: 1.5; stroke-linecap: round"/>
   </g>
   <g id="line2d_16">
    <path d="M 674.755595 62.351081 
L 675.511215 70.926894 
L 676.266834 88.074135 
L 677.022454 113.792805 
L 677.778074 144.654333 
L 678.533694 161.801574 
L 679.289313 173.805958 
L 680.044933 182.381771 
L 681.556173 196.104826 
L 682.311792 204.680639 
L 683.067412 208.113594 
L 683.823032 214.975122 
L 684.578652 220.122363 
L 685.334271 223.555319 
L 686.089891 223.559703 
L 687.601131 161.854186 
L 688.35675 129.287142 
L 689.11237 103.577241 
L 689.86799 84.724482 
L 690.62361 71.014581 
L 691.379229 62.447537 
L 692.134849 59.02335 
L 692.890469 60.746404 
L 693.646089 69.326601 
L 694.401708 86.478227 
L 695.157328 112.201282 
L 695.912948 143.067193 
L 696.668568 160.218819 
L 697.424188 172.227588 
L 698.179807 180.807785 
L 699.691047 194.539608 
L 700.446667 203.119806 
L 701.202286 206.557146 
L 701.957906 213.423057 
L 702.713526 218.574683 
L 703.469146 222.012023 
L 704.224765 222.020792 
L 705.736005 160.324044 
L 706.491625 127.761384 
L 707.247244 102.055867 
L 708.002864 83.207493 
L 708.758484 69.501976 
L 709.514104 60.939316 
L 710.269723 57.519513 
L 711.025343 59.246952 
L 711.780963 67.831534 
L 712.536583 84.987544 
L 713.292202 110.714983 
L 714.047822 141.585279 
L 714.803442 158.741289 
L 715.559062 170.754442 
L 716.314681 179.339024 
L 717.825921 193.079616 
L 718.581541 201.664197 
L 719.33716 205.105922 
L 720.09278 211.976218 
L 720.8484 217.132228 
L 721.60402 220.573953 
L 722.359639 220.587106 
L 723.870879 158.899126 
L 724.626499 126.340851 
L 725.382118 100.639718 
L 726.137738 81.795728 
L 726.893358 68.094596 
L 727.648978 59.53632 
L 728.404597 56.120902 
L 729.160217 57.852725 
L 729.915837 66.441691 
L 730.671457 83.602086 
L 731.427076 109.333909 
L 732.182696 140.208589 
L 732.938316 157.368984 
L 733.693936 169.386521 
L 734.449555 177.975487 
L 735.960795 191.724848 
L 736.716415 200.313814 
L 737.472034 203.759923 
L 738.227654 210.634603 
L 738.983274 215.794997 
L 739.738894 219.241106 
L 740.494513 219.258644 
L 742.005753 157.579433 
L 742.761373 125.025542 
L 743.516992 99.328794 
L 744.272612 80.489188 
L 745.028232 66.79244 
L 745.783852 58.238549 
L 746.539471 54.827515 
L 747.295091 56.563722 
L 748.050711 65.157073 
L 748.806331 82.321852 
L 749.56195 108.058059 
L 750.31757 138.937124 
L 751.07319 156.101903 
L 751.82881 168.123825 
L 752.584429 176.717175 
L 754.095669 190.475304 
L 754.851289 199.068655 
L 755.606908 202.519148 
L 756.362528 209.398213 
L 757.118148 214.562992 
L 757.873768 218.013485 
L 758.629387 218.035407 
L 760.140627 156.364965 
L 760.896247 123.815458 
L 761.651866 98.123094 
L 762.407486 79.287873 
L 763.163106 65.595509 
L 763.918726 57.046002 
L 764.674345 53.639353 
L 765.429965 55.379945 
L 766.185585 63.977679 
L 766.941205 81.146843 
L 767.696825 106.887434 
L 768.452444 137.770883 
L 769.208064 154.940047 
L 769.963684 166.966353 
L 770.719304 175.564088 
L 772.230543 189.330986 
L 772.986163 197.928721 
L 773.741783 201.383598 
L 774.497402 208.267047 
L 775.253022 213.43621 
L 776.008642 216.891088 
L 776.764262 216.917394 
L 778.275501 155.255721 
L 779.031121 122.710599 
L 779.786741 97.022619 
L 780.54236 78.191782 
L 781.29798 64.503803 
L 782.0536 55.95868 
L 782.80922 52.556415 
L 783.564839 54.301391 
L 784.320459 62.90351 
L 785.076079 80.077058 
L 785.831699 105.822034 
L 786.587318 136.709868 
L 787.342938 153.883415 
L 788.098558 165.914106 
L 788.854178 174.516225 
L 790.365417 188.291892 
L 791.121037 196.894011 
L 791.876657 200.353273 
L 792.632276 207.241106 
L 793.387896 212.414654 
L 794.143516 215.873916 
L 794.899136 215.904607 
L 796.410375 154.251702 
L 797.165995 121.710964 
L 797.921615 96.027369 
L 798.677234 77.200916 
L 799.432854 63.517321 
L 800.188474 54.976583 
L 800.944094 51.578702 
L 801.699713 53.328063 
L 802.455333 61.934566 
L 803.210953 79.112498 
L 803.966573 104.861859 
L 804.722192 135.754077 
L 805.477812 152.932009 
L 806.233432 164.967084 
L 806.989052 173.573587 
L 808.500291 187.358023 
L 809.255911 195.964526 
L 810.011531 199.428172 
L 810.76715 206.32039 
L 811.52277 211.498322 
L 812.27839 214.961969 
L 813.03401 214.997044 
L 814.545249 153.352908 
L 815.300869 120.816554 
L 816.056489 95.137343 
L 816.812108 76.315275 
L 817.567728 62.636064 
L 818.323348 54.099711 
L 819.078968 50.706214 
L 819.834587 52.459959 
L 820.590207 61.070847 
L 821.345827 78.253163 
L 822.101447 104.006908 
L 822.857066 134.90351 
L 823.612686 152.085827 
L 824.368306 164.125286 
L 825.123926 172.736174 
L 825.879545 179.632776 
L 825.879545 179.632776 
" clip-path="url(#p4a20d904c5)" style="fill: none; stroke: #fb8500; stroke-width: 1.5; stroke-linecap: round"/>
   </g>
   <g id="line2d_17">
    <path d="M 674.755595 60.632411 
L 675.511215 69.203839 
L 676.266834 86.346696 
L 677.778074 144.632411 
L 678.533694 161.775268 
L 680.044933 184.060982 
L 682.311792 204.632411 
L 683.067412 209.775268 
L 683.823032 216.632411 
L 684.578652 221.775268 
L 685.334271 225.203839 
L 686.089891 225.203839 
L 686.845511 196.060982 
L 688.35675 129.203839 
L 689.86799 84.632411 
L 690.62361 70.918125 
L 691.379229 62.346696 
L 692.134849 58.918125 
L 692.890469 58.918125 
L 693.646089 67.489554 
L 694.401708 84.632411 
L 695.912948 142.918125 
L 696.668568 161.775268 
L 697.424188 173.775268 
L 698.935427 190.918125 
L 700.446667 204.632411 
L 702.713526 220.060982 
L 703.469146 223.489554 
L 704.224765 223.489554 
L 707.247244 101.775268 
L 708.002864 82.918125 
L 708.758484 69.203839 
L 709.514104 58.918125 
L 710.269723 55.489554 
L 711.025343 55.489554 
L 711.780963 64.060982 
L 712.536583 81.203839 
L 714.047822 139.489554 
L 714.803442 158.346696 
L 716.314681 180.632411 
L 718.581541 201.203839 
L 719.33716 206.346696 
L 720.09278 213.203839 
L 720.8484 216.632411 
L 721.60402 221.775268 
L 722.359639 218.346696 
L 723.870879 156.632411 
L 724.626499 122.346696 
L 725.382118 98.346696 
L 726.137738 79.489554 
L 726.893358 65.775268 
L 727.648978 55.489554 
L 728.404597 52.060982 
L 729.160217 53.775268 
L 729.915837 62.346696 
L 730.671457 79.489554 
L 732.182696 137.775268 
L 732.938316 156.632411 
L 734.449555 178.918125 
L 735.205175 185.775268 
L 735.960795 190.918125 
L 736.716415 199.489554 
L 738.983274 214.918125 
L 739.738894 218.346696 
L 740.494513 216.632411 
L 742.005753 151.489554 
L 742.761373 118.918125 
L 743.516992 94.918125 
L 744.272612 76.060982 
L 745.028232 60.632411 
L 745.783852 52.060982 
L 746.539471 48.632411 
L 747.295091 50.346696 
L 748.050711 58.918125 
L 748.806331 76.060982 
L 750.31757 134.346696 
L 751.07319 153.203839 
L 751.82881 165.203839 
L 753.340049 182.346696 
L 754.851289 196.060982 
L 757.118148 211.489554 
L 757.873768 214.918125 
L 758.629387 213.203839 
L 760.140627 148.060982 
L 760.896247 113.775268 
L 761.651866 89.775268 
L 762.407486 70.918125 
L 763.163106 57.203839 
L 763.918726 48.632411 
L 764.674345 45.203839 
L 765.429965 46.918125 
L 766.185585 55.489554 
L 766.941205 72.632411 
L 768.452444 130.918125 
L 769.208064 149.775268 
L 770.719304 172.060982 
L 773.741783 199.489554 
L 775.253022 209.775268 
L 776.008642 213.203839 
L 776.764262 211.489554 
L 779.031121 112.060982 
L 779.786741 86.346696 
L 780.54236 67.489554 
L 781.29798 53.775268 
L 782.0536 45.203839 
L 782.80922 41.775268 
L 783.564839 43.489554 
L 784.320459 52.060982 
L 785.076079 69.203839 
L 785.831699 96.632411 
L 786.587318 129.203839 
L 787.342938 148.060982 
L 788.854178 170.346696 
L 791.121037 190.918125 
L 793.387896 206.346696 
L 794.143516 209.775268 
L 794.899136 208.060982 
L 797.921615 81.203839 
L 798.677234 62.346696 
L 799.432854 50.346696 
L 800.188474 41.775268 
L 800.944094 38.346696 
L 801.699713 40.060982 
L 802.455333 50.346696 
L 803.210953 67.489554 
L 804.722192 125.775268 
L 805.477812 144.632411 
L 806.989052 166.918125 
L 807.744671 173.775268 
L 808.500291 182.346696 
L 809.255911 189.203839 
L 810.011531 192.632411 
L 810.76715 197.775268 
L 811.52277 204.632411 
L 812.27839 208.060982 
L 813.03401 204.632411 
L 815.300869 103.489554 
L 816.056489 79.489554 
L 816.812108 60.632411 
L 817.567728 46.918125 
L 818.323348 38.346696 
L 819.078968 34.918125 
L 819.834587 36.632411 
L 820.590207 46.918125 
L 821.345827 64.060982 
L 822.857066 122.346696 
L 823.612686 141.203839 
L 824.368306 154.918125 
L 825.879545 172.060982 
L 825.879545 172.060982 
" clip-path="url(#p4a20d904c5)" style="fill: none; stroke: #023047; stroke-width: 1.5; stroke-linecap: round"/>
   </g>
   <g id="patch_3">
    <path d="M 26.925 299.518125 
L 26.925 22.318125 
" style="fill: none; stroke: #ffffff; stroke-width: 0.8; stroke-linejoin: miter; stroke-linecap: square"/>
   </g>
   <g id="patch_4">
    <path d="M 863.925 299.518125 
L 863.925 22.318125 
" style="fill: none; stroke: #ffffff; stroke-width: 0.8; stroke-linejoin: miter; stroke-linecap: square"/>
   </g>
   <g id="patch_5">
    <path d="M 26.925 299.518125 
L 863.925 299.518125 
" style="fill: none; stroke: #ffffff; stroke-width: 0.8; stroke-linejoin: miter; stroke-linecap: square"/>
   </g>
   <g id="patch_6">
    <path d="M 26.925 22.318125 
L 863.925 22.318125 
" style="fill: none; stroke: #ffffff; stroke-width: 0.8; stroke-linejoin: miter; stroke-linecap: square"/>
   </g>
   <g id="text_15">
    <!-- mean_absolute_error on the test set : 0.31 -->
    <g style="fill: #262626" transform="translate(301.190625 16.318125) scale(0.12 -0.12)">
     <defs>
      <path id="DejaVuSans-Bold-6d" d="M 3781 2919 
Q 3994 3244 4286 3414 
Q 4578 3584 4928 3584 
Q 5531 3584 5847 3212 
Q 6163 2841 6163 2131 
L 6163 0 
L 5038 0 
L 5038 1825 
Q 5041 1866 5042 1909 
Q 5044 1953 5044 2034 
Q 5044 2406 4934 2573 
Q 4825 2741 4581 2741 
Q 4263 2741 4089 2478 
Q 3916 2216 3909 1719 
L 3909 0 
L 2784 0 
L 2784 1825 
Q 2784 2406 2684 2573 
Q 2584 2741 2328 2741 
Q 2006 2741 1831 2477 
Q 1656 2213 1656 1722 
L 1656 0 
L 531 0 
L 531 3500 
L 1656 3500 
L 1656 2988 
Q 1863 3284 2130 3434 
Q 2397 3584 2719 3584 
Q 3081 3584 3359 3409 
Q 3638 3234 3781 2919 
z
" transform="scale(0.015625)"/>
      <path id="DejaVuSans-Bold-65" d="M 4031 1759 
L 4031 1441 
L 1416 1441 
Q 1456 1047 1700 850 
Q 1944 653 2381 653 
Q 2734 653 3104 758 
Q 3475 863 3866 1075 
L 3866 213 
Q 3469 63 3072 -14 
Q 2675 -91 2278 -91 
Q 1328 -91 801 392 
Q 275 875 275 1747 
Q 275 2603 792 3093 
Q 1309 3584 2216 3584 
Q 3041 3584 3536 3087 
Q 4031 2591 4031 1759 
z
M 2881 2131 
Q 2881 2450 2695 2645 
Q 2509 2841 2209 2841 
Q 1884 2841 1681 2658 
Q 1478 2475 1428 2131 
L 2881 2131 
z
" transform="scale(0.015625)"/>
      <path id="DejaVuSans-Bold-61" d="M 2106 1575 
Q 1756 1575 1579 1456 
Q 1403 1338 1403 1106 
Q 1403 894 1545 773 
Q 1688 653 1941 653 
Q 2256 653 2472 879 
Q 2688 1106 2688 1447 
L 2688 1575 
L 2106 1575 
z
M 3816 1997 
L 3816 0 
L 2688 0 
L 2688 519 
Q 2463 200 2181 54 
Q 1900 -91 1497 -91 
Q 953 -91 614 226 
Q 275 544 275 1050 
Q 275 1666 698 1953 
Q 1122 2241 2028 2241 
L 2688 2241 
L 2688 2328 
Q 2688 2594 2478 2717 
Q 2269 2841 1825 2841 
Q 1466 2841 1156 2769 
Q 847 2697 581 2553 
L 581 3406 
Q 941 3494 1303 3539 
Q 1666 3584 2028 3584 
Q 2975 3584 3395 3211 
Q 3816 2838 3816 1997 
z
" transform="scale(0.015625)"/>
      <path id="DejaVuSans-Bold-6e" d="M 4056 2131 
L 4056 0 
L 2931 0 
L 2931 347 
L 2931 1631 
Q 2931 2084 2911 2256 
Q 2891 2428 2841 2509 
Q 2775 2619 2662 2680 
Q 2550 2741 2406 2741 
Q 2056 2741 1856 2470 
Q 1656 2200 1656 1722 
L 1656 0 
L 538 0 
L 538 3500 
L 1656 3500 
L 1656 2988 
Q 1909 3294 2193 3439 
Q 2478 3584 2822 3584 
Q 3428 3584 3742 3212 
Q 4056 2841 4056 2131 
z
" transform="scale(0.015625)"/>
      <path id="DejaVuSans-Bold-5f" d="M 3200 -916 
L 3200 -1509 
L 0 -1509 
L 0 -916 
L 3200 -916 
z
" transform="scale(0.015625)"/>
      <path id="DejaVuSans-Bold-62" d="M 2400 722 
Q 2759 722 2948 984 
Q 3138 1247 3138 1747 
Q 3138 2247 2948 2509 
Q 2759 2772 2400 2772 
Q 2041 2772 1848 2508 
Q 1656 2244 1656 1747 
Q 1656 1250 1848 986 
Q 2041 722 2400 722 
z
M 1656 2988 
Q 1888 3294 2169 3439 
Q 2450 3584 2816 3584 
Q 3463 3584 3878 3070 
Q 4294 2556 4294 1747 
Q 4294 938 3878 423 
Q 3463 -91 2816 -91 
Q 2450 -91 2169 54 
Q 1888 200 1656 506 
L 1656 0 
L 538 0 
L 538 4863 
L 1656 4863 
L 1656 2988 
z
" transform="scale(0.015625)"/>
      <path id="DejaVuSans-Bold-73" d="M 3272 3391 
L 3272 2541 
Q 2913 2691 2578 2766 
Q 2244 2841 1947 2841 
Q 1628 2841 1473 2761 
Q 1319 2681 1319 2516 
Q 1319 2381 1436 2309 
Q 1553 2238 1856 2203 
L 2053 2175 
Q 2913 2066 3209 1816 
Q 3506 1566 3506 1031 
Q 3506 472 3093 190 
Q 2681 -91 1863 -91 
Q 1516 -91 1145 -36 
Q 775 19 384 128 
L 384 978 
Q 719 816 1070 734 
Q 1422 653 1784 653 
Q 2113 653 2278 743 
Q 2444 834 2444 1013 
Q 2444 1163 2330 1236 
Q 2216 1309 1875 1350 
L 1678 1375 
Q 931 1469 631 1722 
Q 331 1975 331 2491 
Q 331 3047 712 3315 
Q 1094 3584 1881 3584 
Q 2191 3584 2531 3537 
Q 2872 3491 3272 3391 
z
" transform="scale(0.015625)"/>
      <path id="DejaVuSans-Bold-6f" d="M 2203 2784 
Q 1831 2784 1636 2517 
Q 1441 2250 1441 1747 
Q 1441 1244 1636 976 
Q 1831 709 2203 709 
Q 2569 709 2762 976 
Q 2956 1244 2956 1747 
Q 2956 2250 2762 2517 
Q 2569 2784 2203 2784 
z
M 2203 3584 
Q 3106 3584 3614 3096 
Q 4122 2609 4122 1747 
Q 4122 884 3614 396 
Q 3106 -91 2203 -91 
Q 1297 -91 786 396 
Q 275 884 275 1747 
Q 275 2609 786 3096 
Q 1297 3584 2203 3584 
z
" transform="scale(0.015625)"/>
      <path id="DejaVuSans-Bold-6c" d="M 538 4863 
L 1656 4863 
L 1656 0 
L 538 0 
L 538 4863 
z
" transform="scale(0.015625)"/>
      <path id="DejaVuSans-Bold-75" d="M 500 1363 
L 500 3500 
L 1625 3500 
L 1625 3150 
Q 1625 2866 1622 2436 
Q 1619 2006 1619 1863 
Q 1619 1441 1641 1255 
Q 1663 1069 1716 984 
Q 1784 875 1895 815 
Q 2006 756 2150 756 
Q 2500 756 2700 1025 
Q 2900 1294 2900 1772 
L 2900 3500 
L 4019 3500 
L 4019 0 
L 2900 0 
L 2900 506 
Q 2647 200 2364 54 
Q 2081 -91 1741 -91 
Q 1134 -91 817 281 
Q 500 653 500 1363 
z
" transform="scale(0.015625)"/>
      <path id="DejaVuSans-Bold-74" d="M 1759 4494 
L 1759 3500 
L 2913 3500 
L 2913 2700 
L 1759 2700 
L 1759 1216 
Q 1759 972 1856 886 
Q 1953 800 2241 800 
L 2816 800 
L 2816 0 
L 1856 0 
Q 1194 0 917 276 
Q 641 553 641 1216 
L 641 2700 
L 84 2700 
L 84 3500 
L 641 3500 
L 641 4494 
L 1759 4494 
z
" transform="scale(0.015625)"/>
      <path id="DejaVuSans-Bold-72" d="M 3138 2547 
Q 2991 2616 2845 2648 
Q 2700 2681 2553 2681 
Q 2122 2681 1889 2404 
Q 1656 2128 1656 1613 
L 1656 0 
L 538 0 
L 538 3500 
L 1656 3500 
L 1656 2925 
Q 1872 3269 2151 3426 
Q 2431 3584 2822 3584 
Q 2878 3584 2943 3579 
Q 3009 3575 3134 3559 
L 3138 2547 
z
" transform="scale(0.015625)"/>
      <path id="DejaVuSans-Bold-20" transform="scale(0.015625)"/>
      <path id="DejaVuSans-Bold-68" d="M 4056 2131 
L 4056 0 
L 2931 0 
L 2931 347 
L 2931 1625 
Q 2931 2084 2911 2256 
Q 2891 2428 2841 2509 
Q 2775 2619 2662 2680 
Q 2550 2741 2406 2741 
Q 2056 2741 1856 2470 
Q 1656 2200 1656 1722 
L 1656 0 
L 538 0 
L 538 4863 
L 1656 4863 
L 1656 2988 
Q 1909 3294 2193 3439 
Q 2478 3584 2822 3584 
Q 3428 3584 3742 3212 
Q 4056 2841 4056 2131 
z
" transform="scale(0.015625)"/>
      <path id="DejaVuSans-Bold-3a" d="M 716 3500 
L 1844 3500 
L 1844 2291 
L 716 2291 
L 716 3500 
z
M 716 1209 
L 1844 1209 
L 1844 0 
L 716 0 
L 716 1209 
z
" transform="scale(0.015625)"/>
      <path id="DejaVuSans-Bold-30" d="M 2944 2338 
Q 2944 3213 2780 3570 
Q 2616 3928 2228 3928 
Q 1841 3928 1675 3570 
Q 1509 3213 1509 2338 
Q 1509 1453 1675 1090 
Q 1841 728 2228 728 
Q 2613 728 2778 1090 
Q 2944 1453 2944 2338 
z
M 4147 2328 
Q 4147 1169 3647 539 
Q 3147 -91 2228 -91 
Q 1306 -91 806 539 
Q 306 1169 306 2328 
Q 306 3491 806 4120 
Q 1306 4750 2228 4750 
Q 3147 4750 3647 4120 
Q 4147 3491 4147 2328 
z
" transform="scale(0.015625)"/>
      <path id="DejaVuSans-Bold-2e" d="M 653 1209 
L 1778 1209 
L 1778 0 
L 653 0 
L 653 1209 
z
" transform="scale(0.015625)"/>
      <path id="DejaVuSans-Bold-33" d="M 2981 2516 
Q 3453 2394 3698 2092 
Q 3944 1791 3944 1325 
Q 3944 631 3412 270 
Q 2881 -91 1863 -91 
Q 1503 -91 1142 -33 
Q 781 25 428 141 
L 428 1069 
Q 766 900 1098 814 
Q 1431 728 1753 728 
Q 2231 728 2486 893 
Q 2741 1059 2741 1369 
Q 2741 1688 2480 1852 
Q 2219 2016 1709 2016 
L 1228 2016 
L 1228 2791 
L 1734 2791 
Q 2188 2791 2409 2933 
Q 2631 3075 2631 3366 
Q 2631 3634 2415 3781 
Q 2200 3928 1806 3928 
Q 1516 3928 1219 3862 
Q 922 3797 628 3669 
L 628 4550 
Q 984 4650 1334 4700 
Q 1684 4750 2022 4750 
Q 2931 4750 3382 4451 
Q 3834 4153 3834 3553 
Q 3834 3144 3618 2883 
Q 3403 2622 2981 2516 
z
" transform="scale(0.015625)"/>
      <path id="DejaVuSans-Bold-31" d="M 750 831 
L 1813 831 
L 1813 3847 
L 722 3622 
L 722 4441 
L 1806 4666 
L 2950 4666 
L 2950 831 
L 4013 831 
L 4013 0 
L 750 0 
L 750 831 
z
" transform="scale(0.015625)"/>
     </defs>
     <use xlink:href="#DejaVuSans-Bold-6d"/>
     <use xlink:href="#DejaVuSans-Bold-65" x="104.199219"/>
     <use xlink:href="#DejaVuSans-Bold-61" x="172.021484"/>
     <use xlink:href="#DejaVuSans-Bold-6e" x="239.501953"/>
     <use xlink:href="#DejaVuSans-Bold-5f" x="310.693359"/>
     <use xlink:href="#DejaVuSans-Bold-61" x="360.693359"/>
     <use xlink:href="#DejaVuSans-Bold-62" x="428.173828"/>
     <use xlink:href="#DejaVuSans-Bold-73" x="499.755859"/>
     <use xlink:href="#DejaVuSans-Bold-6f" x="559.277344"/>
     <use xlink:href="#DejaVuSans-Bold-6c" x="627.978516"/>
     <use xlink:href="#DejaVuSans-Bold-75" x="662.255859"/>
     <use xlink:href="#DejaVuSans-Bold-74" x="733.447266"/>
     <use xlink:href="#DejaVuSans-Bold-65" x="781.25"/>
     <use xlink:href="#DejaVuSans-Bold-5f" x="849.072266"/>
     <use xlink:href="#DejaVuSans-Bold-65" x="899.072266"/>
     <use xlink:href="#DejaVuSans-Bold-72" x="966.894531"/>
     <use xlink:href="#DejaVuSans-Bold-72" x="1016.210938"/>
     <use xlink:href="#DejaVuSans-Bold-6f" x="1065.527344"/>
     <use xlink:href="#DejaVuSans-Bold-72" x="1134.228516"/>
     <use xlink:href="#DejaVuSans-Bold-20" x="1183.544922"/>
     <use xlink:href="#DejaVuSans-Bold-6f" x="1218.359375"/>
     <use xlink:href="#DejaVuSans-Bold-6e" x="1287.060547"/>
     <use xlink:href="#DejaVuSans-Bold-20" x="1358.251953"/>
     <use xlink:href="#DejaVuSans-Bold-74" x="1393.066406"/>
     <use xlink:href="#DejaVuSans-Bold-68" x="1440.869141"/>
     <use xlink:href="#DejaVuSans-Bold-65" x="1512.060547"/>
     <use xlink:href="#DejaVuSans-Bold-20" x="1579.882812"/>
     <use xlink:href="#DejaVuSans-Bold-74" x="1614.697266"/>
     <use xlink:href="#DejaVuSans-Bold-65" x="1662.5"/>
     <use xlink:href="#DejaVuSans-Bold-73" x="1730.322266"/>
     <use xlink:href="#DejaVuSans-Bold-74" x="1789.84375"/>
     <use xlink:href="#DejaVuSans-Bold-20" x="1837.646484"/>
     <use xlink:href="#DejaVuSans-Bold-73" x="1872.460938"/>
     <use xlink:href="#DejaVuSans-Bold-65" x="1931.982422"/>
     <use xlink:href="#DejaVuSans-Bold-74" x="1999.804688"/>
     <use xlink:href="#DejaVuSans-Bold-20" x="2047.607422"/>
     <use xlink:href="#DejaVuSans-Bold-3a" x="2082.421875"/>
     <use xlink:href="#DejaVuSans-Bold-20" x="2122.412109"/>
     <use xlink:href="#DejaVuSans-Bold-30" x="2157.226562"/>
     <use xlink:href="#DejaVuSans-Bold-2e" x="2226.806641"/>
     <use xlink:href="#DejaVuSans-Bold-33" x="2264.794922"/>
     <use xlink:href="#DejaVuSans-Bold-31" x="2334.375"/>
    </g>
   </g>
   <g id="legend_1">
    <g id="patch_7">
     <path d="M 33.925 75.186875 
L 100.11875 75.186875 
Q 102.11875 75.186875 102.11875 73.186875 
L 102.11875 29.318125 
Q 102.11875 27.318125 100.11875 27.318125 
L 33.925 27.318125 
Q 31.925 27.318125 31.925 29.318125 
L 31.925 73.186875 
Q 31.925 75.186875 33.925 75.186875 
z
" style="fill: #eaeaf2; opacity: 0.8; stroke: #cccccc; stroke-linejoin: miter"/>
    </g>
    <g id="line2d_18">
     <path d="M 35.925 35.416563 
L 45.925 35.416563 
L 55.925 35.416563 
" style="fill: none; stroke: #1e90ff; stroke-width: 1.5; stroke-linecap: round"/>
    </g>
    <g id="text_16">
     <!-- y_train -->
     <g style="fill: #262626" transform="translate(63.925 38.916563) scale(0.1 -0.1)">
      <defs>
       <path id="DejaVuSans-79" d="M 2059 -325 
Q 1816 -950 1584 -1140 
Q 1353 -1331 966 -1331 
L 506 -1331 
L 506 -850 
L 844 -850 
Q 1081 -850 1212 -737 
Q 1344 -625 1503 -206 
L 1606 56 
L 191 3500 
L 800 3500 
L 1894 763 
L 2988 3500 
L 3597 3500 
L 2059 -325 
z
" transform="scale(0.015625)"/>
       <path id="DejaVuSans-5f" d="M 3263 -1063 
L 3263 -1509 
L -63 -1509 
L -63 -1063 
L 3263 -1063 
z
" transform="scale(0.015625)"/>
       <path id="DejaVuSans-74" d="M 1172 4494 
L 1172 3500 
L 2356 3500 
L 2356 3053 
L 1172 3053 
L 1172 1153 
Q 1172 725 1289 603 
Q 1406 481 1766 481 
L 2356 481 
L 2356 0 
L 1766 0 
Q 1100 0 847 248 
Q 594 497 594 1153 
L 594 3053 
L 172 3053 
L 172 3500 
L 594 3500 
L 594 4494 
L 1172 4494 
z
" transform="scale(0.015625)"/>
       <path id="DejaVuSans-72" d="M 2631 2963 
Q 2534 3019 2420 3045 
Q 2306 3072 2169 3072 
Q 1681 3072 1420 2755 
Q 1159 2438 1159 1844 
L 1159 0 
L 581 0 
L 581 3500 
L 1159 3500 
L 1159 2956 
Q 1341 3275 1631 3429 
Q 1922 3584 2338 3584 
Q 2397 3584 2469 3576 
Q 2541 3569 2628 3553 
L 2631 2963 
z
" transform="scale(0.015625)"/>
       <path id="DejaVuSans-61" d="M 2194 1759 
Q 1497 1759 1228 1600 
Q 959 1441 959 1056 
Q 959 750 1161 570 
Q 1363 391 1709 391 
Q 2188 391 2477 730 
Q 2766 1069 2766 1631 
L 2766 1759 
L 2194 1759 
z
M 3341 1997 
L 3341 0 
L 2766 0 
L 2766 531 
Q 2569 213 2275 61 
Q 1981 -91 1556 -91 
Q 1019 -91 701 211 
Q 384 513 384 1019 
Q 384 1609 779 1909 
Q 1175 2209 1959 2209 
L 2766 2209 
L 2766 2266 
Q 2766 2663 2505 2880 
Q 2244 3097 1772 3097 
Q 1472 3097 1187 3025 
Q 903 2953 641 2809 
L 641 3341 
Q 956 3463 1253 3523 
Q 1550 3584 1831 3584 
Q 2591 3584 2966 3190 
Q 3341 2797 3341 1997 
z
" transform="scale(0.015625)"/>
       <path id="DejaVuSans-69" d="M 603 3500 
L 1178 3500 
L 1178 0 
L 603 0 
L 603 3500 
z
M 603 4863 
L 1178 4863 
L 1178 4134 
L 603 4134 
L 603 4863 
z
" transform="scale(0.015625)"/>
       <path id="DejaVuSans-6e" d="M 3513 2113 
L 3513 0 
L 2938 0 
L 2938 2094 
Q 2938 2591 2744 2837 
Q 2550 3084 2163 3084 
Q 1697 3084 1428 2787 
Q 1159 2491 1159 1978 
L 1159 0 
L 581 0 
L 581 3500 
L 1159 3500 
L 1159 2956 
Q 1366 3272 1645 3428 
Q 1925 3584 2291 3584 
Q 2894 3584 3203 3211 
Q 3513 2838 3513 2113 
z
" transform="scale(0.015625)"/>
      </defs>
      <use xlink:href="#DejaVuSans-79"/>
      <use xlink:href="#DejaVuSans-5f" x="59.179688"/>
      <use xlink:href="#DejaVuSans-74" x="109.179688"/>
      <use xlink:href="#DejaVuSans-72" x="148.388672"/>
      <use xlink:href="#DejaVuSans-61" x="189.501953"/>
      <use xlink:href="#DejaVuSans-69" x="250.78125"/>
      <use xlink:href="#DejaVuSans-6e" x="278.564453"/>
     </g>
    </g>
    <g id="line2d_19">
     <path d="M 35.925 50.372813 
L 45.925 50.372813 
L 55.925 50.372813 
" style="fill: none; stroke: #fb8500; stroke-width: 1.5; stroke-linecap: round"/>
    </g>
    <g id="text_17">
     <!-- y_pred -->
     <g style="fill: #262626" transform="translate(63.925 53.872813) scale(0.1 -0.1)">
      <defs>
       <path id="DejaVuSans-70" d="M 1159 525 
L 1159 -1331 
L 581 -1331 
L 581 3500 
L 1159 3500 
L 1159 2969 
Q 1341 3281 1617 3432 
Q 1894 3584 2278 3584 
Q 2916 3584 3314 3078 
Q 3713 2572 3713 1747 
Q 3713 922 3314 415 
Q 2916 -91 2278 -91 
Q 1894 -91 1617 61 
Q 1341 213 1159 525 
z
M 3116 1747 
Q 3116 2381 2855 2742 
Q 2594 3103 2138 3103 
Q 1681 3103 1420 2742 
Q 1159 2381 1159 1747 
Q 1159 1113 1420 752 
Q 1681 391 2138 391 
Q 2594 391 2855 752 
Q 3116 1113 3116 1747 
z
" transform="scale(0.015625)"/>
       <path id="DejaVuSans-65" d="M 3597 1894 
L 3597 1613 
L 953 1613 
Q 991 1019 1311 708 
Q 1631 397 2203 397 
Q 2534 397 2845 478 
Q 3156 559 3463 722 
L 3463 178 
Q 3153 47 2828 -22 
Q 2503 -91 2169 -91 
Q 1331 -91 842 396 
Q 353 884 353 1716 
Q 353 2575 817 3079 
Q 1281 3584 2069 3584 
Q 2775 3584 3186 3129 
Q 3597 2675 3597 1894 
z
M 3022 2063 
Q 3016 2534 2758 2815 
Q 2500 3097 2075 3097 
Q 1594 3097 1305 2825 
Q 1016 2553 972 2059 
L 3022 2063 
z
" transform="scale(0.015625)"/>
       <path id="DejaVuSans-64" d="M 2906 2969 
L 2906 4863 
L 3481 4863 
L 3481 0 
L 2906 0 
L 2906 525 
Q 2725 213 2448 61 
Q 2172 -91 1784 -91 
Q 1150 -91 751 415 
Q 353 922 353 1747 
Q 353 2572 751 3078 
Q 1150 3584 1784 3584 
Q 2172 3584 2448 3432 
Q 2725 3281 2906 2969 
z
M 947 1747 
Q 947 1113 1208 752 
Q 1469 391 1925 391 
Q 2381 391 2643 752 
Q 2906 1113 2906 1747 
Q 2906 2381 2643 2742 
Q 2381 3103 1925 3103 
Q 1469 3103 1208 2742 
Q 947 2381 947 1747 
z
" transform="scale(0.015625)"/>
      </defs>
      <use xlink:href="#DejaVuSans-79"/>
      <use xlink:href="#DejaVuSans-5f" x="59.179688"/>
      <use xlink:href="#DejaVuSans-70" x="109.179688"/>
      <use xlink:href="#DejaVuSans-72" x="172.65625"/>
      <use xlink:href="#DejaVuSans-65" x="211.519531"/>
      <use xlink:href="#DejaVuSans-64" x="273.042969"/>
     </g>
    </g>
    <g id="line2d_20">
     <path d="M 35.925 65.329063 
L 45.925 65.329063 
L 55.925 65.329063 
" style="fill: none; stroke: #023047; stroke-width: 1.5; stroke-linecap: round"/>
    </g>
    <g id="text_18">
     <!-- y_test -->
     <g style="fill: #262626" transform="translate(63.925 68.829063) scale(0.1 -0.1)">
      <defs>
       <path id="DejaVuSans-73" d="M 2834 3397 
L 2834 2853 
Q 2591 2978 2328 3040 
Q 2066 3103 1784 3103 
Q 1356 3103 1142 2972 
Q 928 2841 928 2578 
Q 928 2378 1081 2264 
Q 1234 2150 1697 2047 
L 1894 2003 
Q 2506 1872 2764 1633 
Q 3022 1394 3022 966 
Q 3022 478 2636 193 
Q 2250 -91 1575 -91 
Q 1294 -91 989 -36 
Q 684 19 347 128 
L 347 722 
Q 666 556 975 473 
Q 1284 391 1588 391 
Q 1994 391 2212 530 
Q 2431 669 2431 922 
Q 2431 1156 2273 1281 
Q 2116 1406 1581 1522 
L 1381 1569 
Q 847 1681 609 1914 
Q 372 2147 372 2553 
Q 372 3047 722 3315 
Q 1072 3584 1716 3584 
Q 2034 3584 2315 3537 
Q 2597 3491 2834 3397 
z
" transform="scale(0.015625)"/>
      </defs>
      <use xlink:href="#DejaVuSans-79"/>
      <use xlink:href="#DejaVuSans-5f" x="59.179688"/>
      <use xlink:href="#DejaVuSans-74" x="109.179688"/>
      <use xlink:href="#DejaVuSans-65" x="148.388672"/>
      <use xlink:href="#DejaVuSans-73" x="209.912109"/>
      <use xlink:href="#DejaVuSans-74" x="262.011719"/>
     </g>
    </g>
   </g>
  </g>
 </g>
 <defs>
  <clipPath id="p4a20d904c5">
   <rect x="26.925" y="22.318125" width="837" height="277.2"/>
  </clipPath>
 </defs>
</svg>
